<svg width="38" height="38" viewBox="0 0 38 38" fill="none" xmlns="http://www.w3.org/2000/svg">
<path fill-rule="evenodd" clip-rule="evenodd" d="M3.16669 19.0001C3.16669 10.2553 10.2553 3.16675 19 3.16675C27.7448 3.16675 34.8334 10.2553 34.8334 19.0001C34.8334 27.7448 27.7448 34.8334 19 34.8334C10.2553 34.8334 3.16669 27.7448 3.16669 19.0001ZM19 6.33341C15.6406 6.33341 12.4188 7.66793 10.0433 10.0434C7.66787 12.4189 6.33335 15.6407 6.33335 19.0001C6.33335 22.3595 7.66787 25.5813 10.0433 27.9568C12.4188 30.3322 15.6406 31.6667 19 31.6667C22.3594 31.6667 25.5812 30.3322 27.9567 27.9568C30.3322 25.5813 31.6667 22.3595 31.6667 19.0001C31.6667 15.6407 30.3322 12.4189 27.9567 10.0434C25.5812 7.66793 22.3594 6.33341 19 6.33341Z" fill="#3E4C55"/>
<path fill-rule="evenodd" clip-rule="evenodd" d="M20.5833 11.0833C20.5833 10.6634 20.4165 10.2607 20.1196 9.96375C19.8227 9.66682 19.4199 9.5 19 9.5C18.5801 9.5 18.1773 9.66682 17.8804 9.96375C17.5835 10.2607 17.4167 10.6634 17.4167 11.0833V17.4167H11.0833C10.6634 17.4167 10.2607 17.5835 9.96375 17.8804C9.66682 18.1773 9.5 18.5801 9.5 19C9.5 19.4199 9.66682 19.8227 9.96375 20.1196C10.2607 20.4165 10.6634 20.5833 11.0833 20.5833H17.4167V26.9167C17.4167 27.3366 17.5835 27.7393 17.8804 28.0363C18.1773 28.3332 18.5801 28.5 19 28.5C19.4199 28.5 19.8227 28.3332 20.1196 28.0363C20.4165 27.7393 20.5833 27.3366 20.5833 26.9167V20.5833H26.9167C27.3366 20.5833 27.7393 20.4165 28.0363 20.1196C28.3332 19.8227 28.5 19.4199 28.5 19C28.5 18.5801 28.3332 18.1773 28.0363 17.8804C27.7393 17.5835 27.3366 17.4167 26.9167 17.4167H20.5833V11.0833Z" fill="#3E4C55"/>
</svg>
