<svg width="38" height="38" viewBox="0 0 38 38" fill="none" xmlns="http://www.w3.org/2000/svg">
<path d="M13.2604 25.7292L21.2563 23.4334C21.784 23.2751 22.2395 23.0043 22.6227 22.6212C23.0058 22.238 23.2761 21.7831 23.4333 21.2563L25.7292 13.2605C25.8083 12.9702 25.736 12.7127 25.5123 12.4878C25.2885 12.263 25.0309 12.1907 24.7396 12.2709L16.7437 14.5667C16.216 14.7251 15.761 14.9958 15.3789 15.379C14.9968 15.7622 14.7261 16.2171 14.5667 16.7438L12.2708 24.7397C12.1917 25.0299 12.2645 25.2875 12.4893 25.5123C12.7142 25.7372 12.9712 25.8095 13.2604 25.7292ZM19 21.3751C18.3403 21.3751 17.7798 21.1444 17.3185 20.6832C16.8572 20.2219 16.6261 19.6609 16.625 19.0001C16.6239 18.3393 16.8551 17.7788 17.3185 17.3186C17.7819 16.8584 18.3424 16.6272 19 16.6251C19.6576 16.623 20.2186 16.8541 20.6831 17.3186C21.1475 17.783 21.3782 18.3435 21.375 19.0001C21.3718 19.6566 21.1412 20.2177 20.6831 20.6832C20.225 21.1487 19.6639 21.3793 19 21.3751ZM19 34.8334C16.8097 34.8334 14.7514 34.4175 12.825 33.5857C10.8986 32.754 9.22292 31.6261 7.79792 30.2022C6.37292 28.7782 5.24506 27.1025 4.41433 25.1751C3.58361 23.2476 3.16772 21.1893 3.16667 19.0001C3.16561 16.8109 3.5815 14.7525 4.41433 12.8251C5.24717 10.8976 6.37503 9.22194 7.79792 7.798C9.22081 6.37405 10.8965 5.24619 12.825 4.41441C14.7535 3.58264 16.8118 3.16675 19 3.16675C21.1882 3.16675 23.2465 3.58264 25.175 4.41441C27.1035 5.24619 28.7792 6.37405 30.2021 7.798C31.625 9.22194 32.7534 10.8976 33.5872 12.8251C34.4211 14.7525 34.8365 16.8109 34.8333 19.0001C34.8302 21.1893 34.4143 23.2476 33.5857 25.1751C32.7571 27.1025 31.6292 28.7782 30.2021 30.2022C28.775 31.6261 27.0993 32.7545 25.175 33.5873C23.2507 34.4202 21.1924 34.8355 19 34.8334ZM19 31.6667C22.5097 31.6667 25.4985 30.4333 27.9664 27.9665C30.4343 25.4997 31.6677 22.5109 31.6667 19.0001C31.6656 15.4893 30.4322 12.5005 27.9664 10.0337C25.5006 7.56683 22.5118 6.33341 19 6.33341C15.4882 6.33341 12.4994 7.56736 10.0336 10.0352C7.56781 12.5031 6.33439 15.4914 6.33333 19.0001C6.33228 22.5087 7.56622 25.4976 10.0352 27.9665C12.5041 30.4354 15.4924 31.6689 19 31.6667Z" fill="#3E4C55"/>
</svg>
