<svg width="540" height="545" viewBox="0 0 540 545" fill="none" xmlns="http://www.w3.org/2000/svg">
<path d="M300.272 130.814C316.002 132.165 331.547 115.854 343.493 107.758C368.908 90.5979 396.315 95.6579 417.814 117.042C469.157 168.108 447.082 256.165 422.618 314.716" stroke="#D7E8F0" stroke-width="1.8612" stroke-miterlimit="10"/>
<path d="M243.882 107.758C243.752 107.707 243.626 107.648 243.503 107.582" stroke="#D7E8F0" stroke-width="2.6004" stroke-miterlimit="10"/>
<path d="M238.76 105.541C234.325 103.688 229.824 101.972 225.164 100.463C204.717 93.8675 190.272 100.96 180.918 109.76C176.168 114.326 172.174 119.618 169.086 125.437C168.518 126.463 168.083 127.343 167.766 128.02" stroke="#D7E8F0" stroke-width="1.8612" stroke-miterlimit="10"/>
<path d="M106.8 245.373C106.8 245.373 80.8 298.683 133.97 338.287" stroke="#D7E8F0" stroke-width="1.8612" stroke-miterlimit="10"/>
<path d="M185.049 300.764L184.394 300.659C182.752 300.961 181.134 301.385 179.554 301.926C179.312 302.009 179.087 302.097 178.845 302.203C176.423 303.089 174.119 304.272 171.986 305.723C170.674 303.826 169.548 301.807 168.624 299.695C167.317 296.712 166.448 293.555 166.046 290.323C165.37 289.834 164.763 289.257 164.242 288.607C164.6 293.603 165.813 298.501 167.828 303.087C167.916 303.281 167.999 303.47 168.087 303.659C167.674 302.863 167.273 302.031 166.908 301.182C165.051 296.955 163.949 292.435 163.652 287.828C163.439 284.539 163.707 281.236 164.448 278.025C166.208 270.316 170.789 263.993 177.613 261.032L180.904 268.913C180.131 269.262 179.384 269.668 178.669 270.127C173.829 273.207 170.652 278.337 170.652 284.141C170.664 288.116 172.158 291.944 174.841 294.877C175.938 296.141 177.218 297.234 178.638 298.12C180.404 299.267 182.347 300.114 184.389 300.628C184.606 300.689 184.826 300.735 185.049 300.764Z" fill="#D7E8F0"/>
<path d="M194.817 302.168C192.274 301.855 189.709 301.508 187.161 301.112C189.513 301.382 191.895 301.247 194.201 300.711L194.817 302.168Z" fill="#D7E8F0"/>
<path d="M209.786 180.31C212.253 185.859 213.381 191.911 213.077 197.976C203.025 204.511 194.029 212.543 186.4 221.793C176.755 220.011 167.383 212.302 162.429 200.888C155.257 184.415 160.035 166.419 173.116 160.734C186.198 155.049 202.632 163.801 209.786 180.31Z" fill="#90D5FF"/>
<path d="M230.017 189.211C227.691 190.067 225.418 191.061 223.21 192.19C221.34 193.127 219.123 194.306 216.681 195.74C216.557 190.033 215.309 184.406 213.007 179.183C205.056 160.91 186.871 151.19 172.368 157.496C157.866 163.801 152.568 183.72 160.488 202.015C165.496 213.547 174.568 221.656 184.248 224.494C182.691 226.488 181.146 228.6 179.659 230.8C173.61 239.771 168.737 249.481 165.161 259.694C164.431 261.747 163.743 263.849 163.098 266C163.098 266 158.508 280.238 163.634 287.806C163.807 288.083 164.004 288.344 164.224 288.584C164.583 293.581 165.795 298.479 167.81 303.065C167.898 303.259 167.982 303.448 168.07 303.637C168.694 304.834 169.35 305.995 170.063 307.086C170.67 306.602 171.308 306.15 171.968 305.701C170.657 303.804 169.531 301.785 168.606 299.673C167.299 296.689 166.431 293.533 166.028 290.301C166.589 290.69 167.186 291.026 167.81 291.303C170.223 292.334 172.566 293.52 174.824 294.854C176.283 295.685 177.571 296.786 178.621 298.097C179.026 298.581 179.497 299.006 180.02 299.36C181.894 300.574 180.46 301.49 179.536 301.926C179.294 302.009 179.07 302.097 178.828 302.203C177.424 302.823 152.846 314.083 157.659 338.283L165.403 355.812L153.017 357.216L133.965 115.819L226.598 149.303L230.017 189.211Z" fill="#90D5FF"/>
<path d="M169.878 307.223L165.038 311.988C163.827 309.95 162.745 307.839 161.8 305.665C154.592 289.073 156.273 271.385 164.814 260.143C164.919 260.006 165.02 259.848 165.144 259.703L165.179 259.667L164.413 278.011L164.105 285.302C164.105 285.302 164.105 287.189 164.171 288.091C164.171 288.263 164.171 288.421 164.206 288.593C164.565 293.59 165.778 298.487 167.792 303.073C167.88 303.267 167.964 303.456 168.052 303.645C168.628 304.869 169.24 306.061 169.878 307.223Z" fill="#90D5FF"/>
<path d="M133.974 115.815L92.9792 139.821L121.443 357.212L152.973 356.495L133.974 115.815Z" fill="#D7E8F0"/>
<path d="M223.21 192.19C222.594 186.806 221.175 181.546 219 176.583C209.249 154.117 186.88 142.201 169.082 149.928C151.284 157.654 144.758 182.162 154.513 204.611C159.969 217.151 169.341 226.417 179.664 230.8C187.821 234.267 196.568 234.681 204.431 231.271C218.133 225.309 225.168 209.442 223.21 192.19ZM201.158 223.72C195.79 226.061 189.933 226.197 184.253 224.517C174.573 221.679 165.513 213.569 160.493 202.037C152.542 183.742 157.853 163.823 172.373 157.518C186.893 151.213 205.06 160.932 213.011 179.205C215.313 184.429 216.562 190.056 216.685 195.763C216.923 208.25 211.273 219.32 201.158 223.72Z" fill="#90D5FF"/>
<path d="M229.639 192.48C228.912 186.144 227.241 179.954 224.68 174.114C213.209 147.683 186.906 133.665 165.958 142.755C145.009 151.846 137.358 180.674 148.798 207.083C155.217 221.832 166.239 232.735 178.388 237.883C187.984 241.958 198.271 242.446 207.524 238.433C223.668 231.433 231.94 212.768 229.639 192.48ZM203.701 229.545C197.382 232.295 190.501 232.458 183.813 230.482C172.443 227.138 161.764 217.604 155.877 204.034C146.523 182.518 152.797 159.084 169.834 151.674C186.871 144.264 208.286 155.691 217.636 177.194C220.346 183.34 221.814 189.961 221.956 196.677C222.242 211.36 215.598 224.362 203.701 229.536V229.545Z" fill="#D7E8F0"/>
<path d="M213.077 197.975C212.47 208.095 207.48 216.803 199.098 220.459C195.098 222.18 190.668 222.64 186.4 221.779C176.755 219.997 167.383 212.289 162.429 200.875C155.257 184.401 160.035 166.405 173.116 160.721C186.198 155.036 202.632 163.801 209.786 180.296C212.255 185.849 213.383 191.906 213.077 197.975Z" fill="#D7E8F0"/>
<path d="M195.473 216.121C184.292 220.987 170.27 213.481 164.132 199.401C157.994 185.321 162.099 169.921 173.279 165.081C184.46 160.241 198.496 167.721 204.616 181.801C210.736 195.881 206.64 211.268 195.473 216.121Z" fill="#90D5FF"/>
<path d="M184.394 300.658C182.752 300.961 181.134 301.385 179.554 301.926C179.312 302.009 179.087 302.097 178.845 302.203C176.423 303.089 174.119 304.272 171.986 305.723C170.674 303.826 169.548 301.807 168.624 299.695C167.317 296.712 166.448 293.555 166.046 290.323C164.66 279.323 169.06 269.137 177.772 265.362L178.652 270.127C173.812 273.207 170.635 278.337 170.635 284.141C170.647 288.116 172.14 291.944 174.824 294.877C175.921 296.141 177.2 297.234 178.621 298.12C180.387 299.267 182.33 300.114 184.372 300.628L184.394 300.658Z" fill="#90D5FF"/>
<path d="M186.614 199.695C190.601 197.962 192.06 192.479 189.873 187.45C187.686 182.419 182.681 179.747 178.694 181.481C174.707 183.215 173.248 188.697 175.436 193.727C177.622 198.757 182.627 201.429 186.614 199.695Z" fill="#90D5FF"/>
<path d="M330.214 180.31C327.747 185.859 326.619 191.911 326.923 197.976C336.975 204.511 345.971 212.543 353.6 221.793C363.245 220.011 372.617 212.302 377.571 200.888C384.743 184.415 379.965 166.419 366.884 160.734C353.802 155.049 337.368 163.801 330.214 180.31Z" fill="#90D5FF"/>
<path d="M309.983 189.211C312.309 190.067 314.582 191.061 316.79 192.19C318.66 193.127 320.877 194.306 323.319 195.74C323.443 190.033 324.691 184.406 326.993 179.183C334.944 160.91 353.129 151.19 367.632 157.496C382.134 163.801 387.432 183.72 379.512 202.015C374.504 213.547 365.432 221.656 355.752 224.494C357.309 226.488 358.832 228.6 360.341 230.8C366.398 239.769 371.278 249.481 374.861 259.694C375.591 261.747 376.279 263.849 376.924 266C376.924 266 381.514 280.238 376.388 287.806C376.215 288.083 376.018 288.344 375.798 288.584C375.439 293.581 374.227 298.479 372.212 303.065C372.124 303.259 372.04 303.448 371.952 303.637C371.328 304.834 370.672 305.995 369.959 307.086C369.352 306.602 368.714 306.15 368.054 305.701C369.365 303.804 370.491 301.785 371.416 299.673C372.723 296.689 373.591 293.533 373.994 290.301C373.44 290.689 372.85 291.025 372.234 291.303C369.821 292.334 367.478 293.52 365.22 294.854C363.761 295.685 362.473 296.786 361.423 298.097C361.018 298.581 360.547 299.006 360.024 299.36C358.15 300.574 359.584 301.49 360.508 301.926C360.75 302.009 360.974 302.097 361.216 302.203C362.62 302.823 387.176 314.083 382.385 338.283L374.641 355.812L387.027 357.216L406.079 115.819L313.446 149.303L309.983 189.211Z" fill="#90D5FF"/>
<path d="M370.122 307.223L374.962 311.988C376.173 309.95 377.255 307.839 378.2 305.665C385.408 289.073 383.727 271.385 375.186 260.143C375.081 260.006 374.98 259.848 374.856 259.703L374.821 259.667L375.587 278.011L375.895 285.302C375.895 285.302 375.895 287.189 375.829 288.091C375.829 288.263 375.829 288.421 375.794 288.593C375.435 293.59 374.222 298.487 372.208 303.073C372.12 303.267 372.036 303.456 371.948 303.645C371.372 304.869 370.76 306.061 370.122 307.223Z" fill="#90D5FF"/>
<path d="M406.026 115.815L447.021 139.821L418.557 357.212L387.027 356.495L406.026 115.815Z" fill="#D7E8F0"/>
<path d="M316.79 192.19C317.406 186.806 318.825 181.546 321 176.583C330.751 154.117 353.12 142.201 370.918 149.928C388.716 157.654 395.242 182.162 385.487 204.611C380.031 217.151 370.659 226.417 360.336 230.8C352.179 234.267 343.432 234.681 335.569 231.271C321.867 225.309 314.832 209.442 316.79 192.19ZM338.842 223.72C344.21 226.061 350.067 226.197 355.747 224.517C365.427 221.679 374.487 213.569 379.507 202.037C387.458 183.742 382.147 163.823 367.627 157.518C353.107 151.213 334.94 160.932 326.989 179.205C324.687 184.429 323.438 190.056 323.315 195.763C323.077 208.25 328.727 219.32 338.842 223.72Z" fill="#90D5FF"/>
<path d="M343.401 250.582C338.222 249.095 333.026 251.643 328.089 253.662C335.403 256.409 343.31 257.192 351.022 255.933C348.509 253.46 345.944 251.313 343.401 250.582Z" fill="#90D5FF"/>
<path d="M310.361 192.48C311.088 186.144 312.759 179.954 315.32 174.114C326.791 147.683 353.094 133.665 374.042 142.755C394.991 151.846 402.642 180.674 391.18 207.083C384.761 221.832 373.739 232.735 361.59 237.883C351.994 241.958 341.707 242.446 332.454 238.433C316.332 231.433 308.06 212.768 310.361 192.48ZM336.299 229.545C342.618 232.295 349.499 232.458 356.187 230.482C367.557 227.138 378.236 217.604 384.123 204.034C393.477 182.518 387.203 159.084 370.166 151.674C353.129 144.264 331.714 155.691 322.364 177.194C319.654 183.34 318.186 189.961 318.044 196.677C317.758 211.36 324.402 224.362 336.299 229.536V229.545Z" fill="#D7E8F0"/>
<path d="M326.923 197.975C327.53 208.095 332.52 216.803 340.902 220.459C344.902 222.18 349.332 222.64 353.6 221.779C363.245 219.997 372.617 212.289 377.571 200.875C384.743 184.401 379.965 166.405 366.884 160.721C353.802 155.036 337.368 163.801 330.214 180.296C327.745 185.849 326.617 191.906 326.923 197.975Z" fill="#D7E8F0"/>
<path d="M344.527 216.121C355.708 220.987 369.73 213.481 375.868 199.401C382.006 185.321 377.901 169.921 366.721 165.081C355.54 160.241 341.504 167.721 335.384 181.801C329.264 195.881 333.36 211.268 344.527 216.121Z" fill="#90D5FF"/>
<path d="M355.606 300.658C357.248 300.961 358.866 301.385 360.446 301.926C360.688 302.009 360.913 302.097 361.155 302.203C363.577 303.089 365.881 304.272 368.014 305.723C369.326 303.826 370.452 301.807 371.376 299.695C372.683 296.712 373.552 293.555 373.954 290.323C375.34 279.323 370.94 269.137 362.228 265.362L361.348 270.127C367.508 272.705 371.534 277.475 369.365 284.141C368.107 288.008 367.808 291.951 365.176 294.877C364.08 296.141 362.8 297.234 361.379 298.12C359.613 299.267 357.67 300.114 355.628 300.628L355.606 300.658Z" fill="#90D5FF"/>
<path d="M364.59 193.756C366.777 188.727 365.318 183.244 361.331 181.511C357.344 179.777 352.339 182.449 350.152 187.479C347.965 192.508 349.424 197.991 353.411 199.725C357.398 201.458 362.403 198.786 364.59 193.756Z" fill="#90D5FF"/>
<path d="M272.816 277.4C282.707 281.101 291.56 285.673 298.868 291.48C291.265 285.954 280.472 280.428 264.918 274.677C238.729 264.962 221.512 267.008 221.512 267.008C225.182 263.699 222.687 259.299 222.687 259.299C222.687 259.299 216.852 253.632 193.902 260.993C170.952 268.354 170.274 280.899 170.274 280.899C168.747 290.2 175.624 296.488 175.624 296.488L175.677 296.712C174.519 295.694 173.504 294.524 172.663 293.232C172.439 292.902 172.223 292.554 172.038 292.206C171.553 291.353 171.154 290.454 170.846 289.522C170.723 289.212 170.619 288.895 170.534 288.572C170.534 288.467 170.481 288.365 170.463 288.26C170.365 287.924 170.284 287.583 170.221 287.239C170.221 287.116 170.168 286.979 170.151 286.839C170.088 286.495 170.043 286.148 170.014 285.8C169.915 284.961 169.885 284.114 169.926 283.27C169.926 283.27 169.926 282.922 169.962 282.39C169.962 282.355 169.962 282.324 169.962 282.289C170.032 280.969 170.274 278.597 170.947 277.009C170.393 277.805 169.856 278.619 169.319 279.433C168.989 279.952 168.505 280.837 167.933 281.792C167.882 281.857 167.836 281.926 167.797 281.999C166.305 283.974 164.717 285.62 163.397 285.378C163.307 285.357 163.221 285.327 163.137 285.29C162.341 284.96 161.852 284.093 161.544 282.966C161.646 282.966 161.456 282.672 161.439 282.526C161.331 282.058 161.257 281.584 161.214 281.105C161.214 280.81 161.162 280.498 161.144 280.19V279.825C161.123 277.215 161.309 274.608 161.698 272.028C162.996 262.088 167.762 252.923 172.404 244.194C179.202 231.521 187.777 219.884 197.866 209.636C210.565 196.647 230.985 186.875 249.157 183.724V226.844L264.72 217.67C264.72 217.67 271.008 233.51 272.807 255.119C273.419 262.188 273.449 269.296 272.895 276.371C272.895 276.459 272.895 276.547 272.86 276.613C272.869 276.872 272.834 277.15 272.816 277.4Z" fill="#90D5FF"/>
<path d="M280.397 274.654C305.288 264.939 316.882 266.166 316.882 266.166C313.393 262.88 314.44 259.685 314.44 259.685C314.44 259.685 326.06 253.609 347.88 260.97C369.7 268.331 370.32 280.876 370.32 280.876C371.768 290.177 365.234 296.465 365.234 296.465L365.185 296.689C366.292 295.663 367.256 294.493 368.05 293.209C368.265 292.879 368.459 292.531 368.644 292.184C369.105 291.326 369.485 290.428 369.779 289.5C369.894 289.188 369.992 288.871 370.074 288.549C370.074 288.444 370.122 288.342 370.14 288.237C370.236 287.907 370.302 287.559 370.368 287.216C370.368 287.093 370.421 286.956 370.434 286.816C370.498 286.472 370.542 286.125 370.566 285.777C370.661 284.937 370.688 284.091 370.65 283.247C370.65 283.247 370.65 282.9 370.615 282.367C370.615 282.332 370.615 282.301 370.615 282.266C370.549 280.946 370.316 278.574 369.673 276.986C370.201 277.782 370.712 278.596 371.222 279.41C371.534 279.93 371.996 280.814 372.542 281.769C372.595 281.832 372.639 281.901 372.674 281.976C374.091 283.951 375.604 285.597 376.841 285.355C376.926 285.333 377.008 285.304 377.087 285.267C377.844 284.937 378.306 284.07 378.601 282.944C378.504 282.944 378.684 282.649 378.702 282.504C378.804 282.035 378.874 281.56 378.913 281.082C378.913 280.788 378.962 280.475 378.979 280.167V279.802C379 277.194 378.825 274.587 378.456 272.005C377.219 262.066 372.692 252.9 368.283 244.171C361.873 231.575 353.727 219.943 344.083 209.613C332.04 196.572 312.614 186.799 295.344 183.649V226.769L282.038 218.488C278.416 231.032 276.072 243.91 275.042 256.926C274.514 263.557 272.235 268.947 272.812 276.379C272.812 276.467 272.812 276.555 272.842 276.621C272.842 276.88 272.878 277.158 272.891 277.417L280.397 274.654Z" fill="#90D5FF"/>
<path d="M324.903 353.748C324.938 352.257 324.974 350.668 324.991 348.948L325.044 350.558C325.099 351.624 325.052 352.692 324.903 353.748Z" fill="#90D5FF"/>
<path d="M236.903 465.038L187.535 471C186.654 471.002 185.781 470.829 184.967 470.493C184.152 470.157 183.412 469.664 182.788 469.041C182.164 468.419 181.669 467.68 181.33 466.867C180.992 466.053 180.818 465.18 180.816 464.299C180.819 462.519 181.528 460.813 182.788 459.556C184.048 458.298 185.755 457.593 187.535 457.594L205.619 452.52C206.446 452.289 207.21 451.878 207.859 451.317C208.507 450.755 209.023 450.056 209.369 449.271C209.716 448.486 209.884 447.634 209.861 446.776C209.839 445.918 209.627 445.076 209.24 444.31L187.174 400.451C215.942 411.174 227.395 396.174 227.395 396.174L242.896 456.256C243.145 457.231 243.183 458.247 243.009 459.238C242.834 460.228 242.451 461.17 241.884 462.001C241.317 462.832 240.579 463.533 239.721 464.056C238.862 464.58 237.902 464.915 236.903 465.038Z" fill="#252525"/>
<path d="M359.76 464.276C359.764 465.158 359.593 466.032 359.258 466.847C358.923 467.663 358.43 468.404 357.808 469.029C357.186 469.654 356.446 470.149 355.632 470.488C354.818 470.825 353.945 471 353.063 471L303.902 466.547C302.89 466.451 301.91 466.137 301.03 465.627C300.15 465.117 299.39 464.423 298.803 463.592C298.216 462.762 297.815 461.814 297.628 460.815C297.441 459.814 297.473 458.786 297.72 457.8L313.441 396.2C318.814 400.393 330.804 409.004 353.098 402.003L331.494 445.656C331.101 446.452 330.895 447.328 330.892 448.216C330.889 449.105 331.089 449.982 331.477 450.781C331.865 451.58 332.431 452.28 333.131 452.827C333.831 453.374 334.647 453.753 335.516 453.936L353.081 457.589C354.852 457.593 356.55 458.3 357.802 459.553C359.053 460.807 359.758 462.505 359.76 464.276Z" fill="#252525"/>
<path d="M265.019 217.67L249.483 226.761V183.641C249.637 183.605 249.813 183.588 249.967 183.553L265.019 217.67Z" fill="#252525"/>
<path d="M295.96 184.393V226.761L291.96 224.372L282.131 218.484L295.472 184.292C295.483 184.245 295.509 184.203 295.545 184.172C295.581 184.141 295.626 184.12 295.674 184.115C295.721 184.109 295.769 184.118 295.812 184.14C295.854 184.162 295.889 184.197 295.912 184.239L295.96 184.393Z" fill="#252525"/>
<path d="M237 351.461L236.292 351.773" stroke="#252525" stroke-width="2.6004" stroke-miterlimit="10"/>
<path d="M227.954 367.599C226.933 368.154 225.186 370.239 225.186 370.239C223.294 372.879 222.48 376.65 223.866 382.537L242.887 456.259C243.14 457.235 243.182 458.254 243.01 459.247C242.837 460.241 242.454 461.186 241.887 462.019C241.319 462.852 240.58 463.555 239.719 464.079C238.858 464.603 237.895 464.938 236.894 465.059L187.526 470.999C185.747 471.001 184.039 470.295 182.779 469.037C181.519 467.78 180.81 466.074 180.808 464.294C180.81 462.514 181.519 460.808 182.779 459.55C184.039 458.293 185.747 457.587 187.526 457.588L205.61 452.519C206.437 452.288 207.201 451.877 207.85 451.316C208.499 450.754 209.014 450.055 209.361 449.27C209.707 448.485 209.875 447.633 209.852 446.775C209.83 445.917 209.618 445.075 209.232 444.309L160.471 347.408C157.255 340.596 156.453 332.892 158.197 325.564C159.941 318.236 164.128 311.719 170.067 307.086C170.674 306.598 171.312 306.149 171.972 305.7C175.721 303.181 179.95 301.464 184.394 300.658" stroke="#252525" stroke-width="2.6004" stroke-miterlimit="10"/>
<path d="M356.271 300.689C377.338 304.605 389.442 327.59 380.088 347.408L331.472 445.642C331.079 446.438 330.873 447.313 330.87 448.201C330.867 449.088 331.067 449.965 331.455 450.763C331.843 451.561 332.409 452.26 333.109 452.805C333.809 453.35 334.625 453.728 335.494 453.91L353.05 457.571C353.931 457.569 354.804 457.741 355.619 458.078C356.434 458.414 357.174 458.908 357.797 459.531C358.42 460.154 358.915 460.893 359.251 461.708C359.588 462.522 359.761 463.395 359.76 464.276C359.764 465.159 359.592 466.034 359.257 466.85C358.921 467.667 358.427 468.408 357.803 469.033C357.18 469.658 356.438 470.154 355.623 470.491C354.807 470.828 353.933 471.001 353.05 471L303.88 466.547C302.867 466.452 301.886 466.139 301.005 465.629C300.124 465.12 299.363 464.426 298.775 463.595C298.187 462.765 297.786 461.816 297.598 460.816C297.411 459.816 297.442 458.787 297.689 457.8L316.693 382.538C317.18 380.491 317.245 378.367 316.885 376.294C316.526 374.222 315.747 372.244 314.598 370.482C310.036 363.266 287.296 358.892 287.296 358.892C282.861 358.184 277.806 357.603 272.05 357.229C270.878 357.154 269.703 357.154 268.53 357.229C262.758 357.603 257.706 358.184 253.267 358.892" stroke="#252525" stroke-width="2.6004" stroke-miterlimit="10"/>
<path d="M304.584 350.162C304.144 349.969 303.704 349.797 303.233 349.608" stroke="#252525" stroke-width="2.6004" stroke-miterlimit="10"/>
<path d="M295.577 347.114C294.851 346.907 294.09 346.713 293.289 346.542" stroke="#252525" stroke-width="2.6004" stroke-miterlimit="10"/>
<path d="M246.957 348.358C246.486 348.464 246.02 348.57 245.571 348.706" stroke="#252525" stroke-width="2.6004" stroke-miterlimit="10"/>
<path d="M314.163 260.97C314.65 262.674 315.015 264.411 315.254 266.167C300.136 268.367 285.774 272.111 273.014 277.409" stroke="#252525" stroke-width="2.6004" stroke-miterlimit="10"/>
<path d="M231.764 307.236C228.165 308.578 225.635 311.592 223.312 314.509C220.566 318.028 217.628 321.393 214.512 324.589C211.916 327.229 208.721 329.429 206.961 332.751C206.947 332.793 206.929 332.834 206.908 332.874C204.343 338 211.344 342.607 215.268 338.418L217.587 335.959" stroke="#252525" stroke-width="2.6004" stroke-miterlimit="10"/>
<path d="M222.612 322.517C216.228 333.02 215.88 346.919 215.528 359.239C215.475 360.964 215.502 362.759 216.219 364.321C217.834 367.868 223.611 367.868 224.011 363.441C224.825 353.968 227.166 343.201 227.39 342.04" stroke="#252525" stroke-width="2.6004" stroke-miterlimit="10"/>
<path d="M314.44 309.079C314.546 309.079 314.664 309.026 314.77 309.009C328.577 305.788 342.538 303.086 356.253 300.675C356.412 300.644 356.548 300.627 356.693 300.591C358.966 300.194 361.133 299.331 363.058 298.059C364.983 296.786 366.626 295.131 367.882 293.195" stroke="#252525" stroke-width="2.6004" stroke-miterlimit="10"/>
<path d="M279.24 318.514C273.08 320.432 267.844 322.536 262.384 326.196C255.093 331.094 254.741 339.335 255.005 346.749C255.11 349.78 255.234 352.794 255.234 355.808C255.234 356.262 255.144 356.71 254.971 357.128C254.798 357.546 254.543 357.926 254.223 358.246C253.903 358.566 253.522 358.82 253.104 358.993C252.685 359.166 252.237 359.254 251.784 359.254H250.97C250.086 359.256 249.237 358.916 248.598 358.306C247.959 357.696 247.581 356.863 247.542 355.98L246.97 348.359L246.275 339.198C246.275 339.198 245.932 343.356 245.584 348.707C245.29 353.349 245.012 358.893 244.995 363.376C244.993 364.255 244.656 365.099 244.052 365.737C243.448 366.375 242.623 366.757 241.746 366.806C240.868 366.855 240.006 366.567 239.335 366C238.664 365.434 238.234 364.632 238.135 363.759C237.805 361.022 237.321 356.622 237.009 351.461C236.82 348.535 236.679 345.363 236.661 342.107" stroke="#252525" stroke-width="2.6004" stroke-miterlimit="10"/>
<path d="M236.648 342.018V342.106C236.234 350.782 235.94 361.193 236.371 369.284C236.49 371.52 234.329 373.082 232.23 373.038C229.3 372.976 228.323 370.692 228.02 368.176C226.955 359.274 225.82 350.963 227.382 342.044C227.385 342.036 227.386 342.028 227.386 342.02C227.386 342.011 227.385 342.003 227.382 341.996" stroke="#252525" stroke-width="2.6004" stroke-miterlimit="10"/>
<path d="M315.254 266.167C320.112 265.549 325.024 266.787 329.008 269.634" stroke="#252525" stroke-width="2.6004" stroke-miterlimit="10"/>
<path d="M225.512 266.166C242.729 268.696 258.952 272.146 273.032 277.408C286.073 282.279 297.262 288.685 305.644 297.349C311.118 302.959 315.324 309.713 319.522 316.313C319.918 316.92 320.301 317.527 320.697 318.134C322.064 320.4 323.731 322.472 325.651 324.294C327.768 326.182 330.311 327.709 331.767 330.221C333.224 332.734 332.911 335.831 330.328 337.459C329.101 338.238 326.206 338.722 324.666 337.701" stroke="#252525" stroke-width="2.6004" stroke-miterlimit="10"/>
<path d="M304.118 333.359V333.447C304.527 341.917 304.817 352.041 304.426 360.045C304.401 360.588 304.487 361.131 304.679 361.64C304.87 362.149 305.163 362.614 305.54 363.006C305.916 363.399 306.368 363.711 306.869 363.923C307.369 364.136 307.908 364.244 308.452 364.243C309.445 364.243 310.403 363.876 311.142 363.213C311.881 362.549 312.349 361.636 312.456 360.648C313.155 354.101 314.312 343.761 312.016 330.794C312.012 330.786 312.01 330.778 312.01 330.77C312.01 330.761 312.012 330.753 312.016 330.745C312.244 331.903 315.94 345.309 316.754 354.787C317.159 359.187 322.914 359.187 324.551 355.667C325.268 354.096 325.29 352.31 325.242 350.585C324.89 338.287 324.542 324.379 318.158 313.88" stroke="#252525" stroke-width="2.6004" stroke-miterlimit="10"/>
<path d="M225.512 266.167C220.655 265.549 215.745 266.788 211.762 269.634" stroke="#252525" stroke-width="2.6004" stroke-miterlimit="10"/>
<path d="M249.382 183.68V226.8L264.918 217.709L249.866 183.596C249.844 183.542 249.805 183.498 249.755 183.469C249.705 183.441 249.646 183.431 249.59 183.441C249.533 183.451 249.481 183.48 249.443 183.523C249.405 183.567 249.383 183.622 249.382 183.68Z" stroke="#252525" stroke-width="2.6004" stroke-miterlimit="10"/>
<path d="M264.918 217.671C264.918 217.671 275.918 245.351 273.01 277.409C273.01 277.409 276.178 236.071 282.038 218.48M282.038 218.48L295.863 226.761V184.389C295.866 184.328 295.847 184.268 295.81 184.221C295.773 184.173 295.719 184.14 295.66 184.129C295.6 184.118 295.538 184.128 295.486 184.159C295.433 184.19 295.394 184.239 295.375 184.297L282.038 218.48Z" stroke="#252525" stroke-width="2.6004" stroke-miterlimit="10"/>
<path d="M295.863 184.388L287.864 155.982" stroke="#252525" stroke-width="2.6004" stroke-miterlimit="10"/>
<path d="M249.866 183.557L254.323 159.612" stroke="#252525" stroke-width="2.6004" stroke-miterlimit="10"/>
<path d="M194.817 302.167C194.826 302.164 194.834 302.162 194.844 302.162C194.853 302.162 194.862 302.164 194.87 302.167C199.467 304.255 203.446 307.494 206.424 311.57C207.638 313.202 208.65 314.975 209.438 316.85C210.831 320.097 211.618 323.572 211.762 327.102" stroke="#252525" stroke-width="2.6004" stroke-miterlimit="10"/>
<path d="M325.629 324.299C325.629 324.299 331.283 305.19 356.271 300.689" stroke="#252525" stroke-width="2.6004" stroke-miterlimit="10"/>
<path d="M315.949 373.037C315.949 373.037 316.776 366.367 318.237 357.514" stroke="#252525" stroke-width="2.6004" stroke-miterlimit="10"/>
<path d="M307.655 125.565C307.655 137.366 301.222 147.908 292.356 154.75C290.651 156.072 288.846 157.26 286.958 158.305C288.402 155.095 289.131 151.609 289.096 148.089V145.765C289.485 145.481 289.85 145.164 290.187 144.819C290.66 144.36 291.082 143.851 291.446 143.301C291.821 142.748 292.139 142.159 292.396 141.541C292.934 140.279 293.21 138.919 293.206 137.546C293.206 137.224 293.188 136.902 293.148 136.583C293.157 136.53 293.157 136.477 293.148 136.424C293.124 136.119 293.077 135.816 293.008 135.518C293.014 135.482 293.014 135.444 293.008 135.408C292.948 135.101 292.867 134.797 292.766 134.501C292.675 134.177 292.562 133.859 292.427 133.551C292.385 133.449 292.338 133.349 292.286 133.252C292.208 133.063 292.118 132.88 292.018 132.702C292 132.656 291.974 132.612 291.943 132.574C291.806 132.308 291.651 132.052 291.476 131.809C291.322 131.567 291.138 131.325 290.966 131.1C290.711 130.801 290.456 130.519 290.187 130.251C289.919 129.983 289.747 129.851 289.536 129.653C289.422 129.556 289.294 129.455 289.166 129.358C289.039 129.261 288.814 129.103 288.63 128.988C288.381 128.816 288.121 128.66 287.851 128.522C287.202 128.162 286.512 127.881 285.796 127.686V123.171C285.803 123.072 285.803 122.972 285.796 122.872C285.722 121.725 285.213 120.65 284.374 119.865C283.534 119.08 282.426 118.645 281.277 118.648H258.705C257.506 118.649 256.357 119.126 255.509 119.975C254.662 120.823 254.186 121.973 254.186 123.171V127.972C252.495 128.622 251.005 129.707 249.868 131.119C248.732 132.531 247.989 134.218 247.715 136.009C247.442 137.801 247.647 139.633 248.311 141.32C248.975 143.006 250.072 144.487 251.494 145.611V148.119C251.484 151.634 252.235 155.108 253.694 158.305C249.815 156.171 246.297 153.44 243.266 150.214C238.989 144.309 236.309 137.238 236.309 129.631C236.306 122.165 238.54 114.87 242.723 108.686C246.905 102.502 252.844 97.713 259.774 94.9363C266.704 92.1596 274.307 91.5227 281.602 93.1078C288.897 94.6929 295.55 98.4271 300.703 103.829C305.243 110.166 307.675 117.77 307.655 125.565Z" fill="#252525"/>
<path d="M251.489 145.602V148.119C251.432 153.519 253.237 158.775 256.602 163C259.475 166.52 263.778 169.648 270.048 169.864C277.41 170.123 282.192 165.842 285.127 161.526C287.778 157.548 289.159 152.859 289.087 148.079L289.017 137.203V130.11" stroke="#252525" stroke-width="2.6004" stroke-miterlimit="10"/>
<path d="M268.156 137.551C268.156 138.901 267.89 140.239 267.373 141.486C266.856 142.735 266.099 143.868 265.143 144.823C264.188 145.778 263.054 146.535 261.805 147.052C260.558 147.568 259.22 147.834 257.869 147.833C257.233 147.839 256.597 147.778 255.973 147.653C253.961 146.565 252.369 144.837 251.45 142.742C250.531 140.646 250.338 138.305 250.901 136.088C251.464 133.87 252.75 131.904 254.557 130.501C256.364 129.098 258.587 128.338 260.874 128.341C261.511 128.337 262.147 128.399 262.771 128.526C264.399 129.404 265.76 130.707 266.708 132.296C267.656 133.884 268.156 135.7 268.156 137.551Z" fill="#90D5FF"/>
<path d="M293.188 137.551C293.188 138.901 292.922 140.239 292.405 141.486C291.888 142.735 291.13 143.868 290.175 144.823C289.219 145.778 288.085 146.535 286.837 147.052C285.589 147.568 284.252 147.834 282.901 147.833C282.264 147.839 281.629 147.778 281.004 147.653C278.992 146.565 277.4 144.837 276.482 142.742C275.563 140.646 275.37 138.305 275.933 136.088C276.495 133.87 277.782 131.904 279.588 130.501C281.395 129.098 283.618 128.338 285.906 128.341C286.543 128.337 287.179 128.399 287.802 128.526C289.431 129.404 290.791 130.707 291.74 132.296C292.688 133.884 293.188 135.7 293.188 137.551Z" fill="#90D5FF"/>
<path d="M257.874 147.832C263.55 147.832 268.152 143.23 268.152 137.554C268.152 131.877 263.55 127.276 257.874 127.276C252.197 127.276 247.595 131.877 247.595 137.554C247.595 143.23 252.197 147.832 257.874 147.832Z" stroke="#252525" stroke-width="2.6004" stroke-miterlimit="10"/>
<path d="M282.91 147.832C288.586 147.832 293.188 143.23 293.188 137.554C293.188 131.877 288.586 127.276 282.91 127.276C277.233 127.276 272.631 131.877 272.631 137.554C272.631 143.23 277.233 147.832 282.91 147.832Z" stroke="#252525" stroke-width="2.6004" stroke-miterlimit="10"/>
<path d="M268.152 156.782C268.152 156.782 274.052 160.562 277.498 155.365" stroke="#252525" stroke-width="2.6004" stroke-miterlimit="10"/>
<path d="M286.944 158.306C298.477 151.943 307.655 139.663 307.655 125.565C307.709 120.624 306.782 115.721 304.928 111.141C303.074 106.56 300.331 102.393 296.855 98.8794C293.38 95.3665 289.243 92.5775 284.682 90.6741C280.122 88.7707 275.23 87.7906 270.288 87.7906C265.347 87.7906 260.454 88.7707 255.894 90.6741C251.334 92.5775 247.197 95.3665 243.721 98.8794C240.246 102.393 237.502 106.56 235.648 111.141C233.795 115.721 232.868 120.624 232.921 125.565C232.921 139.676 242.126 151.965 253.672 158.306" stroke="#252525" stroke-width="2.6004" stroke-miterlimit="10"/>
<path d="M254.182 127.32V123.175C254.182 121.975 254.659 120.824 255.506 119.975C256.355 119.126 257.505 118.649 258.705 118.647H281.216C282.416 118.647 283.568 119.124 284.417 119.974C285.266 120.823 285.743 121.974 285.743 123.175V127.276" stroke="#252525" stroke-width="2.6004" stroke-miterlimit="10"/>
<path d="M170.12 283.252C169.937 287.342 171.25 291.359 173.813 294.553C176.376 297.747 180.013 299.898 184.046 300.606L184.394 300.658C187.856 301.266 191.337 301.732 194.817 302.168C194.826 302.164 194.834 302.162 194.844 302.162C194.853 302.162 194.862 302.164 194.87 302.168C200.119 302.806 205.368 303.36 210.6 304.073L210.965 304.121C212.782 304.385 214.617 304.645 216.439 304.922C221.547 305.648 226.656 306.427 231.768 307.223C240.203 308.521 248.638 309.841 257.073 311.122C263.189 312.041 269.789 312.248 275.245 315.469C276.69 316.314 278.027 317.332 279.227 318.5C283.539 322.588 285.95 328.374 286.346 334.261C286.588 337.9 285.655 341.38 285.567 345.002C285.567 345.714 285.567 346.405 285.567 347.114C285.565 347.568 285.652 348.018 285.824 348.438C285.996 348.858 286.25 349.241 286.57 349.563C286.89 349.885 287.27 350.14 287.69 350.315C288.109 350.49 288.558 350.58 289.012 350.581H289.76C290.653 350.583 291.513 350.246 292.166 349.638C292.82 349.031 293.218 348.197 293.28 347.307L293.333 346.528L294.543 330.521C294.543 330.521 295.256 338.855 295.617 347.1C295.722 349.74 295.81 352.38 295.828 354.704C295.83 355.189 295.935 355.668 296.137 356.109C296.339 356.551 296.632 356.944 296.998 357.263C297.363 357.583 297.792 357.82 298.257 357.961C298.721 358.101 299.21 358.141 299.691 358.078C300.476 357.958 301.199 357.579 301.744 357.002C302.29 356.425 302.628 355.683 302.705 354.893C302.877 353.489 303.066 351.69 303.273 349.613C303.713 345.213 304.104 339.462 304.153 333.452" stroke="#252525" stroke-width="2.6004" stroke-miterlimit="10"/>
<path d="M378.997 282.917C378.183 286.349 375.675 291.545 367.913 293.208C369.852 290.259 370.809 286.772 370.65 283.247C370.562 281.359 370.522 280.435 370.316 278.306C372.221 281.284 375.31 286.124 377.404 285.24C378.2 284.91 378.68 284.043 378.997 282.917Z" fill="#252525"/>
<path d="M302.732 240.756C304.853 242.883 306.736 245.237 308.346 247.774C309.359 249.367 309.894 251.218 309.886 253.107V260.97C311.206 260.53 312.5 260.156 313.846 259.83C323.157 257.536 332.877 257.464 342.222 259.619C348.793 261.192 354.994 264.031 360.477 267.979C362.145 269.179 363.742 270.474 365.26 271.86C366.781 273.179 368.192 274.619 369.48 276.167C371.592 278.86 372.824 282.411 375.508 284.65C376.018 285.09 376.735 285.53 377.417 285.249C378.214 284.919 378.702 284.052 379.01 282.926C378.196 286.358 375.688 291.554 367.926 293.217" stroke="#252525" stroke-width="2.6004" stroke-miterlimit="10"/>
<path d="M295.542 183.284C313.833 186.364 329.862 196.449 342.675 209.561C352.758 219.81 361.326 231.447 368.12 244.119C372.762 252.848 377.527 262.014 378.825 271.953C379.215 274.533 379.4 277.14 379.38 279.75V280.115C379.38 280.423 379.327 280.736 379.309 281.03C379.266 281.508 379.191 281.983 379.085 282.452C379.066 282.602 379.03 282.749 378.979 282.892" stroke="#252525" stroke-width="2.6004" stroke-miterlimit="10"/>
<path d="M378.997 282.917C379.048 282.775 379.084 282.627 379.102 282.477C379.21 282.009 379.285 281.534 379.327 281.055C379.38 280.677 379.38 280.365 379.397 280.14V279.775" stroke="#252525" stroke-width="2.6004" stroke-miterlimit="10"/>
<path d="M161.76 282.917C162.574 286.349 165.086 291.545 172.848 293.208C170.91 290.259 169.955 286.772 170.12 283.247C170.204 281.359 170.243 280.435 170.45 278.306C168.545 281.284 165.46 286.124 163.362 285.24C162.561 284.91 162.077 284.043 161.76 282.917Z" fill="#252525"/>
<path d="M238.034 240.756C235.912 242.883 234.03 245.237 232.42 247.774C231.406 249.367 230.872 251.218 230.88 253.107V260.97C229.56 260.53 228.262 260.156 226.92 259.83C217.61 257.537 207.891 257.464 198.548 259.619C191.976 261.192 185.773 264.031 180.288 267.979C178.622 269.179 177.027 270.474 175.51 271.86C173.112 274.06 171.277 276.7 169.522 279.397C168.466 281.029 165.98 286.358 163.362 285.249C162.565 284.919 162.081 284.052 161.769 282.926C162.583 286.358 165.095 291.554 172.857 293.217" stroke="#252525" stroke-width="2.6004" stroke-miterlimit="10"/>
<path d="M249.866 183.556C231.57 186.636 210.908 196.448 198.086 209.56C187.998 219.809 179.424 231.446 172.624 244.118C167.982 252.847 163.221 262.012 161.923 271.952C161.531 274.532 161.346 277.139 161.368 279.749V280.114C161.368 280.422 161.417 280.734 161.434 281.029C161.479 281.508 161.556 281.982 161.663 282.45C161.679 282.6 161.712 282.748 161.764 282.89" stroke="#252525" stroke-width="2.6004" stroke-miterlimit="10"/>
<path d="M161.76 282.917C161.87 282.917 161.672 282.622 161.659 282.477C161.55 282.009 161.474 281.534 161.43 281.055C161.382 280.677 161.382 280.365 161.364 280.14V279.775" stroke="#252525" stroke-width="2.6004" stroke-miterlimit="10"/>
<path d="M369.466 276.159C369.466 276.159 373.272 285.557 367.464 293.86" stroke="#252525" stroke-width="2.6004" stroke-miterlimit="10"/>
<path d="M254.323 224.74L256.523 240.527C257.089 244.576 259.099 248.283 262.183 250.966C265.267 253.649 269.217 255.126 273.304 255.126C277.478 255.125 281.503 253.584 284.611 250.799C287.718 248.012 289.688 244.178 290.143 240.03L291.859 224.366" stroke="#252525" stroke-width="2.6004" stroke-miterlimit="10"/>
<path d="M170.12 283.247C170.12 283.247 170.177 279.322 171.172 276.955" stroke="#252525" stroke-width="2.6004" stroke-miterlimit="10"/>
<path d="M224.381 259.272L222.696 266.008" stroke="#252525" stroke-width="2.6004" stroke-miterlimit="10"/>
<path d="M227.39 396.2C227.39 396.2 215.95 411.199 187.161 400.472" stroke="#252525" stroke-width="2.6004" stroke-miterlimit="10"/>
<path d="M313.424 396.2C313.424 396.2 324.864 411.199 353.653 400.472" stroke="#252525" stroke-width="2.6004" stroke-miterlimit="10"/>
<path d="M325.057 341.085C325.057 343.925 325.035 346.546 324.991 348.948C324.886 345.278 324.749 341.468 324.454 337.706C323.847 330.226 322.549 322.777 319.324 316.348C319.324 316.348 319.324 316.348 319.324 316.313C317.784 313.871 316.244 311.429 314.634 309.022C311.948 304.855 308.879 300.947 305.468 297.349C303.491 295.309 301.386 293.399 299.163 291.629C304.223 295.356 307.827 299.109 310.476 302.906C317.08 312.468 325.11 321.166 325.057 341.085Z" fill="#252525"/>
<path d="M425.144 357.212H375.239" stroke="#252525" stroke-width="2.6004" stroke-miterlimit="10"/>
<path d="M165.408 357.212H121.443" stroke="#252525" stroke-width="2.6004" stroke-miterlimit="10"/>
<g opacity="0.61">
<path opacity="0.61" d="M337.052 123.707L336.194 124.719L334.935 123.654L335.793 122.642C335.938 122.472 336.047 122.276 336.115 122.064C336.184 121.852 336.209 121.629 336.191 121.407C336.174 121.185 336.112 120.969 336.011 120.771C335.909 120.573 335.769 120.397 335.6 120.253L326.98 112.931L330.799 100.554L340.4 108.711C341.085 109.293 341.511 110.122 341.584 111.017C341.658 111.912 341.372 112.8 340.792 113.485L339.784 114.673L338.526 113.609L339.533 112.421C339.827 112.067 339.97 111.613 339.933 111.155C339.896 110.697 339.682 110.272 339.335 109.97L331.631 103.427L328.876 112.399L336.664 118.999C337.338 119.573 337.757 120.39 337.83 121.272C337.902 122.155 337.623 123.03 337.052 123.707Z" fill="#90D5FF"/>
<path opacity="0.61" d="M335.001 126.632C335.988 126.632 336.788 125.832 336.788 124.846C336.788 123.859 335.988 123.059 335.001 123.059C334.015 123.059 333.215 123.859 333.215 124.846C333.215 125.832 334.015 126.632 335.001 126.632Z" fill="#90D5FF"/>
<path opacity="0.61" d="M339.331 116.012C340.317 116.012 341.117 115.212 341.117 114.225C341.117 113.239 340.317 112.439 339.331 112.439C338.344 112.439 337.544 113.239 337.544 114.225C337.544 115.212 338.344 116.012 339.331 116.012Z" fill="#90D5FF"/>
</g>
<g opacity="0.61">
<path opacity="0.61" d="M424.079 116.333L422.759 115.893L423.305 114.269L424.625 114.709C424.844 114.783 425.075 114.814 425.306 114.798C425.537 114.782 425.762 114.722 425.969 114.619C426.176 114.517 426.361 114.375 426.513 114.2C426.665 114.026 426.782 113.824 426.856 113.605L430.6 102.477L444.011 101.399L439.84 113.803C439.539 114.685 438.902 115.412 438.066 115.824C437.23 116.237 436.265 116.301 435.383 116.003L433.847 115.488L434.393 113.865L435.928 114.384C436.383 114.536 436.879 114.501 437.308 114.287C437.737 114.074 438.064 113.699 438.216 113.244L441.565 103.3L431.885 104.079L428.479 114.159C428.182 115.029 427.552 115.746 426.728 116.154C425.903 116.561 424.951 116.626 424.079 116.333Z" fill="#90D5FF"/>
<path opacity="0.61" d="M422.187 116.649C423.213 116.649 424.044 115.818 424.044 114.792C424.044 113.767 423.213 112.936 422.187 112.936C421.162 112.936 420.33 113.767 420.33 114.792C420.33 115.818 421.162 116.649 422.187 116.649Z" fill="#90D5FF"/>
<path opacity="0.61" d="M434.102 116.747C435.128 116.747 435.959 115.916 435.959 114.89C435.959 113.865 435.128 113.034 434.102 113.034C433.077 113.034 432.246 113.865 432.246 114.89C432.246 115.916 433.077 116.747 434.102 116.747Z" fill="#90D5FF"/>
</g>
<g opacity="0.61">
<path opacity="0.61" d="M358.255 106.09L356.007 104.445L358.647 100.841C357.488 100.097 356.496 99.1199 355.734 97.9724C355.093 97.0088 354.703 95.9001 354.6 94.7473C354.497 93.5945 354.684 92.4342 355.144 91.3723C355.897 89.5155 357.344 87.8259 359.514 86.2111C363.799 83.0431 368.894 81.4723 373.484 80.5571L375.684 77.5827C376.313 76.7247 377.364 75.2859 379.089 75.0219C379.67 74.9592 380.257 75.0396 380.8 75.2559C381.343 75.4723 381.824 75.8182 382.203 76.2634C382.581 76.7086 382.845 77.2396 382.971 77.81C383.097 78.3805 383.082 78.9732 382.926 79.5363C382.09 82.0399 379.12 82.4799 377.84 82.6603C376.96 82.7879 376.036 82.9331 375.081 83.1003L369.066 91.3239C371.706 92.6439 372.837 95.8207 371.737 98.804C370.725 101.532 368.124 103.063 364.776 102.905C363.538 102.834 362.318 102.573 361.159 102.13L358.255 106.09ZM370.962 84.0155C367.583 84.8955 364.129 86.2771 361.164 88.4683C359.404 89.7883 358.277 91.0643 357.723 92.4283C357.437 93.0754 357.32 93.7841 357.381 94.4887C357.443 95.1934 357.681 95.871 358.075 96.4587C358.653 97.3132 359.402 98.0388 360.275 98.5884L363.676 93.9375C363.434 94.0167 363.183 94.1091 362.932 94.2103L361.894 91.6231C363.214 91.0737 364.619 90.7609 366.048 90.6991L370.962 84.0155ZM367.368 93.6427L362.884 99.772C363.545 99.9647 364.225 100.081 364.912 100.12C365.907 100.168 368.305 100.04 369.119 97.836C369.634 96.4455 369.365 94.5755 367.821 93.8187C367.675 93.7469 367.523 93.688 367.368 93.6427ZM379.877 77.9215C379.768 77.8291 379.627 77.7832 379.485 77.7939C378.953 77.8731 378.39 78.5815 377.91 79.2415L377.426 79.9059C378.513 79.7475 379.982 79.4659 380.229 78.6959C380.246 78.5863 380.237 78.4741 380.203 78.3686C380.168 78.263 380.11 78.1672 380.031 78.0887C379.986 78.0273 379.934 77.9712 379.877 77.9215Z" fill="#90D5FF"/>
</g>
<g opacity="0.61">
<path opacity="0.61" d="M136.24 105.48L136.68 106.734L135.122 107.271L134.682 106.017C134.535 105.592 134.225 105.244 133.82 105.048C133.417 104.851 132.951 104.823 132.526 104.969L121.843 108.657L113.131 99.069L125.046 94.9548C125.896 94.663 126.827 94.7202 127.634 95.1136C128.441 95.507 129.06 96.2048 129.354 97.0538L129.86 98.5234L128.32 99.0646L127.814 97.5906C127.659 97.1603 127.343 96.807 126.932 96.6058C126.522 96.4046 126.049 96.3711 125.614 96.5124L116.062 99.8126L122.358 106.743L132.038 103.412C132.87 103.139 133.775 103.202 134.561 103.589C135.346 103.975 135.949 104.654 136.24 105.48Z" fill="#90D5FF"/>
<path opacity="0.61" d="M136.174 109.612C137.161 109.612 137.96 108.812 137.96 107.825C137.96 106.839 137.161 106.039 136.174 106.039C135.188 106.039 134.388 106.839 134.388 107.825C134.388 108.812 135.188 109.612 136.174 109.612Z" fill="#90D5FF"/>
<path opacity="0.61" d="M129.244 100.477C130.231 100.477 131.03 99.677 131.03 98.6901C131.03 97.7036 130.231 96.9038 129.244 96.9038C128.258 96.9038 127.458 97.7036 127.458 98.6901C127.458 99.677 128.258 100.477 129.244 100.477Z" fill="#90D5FF"/>
</g>
<g opacity="0.61">
<path opacity="0.61" d="M210.785 127.294L208.778 129.023L206.64 126.533L208.646 124.804C209.323 124.216 209.74 123.385 209.806 122.491C209.872 121.598 209.581 120.714 208.998 120.034L194.267 102.958L205.606 79.7388L222.04 98.7602C223.21 100.118 223.792 101.886 223.66 103.673C223.528 105.461 222.692 107.123 221.336 108.295L218.96 110.341L216.808 107.851L219.162 105.822C219.858 105.219 220.286 104.366 220.353 103.448C220.421 102.53 220.122 101.623 219.523 100.925L206.363 85.6612L198.166 102.452L211.48 117.887C212.634 119.227 213.209 120.971 213.079 122.734C212.948 124.498 212.123 126.138 210.785 127.294Z" fill="#90D5FF"/>
<path opacity="0.61" d="M206.394 132.477C208.362 132.477 209.958 130.881 209.958 128.913C209.958 126.945 208.362 125.349 206.394 125.349C204.425 125.349 202.83 126.945 202.83 128.913C202.83 130.881 204.425 132.477 206.394 132.477Z" fill="#90D5FF"/>
<path opacity="0.61" d="M218.199 112.88C220.167 112.88 221.763 111.284 221.763 109.316C221.763 107.347 220.167 105.752 218.199 105.752C216.23 105.752 214.635 107.347 214.635 109.316C214.635 111.284 216.23 112.88 218.199 112.88Z" fill="#90D5FF"/>
</g>
<g opacity="0.61">
<path opacity="0.61" d="M167.04 115.691L164.457 116.799L162.697 112.694C161.465 113.315 160.116 113.672 158.737 113.741C157.585 113.801 156.436 113.572 155.395 113.074C154.354 112.577 153.454 111.828 152.775 110.895C151.556 109.302 150.835 107.207 150.575 104.506C150.034 99.2258 151.275 94.0163 152.824 89.6031L151.376 86.2151C150.936 85.2339 150.254 83.5971 150.905 81.9779C151.147 81.4461 151.515 80.9815 151.978 80.6247C152.44 80.2678 152.983 80.0295 153.559 79.9306C154.135 79.8317 154.726 79.8751 155.281 80.0571C155.836 80.2391 156.339 80.5541 156.744 80.9747C158.504 82.9459 157.338 85.7267 156.85 86.9147C156.506 87.7375 156.159 88.6087 155.824 89.5151L159.833 98.8782C162.288 97.2766 165.623 97.9234 167.63 100.392C169.46 102.649 169.456 105.672 167.63 108.466C166.94 109.5 166.092 110.418 165.117 111.189L167.04 115.691ZM154.491 93.5103C153.55 96.8763 152.96 100.55 153.334 104.207C153.558 106.407 154.1 108.017 154.997 109.192C155.407 109.77 155.957 110.235 156.596 110.543C157.235 110.851 157.941 110.991 158.649 110.952C159.682 110.889 160.689 110.609 161.606 110.129L159.336 104.849C159.283 105.098 159.234 105.358 159.19 105.628L156.436 105.188C156.633 103.773 157.08 102.403 157.756 101.144L154.491 93.5103ZM160.95 101.509L163.96 108.488C164.459 108.018 164.901 107.492 165.28 106.921C165.826 106.09 166.939 103.96 165.456 102.134C164.523 100.986 162.776 100.26 161.338 101.206C161.2 101.296 161.071 101.398 160.95 101.509ZM153.792 82.7347C153.657 82.7833 153.546 82.8807 153.479 83.0075C153.277 83.5091 153.602 84.3275 153.919 85.1019L154.245 85.8543C154.658 84.8423 155.156 83.4211 154.628 82.8227C154.542 82.7538 154.441 82.7057 154.333 82.682C154.226 82.6584 154.114 82.6599 154.007 82.6863C153.934 82.6943 153.862 82.7105 153.792 82.7347Z" fill="#90D5FF"/>
</g>
</svg>
