<svg width="440" height="440" viewBox="0 0 440 440" fill="none" xmlns="http://www.w3.org/2000/svg">
<path d="M124.08 173.876C124.08 173.876 130.557 190.213 151.985 191.014" stroke="#D7E8F0" stroke-width="2.3408" stroke-miterlimit="10"/>
<path d="M177.144 188.157C177.144 188.157 189.464 184.928 197.556 172.559" stroke="#D7E8F0" stroke-width="2.3408" stroke-miterlimit="10"/>
<path d="M359.071 412.345C360.303 411.58 368.016 412.345 369.468 412.345C372.628 412.359 375.78 412.057 378.88 411.443C417.723 403.655 421.172 346.763 416.258 308.558C415.209 300.547 413.412 292.65 410.89 284.974C403.617 262.499 390.584 241.678 374.664 224.589C368.746 218.239 361.601 212.647 357.72 204.687C350.618 190.11 356.176 173.205 359.48 158.413C363.88 138.56 365.724 116.943 344.045 107.065C298.505 86.3054 248.125 123.56 248.125 123.56" stroke="#D7E8F0" stroke-width="2.3408" stroke-miterlimit="10"/>
<path d="M54.4281 342.201C51.8673 354.86 51.7353 368.108 56.0913 380.208C59.9809 391.01 67.6633 402.108 77.7085 408.276C83.4664 411.776 90.2485 413.2 96.9277 412.311" stroke="#D7E8F0" stroke-width="2.3408" stroke-miterlimit="10"/>
<path d="M151.976 220.453V178.094V176.845V166.747V162.985V142.507" stroke="#D7E8F0" stroke-width="2.3408" stroke-miterlimit="10"/>
<path d="M179.912 212.819V192.003C179.913 191.152 179.646 190.323 179.149 189.633C178.652 188.942 177.951 188.426 177.144 188.157L165.071 184.131V142.507" stroke="#D7E8F0" stroke-width="2.3408" stroke-miterlimit="10"/>
<path d="M151.976 178.095C155.439 179.077 161.427 180.388 165.062 179.622" stroke="#D7E8F0" stroke-width="2.3408" stroke-miterlimit="10"/>
<path d="M151.976 166.76C156.284 167.103 161.656 167.477 165.071 168.366" stroke="#D7E8F0" stroke-width="2.3408" stroke-miterlimit="10"/>
<path d="M151.976 176.844C155.848 176.299 161.498 175.111 165.071 173.566" stroke="#D7E8F0" stroke-width="2.3408" stroke-miterlimit="10"/>
<path d="M151.976 162.986C159.513 160.896 163.245 158.317 165.071 156.166" stroke="#D7E8F0" stroke-width="2.3408" stroke-miterlimit="10"/>
<path d="M86.6098 152.605L70.255 153.934" stroke="#D7E8F0" stroke-width="2.3408" stroke-miterlimit="10"/>
<path d="M84.5505 145.395L68.3497 146.706" stroke="#D7E8F0" stroke-width="2.3408" stroke-miterlimit="10"/>
<path d="M262.447 130.976L333.335 125.216C334.307 125.139 335.271 125.45 336.013 126.081C336.756 126.714 337.217 127.614 337.295 128.586C337.295 128.679 337.295 128.776 337.295 128.886C337.297 129.81 336.95 130.702 336.322 131.382C335.695 132.061 334.834 132.479 333.912 132.551L265.382 138.108" stroke="#D7E8F0" stroke-width="2.3408" stroke-miterlimit="10"/>
<path d="M153.912 147.158L138.582 148.39" stroke="#D7E8F0" stroke-width="2.3408" stroke-miterlimit="10"/>
<path d="M194.287 143.88L163.821 146.349" stroke="#D7E8F0" stroke-width="2.3408" stroke-miterlimit="10"/>
<path d="M152.522 139.886L141.363 140.792" stroke="#D7E8F0" stroke-width="2.3408" stroke-miterlimit="10"/>
<path d="M191.057 136.765L164.01 138.947" stroke="#D7E8F0" stroke-width="2.3408" stroke-miterlimit="10"/>
<path d="M118.624 350.003C118.919 349.836 119.209 349.664 119.504 349.488C122.188 347.865 122.54 345.497 120.314 343.412C110.81 334.515 99.7745 326.903 87.6745 322.019C77.0881 317.742 64.5921 315.067 53.1697 316.488C47.8897 317.148 34.6633 319.757 38.0821 327.963C38.8169 329.723 40.2073 331.123 41.6021 332.425C60.0425 349.576 94.3669 363.85 118.624 350.003Z" stroke="#D7E8F0" stroke-width="2.3408" stroke-miterlimit="10"/>
<path d="M39.3361 330.313C21.8417 309.461 43.2961 251.887 52.4613 227.507C56.3949 217.017 56.5973 205.639 55.9417 194.56C55.7393 190.626 50.8553 166.184 57.8953 166.871C59.0041 166.981 59.8753 167.777 60.6101 168.631C62.6583 170.995 63.9141 173.942 64.2005 177.057C65.4747 175.786 66.9311 174.713 68.5213 173.871C69.4123 173.392 70.3425 172.99 71.3021 172.67C72.0492 172.35 72.8632 172.217 73.6737 172.283C76.2169 172.723 76.9825 176.075 76.4501 178.619C75.5481 183.221 71.7861 185.003 69.3485 188.576C69.0343 189.042 68.758 189.532 68.5213 190.041C66.6821 193.851 66.8977 198.502 67.2013 202.687C67.6426 208.033 69.0154 213.262 71.2581 218.135" stroke="#D7E8F0" stroke-width="2.3408" stroke-miterlimit="10"/>
<path d="M114.532 296.526C119.011 310.931 121.621 325.896 121.775 341.054C121.805 342.629 121.775 344.191 121.731 345.766V345.951C121.737 346.245 121.725 346.538 121.695 346.831" stroke="#D7E8F0" stroke-width="2.3408" stroke-miterlimit="10"/>
<path d="M68.5213 190.04C68.5213 190.04 56.8305 187.158 54.4413 181.975" stroke="#D7E8F0" stroke-width="2.3408" stroke-miterlimit="10"/>
<path d="M68.5213 173.875C68.5213 173.875 76.4061 140.435 60.0821 142.635C43.7581 144.835 54.4281 168.08 54.4281 168.08" stroke="#D7E8F0" stroke-width="2.3408" stroke-miterlimit="10"/>
<path d="M60.5837 156.389C63.9831 156.389 66.7393 153.633 66.7393 150.233C66.7393 146.834 63.9831 144.078 60.5837 144.078C57.1842 144.078 54.4281 146.834 54.4281 150.233C54.4281 153.633 57.1842 156.389 60.5837 156.389Z" stroke="#D7E8F0" stroke-width="2.3408" stroke-miterlimit="10"/>
<path d="M306.865 244.345C308.358 245.695 310.3 246.441 312.312 246.439C316.4 246.439 319.726 243.474 319.726 239.839C319.726 231.256 319.716 222.676 319.695 214.099C319.695 209 320.786 199.306 312.312 199.306C306.504 199.306 304.88 203.878 304.898 208.216V212.946" stroke="#D7E8F0" stroke-width="2.3408" stroke-miterlimit="10"/>
<path d="M306.865 189.988C307.574 190.716 308.421 191.296 309.356 191.695C310.291 192.093 311.296 192.303 312.312 192.311C313.284 192.312 314.246 192.121 315.143 191.749C316.041 191.378 316.856 190.833 317.543 190.146C318.231 189.459 318.775 188.643 319.147 187.746C319.518 186.848 319.709 185.886 319.709 184.914C319.709 175.331 319.698 165.748 319.678 156.165C319.678 150.484 320.787 139.638 312.312 139.638C306.504 139.638 304.881 144.756 304.881 149.596V153.556" stroke="#D7E8F0" stroke-width="2.3408" stroke-miterlimit="10"/>
<path d="M311.01 199.286H313.623V191.014H311.01V199.286Z" fill="#D7E8F0"/>
<path d="M299.473 257.722C303.561 257.722 306.874 254.756 306.874 251.1C306.874 242.52 306.864 233.941 306.843 225.364C306.843 220.269 307.943 210.571 299.473 210.571C293.669 210.571 292.041 215.152 292.046 219.481C292.063 229.314 292.072 239.151 292.072 248.992C292.072 250.55 292.072 252.138 292.644 253.612C293.595 256.116 296.56 257.722 299.473 257.722Z" stroke="#D7E8F0" stroke-width="2.3408" stroke-miterlimit="10"/>
<path d="M299.469 203.606C301.431 203.606 303.314 202.826 304.702 201.438C306.09 200.05 306.869 198.167 306.869 196.205C306.869 186.622 306.859 177.039 306.839 167.455C306.839 161.762 307.939 150.929 299.469 150.929C293.665 150.929 292.037 156.046 292.041 160.882C292.041 171.87 292.05 182.858 292.068 193.847C292.068 195.607 292.068 197.367 292.635 199.012C293.59 201.806 296.56 203.606 299.469 203.606Z" stroke="#D7E8F0" stroke-width="2.3408" stroke-miterlimit="10"/>
<path d="M298.166 210.566H300.78V202.294H298.166V210.566Z" fill="#D7E8F0"/>
<path d="M300.08 151.031C297.911 145.693 298.289 140.325 299.2 135.362C299.513 133.69 299.887 132.084 300.243 130.522C300.588 129.028 301.428 127.693 302.626 126.736C303.823 125.777 305.309 125.251 306.843 125.242H306.874C308.559 125.241 310.184 125.869 311.432 127.002" stroke="#D7E8F0" stroke-width="2.3408" stroke-miterlimit="10"/>
<path d="M313.795 134.2C313.685 137.72 312.312 139.647 312.312 139.647" stroke="#D7E8F0" stroke-width="2.3408" stroke-miterlimit="10"/>
<path d="M263.939 382.391C263.727 383.798 263.308 385.165 262.693 386.448C262.614 384.842 263.939 382.391 263.939 382.391Z" fill="#252525"/>
<path d="M234.599 380.719C234.973 377.349 237.156 372.76 238.999 367.519C237.534 372.355 235.268 377.27 234.599 380.719Z" fill="#252525"/>
<path d="M240.24 385.307C239.144 385.901 237.728 386.416 236.117 385.215C237.459 385.609 238.882 385.641 240.24 385.307Z" fill="#252525"/>
<path d="M239.765 363.44C239.766 362.316 239.536 361.203 239.087 360.172C238.639 359.141 237.983 358.213 237.16 357.447C238.546 358.543 239.906 360.21 239.765 363.44Z" fill="#252525"/>
<path d="M242.229 384.605C242.768 384.338 243.281 384.02 243.76 383.655C243.298 384.405 242.936 385.213 242.682 386.057C242.634 385.186 242.48 384.763 242.229 384.605Z" fill="#252525"/>
<path d="M249.361 389.756C247.474 390.865 245.401 391.076 244.081 389.928C245.912 390.816 247.804 390.425 249.361 389.756Z" fill="#252525"/>
<path d="M252.969 389.15C252.626 388.71 252.252 388.384 251.649 388.494C251.913 388.322 252.133 388.164 252.318 388.054C253 387.588 252.859 388.322 252.969 389.15Z" fill="#252525"/>
<path d="M254.949 390.769C256.837 390.615 259.244 390.412 261.131 388.599C261.021 388.771 260.929 388.978 260.819 389.193C259.772 391.363 257.044 390.769 254.949 390.769Z" fill="#252525"/>
<path d="M263.239 387.6C262.829 387.498 262.399 387.498 261.989 387.6C262.256 387.236 262.491 386.851 262.693 386.448C262.68 386.67 262.722 386.893 262.818 387.094C262.913 387.296 263.058 387.47 263.239 387.6Z" fill="#252525"/>
<path d="M265.219 388.024C264.876 387.962 264.563 387.883 264.282 387.821C266.279 387.711 268.418 387.79 270.09 385.964C268.84 387.416 267.124 388.398 265.219 388.024Z" fill="#252525"/>
<path d="M270.6 385.309C270.805 385.003 270.988 384.684 271.15 384.354C270.988 384.684 270.804 385.003 270.6 385.309Z" fill="#252525"/>
<path d="M271.92 382.453C271.828 382.757 271.727 383.047 271.625 383.333C271.741 383.046 271.839 382.752 271.92 382.453Z" fill="#252525"/>
<path d="M271.155 384.354C271.328 384.016 271.483 383.67 271.621 383.316C271.49 383.673 271.334 384.019 271.155 384.354Z" fill="#252525"/>
<path d="M272.057 369.856C271.975 369.723 271.868 369.609 271.742 369.518C271.616 369.427 271.473 369.363 271.322 369.328L272.321 368.813C272.185 369.147 272.096 369.498 272.057 369.856Z" fill="#252525"/>
<path d="M344.036 337.283C330.225 351.204 312.308 355.732 312.308 355.732C313.073 368.052 310.389 409.487 310.187 411.295C309.985 413.104 300.023 412.496 300.023 412.496L257.167 412.435C258.487 412.043 259.741 411.638 260.911 411.185C281.684 403.265 283.061 387.386 280.016 375.946C278.3 369.482 276.69 367.585 275.335 367.343C279.079 365.583 284.931 363.115 290.598 361.742C299.961 359.481 330.88 351.033 340.727 339.967C341.689 338.911 342.805 338.006 344.036 337.283Z" fill="#252525"/>
<path d="M340.34 249.481C340.34 249.481 325.6 236.118 309.017 254.065C297.326 266.724 296.855 276.382 297.607 280.989C298.021 281.934 298.299 282.932 298.435 283.955L299.917 284.953L298.901 284.857C300.745 288.588 307.094 303.121 299.213 312.546C290.097 323.44 278.687 337.626 247.896 349.629C247.896 349.629 232.602 345.137 228.435 355.591C228.435 355.591 233.381 354.711 235.378 356.167C226.187 355.265 195.778 355.965 195.778 355.965C195.778 355.965 176.911 358.759 172.243 375.765C167.574 392.771 173.822 396.353 183.124 407.26C184.884 409.306 187.964 411.009 191.972 412.351L168.529 412.32L170.513 408.871C172.713 403.498 167.376 402.469 167.376 402.469C161.942 402.002 163.346 398.817 163.346 398.817C157.573 362.517 158.761 308.124 160.446 294.325C162.131 280.527 159.663 284.54 159.663 284.54C155.311 289.252 129.981 294.325 129.981 294.325C141.949 287.083 146.085 277.605 148.161 255.245C150.19 233.517 138.547 225.514 137.874 225.061C137.869 225.058 137.864 225.058 137.859 225.058C137.853 225.058 137.848 225.058 137.843 225.061L183.058 211.465L213.572 206.752C213.105 208.191 212.309 207.817 210.778 208.033L208.081 208.424C208.185 208.43 208.285 208.464 208.372 208.521C208.46 208.578 208.53 208.657 208.578 208.75C208.615 208.86 208.636 208.976 208.639 209.093C208.939 215.403 213.039 220.845 218.35 224.018C225.698 228.418 236.047 228.308 243.571 224.295C248.97 221.409 251.702 215.869 251.451 209.859C282.841 213.722 318.56 225.831 340.34 249.481Z" fill="#252525"/>
<path d="M208.252 355.046L214.355 359.402L213.84 359.072C209.452 356.448 204.432 355.069 199.32 355.081L208.252 355.046Z" fill="#D7E8F0"/>
<path d="M252.296 386.62C252.283 386.826 252.23 387.027 252.142 387.214C252.12 386.431 252.314 385.995 252.296 386.62Z" fill="#D7E8F0"/>
<path d="M281.186 383.359C281.184 390.863 278.202 398.059 272.896 403.365C267.59 408.671 260.394 411.653 252.89 411.655H199.32C205.195 411.656 210.926 409.827 215.715 406.423C220.503 403.019 224.114 398.209 226.044 392.66C227.975 387.11 228.13 381.098 226.487 375.456C224.845 369.815 221.488 364.825 216.88 361.178C216.069 360.547 215.225 359.96 214.35 359.418H238.99C239.738 360.65 240.799 363.88 238.181 370.999C234.59 380.736 232.764 384.732 237.741 385.59C242.717 386.448 243.461 381.63 243.751 383.671C244.042 385.713 240.456 387.416 244.064 389.946C247.293 392.207 251.306 389.118 252.133 387.231C252.133 388.617 252.789 391.085 256.362 390.865C261.98 390.522 262.962 385.246 262.962 385.246C263.059 385.99 263.404 386.679 263.943 387.201C264.481 387.723 265.181 388.047 265.927 388.12C268.624 388.432 273.108 384.652 272.686 378.941C272.263 373.23 270.609 368.579 274.402 367.33C274.877 367.191 275.304 366.921 275.634 366.551C279.251 371.407 281.2 377.304 281.186 383.359Z" fill="#D7E8F0"/>
<path d="M261.285 172.683C261.218 172.691 261.15 172.691 261.083 172.683C261.272 173.602 261.615 174.583 261.849 175.569C262.033 176.308 262.112 177.069 262.082 177.831C261.831 181.408 259.305 183.339 255.869 183.436C255.954 184.255 255.79 185.081 255.397 185.805C255.004 186.529 254.402 187.117 253.669 187.493C251.83 188.461 248.829 188.241 247.425 186.543C245.789 184.558 246.598 182.107 247.601 179.943C247.958 179.177 248.319 178.46 248.613 177.804C248.974 176.99 249.287 176.181 249.564 175.353C250.544 172.296 251.302 169.171 251.83 166.003C252.484 162.81 252.916 159.576 253.123 156.323C252.908 155.527 253.044 154.387 252.732 153.56C252.279 152.277 251.453 151.159 250.36 150.348C248.112 148.694 245.129 148.804 242.744 147.339C240.587 145.992 238.885 144.028 237.86 141.702C237.653 141.218 237.468 140.593 237.187 140.048C237.056 139.755 236.864 139.494 236.623 139.282C235.545 138.38 234.925 139.969 234.269 140.602C233.593 141.228 232.79 141.703 231.915 141.993C231.04 142.284 230.113 142.384 229.196 142.287C228.504 142.197 227.829 141.998 227.199 141.698C226.735 141.445 226.301 141.141 225.905 140.791C225.438 140.334 224.892 139.965 224.295 139.7C223.173 139.26 223.111 141.135 222.953 141.773C222.64 142.93 222.095 143.867 221.003 144.413C220.396 144.711 219.73 144.872 219.054 144.883C218.266 144.912 217.479 144.806 216.727 144.571C216.001 144.354 215.312 144.032 214.681 143.616C214.567 143.538 214.435 143.494 214.298 143.489C214.16 143.483 214.025 143.517 213.906 143.585C213.787 143.654 213.69 143.755 213.626 143.876C213.562 143.998 213.534 144.135 213.545 144.272C213.761 150.375 208.05 152.5 205.709 153.107C204.829 162.787 207.469 173.505 212.749 181.808C212.551 183.046 212.048 184.215 211.284 185.209C207.425 186.177 202.977 185.135 201.309 181.808C199.549 178.288 199.778 173.365 202.528 170.835C200.623 170.544 200.086 167.724 201.181 166.069C201.274 165.915 201.322 165.823 201.256 165.665C201.023 165.027 198.22 164.499 197.455 164.252C196.362 163.859 195.375 163.218 194.573 162.377C193.771 161.537 193.176 160.522 192.835 159.412C191.211 154.057 195.329 148.346 200.482 147.048C198.951 144.351 196.922 142.164 196.082 139.045C195.241 135.925 195.721 132.66 198.11 130.333C199.075 129.412 200.255 128.747 201.541 128.397C202.828 128.046 204.182 128.022 205.48 128.326C206.24 128.879 206.913 129.542 207.478 130.293C207.129 129.781 206.851 129.224 206.651 128.639C208.396 129.233 209.927 130.331 211.051 131.793C209.04 128.779 209.788 124.674 212.054 122.021C214.782 118.822 220.15 118.118 223.899 119.759C224.169 119.886 224.43 120.033 224.677 120.199C225.038 120.639 225.395 121.079 225.755 121.493C225.797 121.38 225.844 121.27 225.896 121.163C226.654 121.943 227.372 122.761 228.048 123.614C230.485 116.701 240.143 116.684 245.247 120.292C246.45 121.148 247.434 122.275 248.121 123.583C248.382 124.731 248.361 125.925 248.059 127.063C247.747 128.159 247.997 128.986 248.697 129.219C249.225 129.347 249.781 129.275 250.259 129.017C252.133 128.172 253.678 127.143 255.847 127.376C262.949 128.128 268.097 137.333 263.899 143.343C263.651 143.717 263.37 144.068 263.059 144.391C262.465 144.998 261.136 145.671 260.859 146.511C260.851 146.531 260.851 146.553 260.859 146.573C260.331 148.333 264.247 148.742 265.294 149.213C274.507 153.063 272.554 172.089 261.285 172.683Z" fill="#90D5FF"/>
<path d="M208.081 208.398L210.778 208.006C211.521 207.903 212.221 207.594 212.798 207.115C213.375 206.635 213.806 206.003 214.043 205.291C214.137 205.045 214.199 204.788 214.227 204.526L214.258 204.31L214.601 201.719L216.929 187.313" stroke="#252525" stroke-width="2.3408" stroke-miterlimit="10"/>
<path d="M247.425 186.56L247.645 206.228V206.853C247.656 207.488 247.886 208.1 248.296 208.586C248.705 209.072 249.269 209.401 249.894 209.519L251.469 209.832" stroke="#252525" stroke-width="2.3408" stroke-miterlimit="10"/>
<path d="M205.678 153.081C204.6 164.692 208.626 177.818 216.181 186.464C230.261 202.59 242.141 186.464 242.141 186.464" stroke="#252525" stroke-width="2.3408" stroke-miterlimit="10"/>
<path d="M253.264 156.679C252.855 155.909 253.097 154.523 252.741 153.551C252.276 152.274 251.449 151.161 250.36 150.348C248.107 148.702 245.124 148.803 242.744 147.347C240.577 145.993 238.867 144.019 237.838 141.68C237.512 140.94 237.257 139.805 236.615 139.268C235.537 138.388 234.912 139.95 234.247 140.588C233.315 141.459 232.141 142.028 230.88 142.223C229.619 142.418 228.328 142.228 227.177 141.68C226.107 141.156 225.373 140.1 224.259 139.682C223.146 139.264 223.085 141.108 222.917 141.754C222.614 142.903 222.068 143.84 220.973 144.394C219.023 145.358 216.357 144.724 214.654 143.585C214.54 143.508 214.406 143.464 214.268 143.459C214.13 143.455 213.993 143.489 213.874 143.558C213.754 143.628 213.657 143.73 213.592 143.851C213.528 143.974 213.5 144.112 213.51 144.249C213.779 151.927 204.688 153.296 204.688 153.296" stroke="#252525" stroke-width="2.3408" stroke-miterlimit="10"/>
<path d="M218.5 169.963C223.044 169.963 226.728 166.279 226.728 161.735C226.728 157.191 223.044 153.507 218.5 153.507C213.955 153.507 210.272 157.191 210.272 161.735C210.272 166.279 213.955 169.963 218.5 169.963Z" stroke="#252525" stroke-width="2.3408" stroke-miterlimit="10"/>
<path d="M239.831 169.237C244.375 169.237 248.059 165.554 248.059 161.009C248.059 156.465 244.375 152.781 239.831 152.781C235.287 152.781 231.603 156.465 231.603 161.009C231.603 165.554 235.287 169.237 239.831 169.237Z" stroke="#252525" stroke-width="2.3408" stroke-miterlimit="10"/>
<path d="M215.063 162.566C215.063 162.566 218.376 166.368 221.791 162.566" stroke="#252525" stroke-width="2.3408" stroke-miterlimit="10"/>
<path d="M236.465 162.566C236.465 162.566 239.782 166.368 243.192 162.566" stroke="#252525" stroke-width="2.3408" stroke-miterlimit="10"/>
<path d="M226.732 161.736C226.732 161.736 228.598 158.7 231.599 161.01" stroke="#252525" stroke-width="2.3408" stroke-miterlimit="10"/>
<path d="M222.948 149.53C222.948 149.53 214.408 143 207.24 149.16" stroke="#252525" stroke-width="2.3408" stroke-miterlimit="10"/>
<path d="M247.931 146.102C247.931 146.102 237.789 142.56 232.892 150.621" stroke="#252525" stroke-width="2.3408" stroke-miterlimit="10"/>
<path d="M212.45 181.517C212.43 182.885 211.981 184.211 211.166 185.308C210.351 186.406 209.212 187.219 207.909 187.633C203.694 188.883 199.232 185.715 197.406 182.063C196.738 180.802 196.433 179.38 196.523 177.956C196.615 176.531 197.098 175.16 197.921 173.993C197.995 173.876 198.044 173.745 198.065 173.608C198.087 173.472 198.08 173.332 198.046 173.198C198.012 173.064 197.951 172.938 197.867 172.828C197.782 172.718 197.677 172.627 197.556 172.559C196.736 172.067 196.059 171.371 195.589 170.539C195.119 169.707 194.874 168.767 194.876 167.811C194.877 167.409 194.921 167.008 195.008 166.615C195.035 166.471 195.032 166.324 194.998 166.182C194.965 166.039 194.903 165.905 194.815 165.789C194.727 165.672 194.616 165.575 194.489 165.504C194.362 165.432 194.221 165.388 194.075 165.374C193.645 165.336 193.218 165.264 192.799 165.158C191.625 164.742 190.565 164.057 189.703 163.158C188.842 162.258 188.202 161.17 187.836 159.979C186.076 154.22 190.525 148.069 196.064 146.683C194.41 143.779 192.223 141.438 191.317 138.067C190.41 134.697 190.943 131.212 193.517 128.7C197.499 124.801 204.253 126.016 207.469 130.293C205.3 127.045 206.114 122.628 208.547 119.772C211.482 116.34 217.255 115.592 221.281 117.339C223.203 118.184 224.435 119.931 225.747 121.475C228.387 114.061 238.749 113.995 244.227 117.902C247.1 119.944 248.974 123.662 248.037 127.046C247.553 128.766 248.442 129.795 250.237 128.999C252.111 128.172 253.656 127.125 255.825 127.358C263.349 128.154 268.686 138.455 263.037 144.373C262.443 144.997 261.114 145.653 260.837 146.493C260.194 148.289 264.194 148.724 265.237 149.177C274.569 153.098 272.523 172.326 261.083 172.713C261.426 174.354 262.209 176.163 262.082 177.848C261.831 181.425 259.305 183.357 255.869 183.467C256.12 185.077 255.121 186.745 253.669 187.51C251.83 188.491 248.829 188.258 247.425 186.56C245.225 183.876 247.491 180.36 248.613 177.804C250.268 174.055 251.077 170.016 251.83 166.003C252.515 162.68 252.956 159.311 253.15 155.923V155.782" stroke="#252525" stroke-width="2.3408" stroke-miterlimit="10"/>
<path d="M122.76 70.3652L119.407 83.4288H119.5L120.639 80.45L144.501 62.0008L146.921 52.4968L122.76 70.3652ZM131.45 43.1204C130.838 43.4457 130.301 43.8956 129.874 44.4412C129.446 44.9868 129.138 45.616 128.969 46.2884L124.049 65.4196L148.412 46.5964L152.095 32.1204L131.45 43.1204ZM135.551 50.6004C135.256 52.1008 134.337 53.192 133.492 53.0336C132.647 52.8752 132.211 51.5068 132.524 49.9932C132.836 48.4796 133.743 47.384 134.587 47.5556C135.432 47.7272 135.85 49.0604 135.551 50.574V50.6004ZM123.231 82.4564L123.935 82.2672C124.213 82.1501 124.513 82.0916 124.815 82.0956C125.148 82.0969 125.477 82.173 125.777 82.3178C126.077 82.463 126.341 82.6733 126.549 82.9338C126.758 83.1942 126.905 83.4978 126.98 83.8226C127.055 84.1473 127.056 84.4848 126.984 84.8104L122.958 100.76L135.538 97.3284L143.044 67.7604L123.231 82.4564Z" fill="#D7E8F0"/>
<path d="M115.623 237.089C117.339 223.749 118.14 210.144 119.817 196.702L120.089 194.599C120.56 190.964 121.115 187.33 121.792 183.735C121.815 183.562 121.847 183.39 121.889 183.22C122.276 181.091 122.703 178.979 123.209 176.862C124.648 170.531 128.3 165.897 131.864 160.741L132.088 160.186C139.792 148.971 144.058 135.752 144.364 122.148C144.448 117.229 144.254 107.505 138.613 105.49C135.445 104.355 132.088 106.568 130.333 109.098C129.599 110.14 129.007 111.274 128.573 112.473" stroke="#252525" stroke-width="2.3408" stroke-miterlimit="10"/>
<path d="M87.3577 171.315C81.7521 191.401 72.4197 210.321 67.8305 230.684C63.6197 249.336 62.3525 276.479 80.0229 288.993C95.5505 299.993 118.136 297.283 135.489 293.085C140.541 291.884 145.514 290.371 150.379 288.557C154.128 287.167 157.639 285.341 161.304 283.845C161.304 283.845 154.576 350.848 163.944 402.165" stroke="#252525" stroke-width="2.3408" stroke-miterlimit="10"/>
<path d="M87.3621 171.319L88.2905 167.984C89.5265 163.561 89.2286 158.85 87.4457 154.617L85.6065 150.217C84.4053 146.556 84.0313 144.783 85.5361 141.201C86.2511 139.513 87.253 137.96 88.4973 136.612C92.1317 132.604 97.2489 130.61 102.516 129.933C107.783 129.255 113.608 129.783 117.85 133.198C120.727 135.521 123.438 141.038 121.572 144.638C120.204 147.278 117.313 148.026 114.849 147.084C113.987 146.764 113.212 146.249 112.583 145.579C109.679 142.534 103.343 141.914 101.169 144.871" stroke="#252525" stroke-width="2.3408" stroke-miterlimit="10"/>
<path d="M89.7117 127.284C89.2717 125.585 89.3377 123.438 90.3497 120.684C91.8017 116.746 96.0301 114.158 100.153 112.46C101.658 111.835 103.154 111.325 104.478 110.924C108.975 109.538 113.907 108.808 118.681 109.292C120.295 109.451 121.892 109.756 123.451 110.203C125.248 110.724 126.968 111.483 128.564 112.46C132.524 114.876 135.164 118.554 136.779 123.381C138.173 127.543 138.715 132.493 135.256 135.094" stroke="#252525" stroke-width="2.3408" stroke-miterlimit="10"/>
<path d="M122.153 141.342L123.381 143.793C124.916 145.478 127.046 146.543 129.981 145.812C135.701 144.387 136.273 139.652 135.261 135.112C135.09 134.288 134.869 133.476 134.601 132.678C133.281 128.679 131.182 125.458 128.278 123.108C126.212 121.439 123.827 120.211 121.269 119.5C119.189 118.899 117.043 118.555 114.88 118.475C110.617 118.341 106.362 118.936 102.3 120.235C98.2345 121.48 92.6773 123.623 89.7161 127.302C89.053 128.108 88.5299 129.02 88.1673 129.999C87.2565 132.472 87.1025 134.478 87.4237 136.097L87.7097 137.567" stroke="#252525" stroke-width="2.3408" stroke-miterlimit="10"/>
<path d="M106.859 119.099V119.085" stroke="#252525" stroke-width="1.562" stroke-miterlimit="10"/>
<path d="M170.795 407.361C170.758 408.684 170.208 409.94 169.261 410.864C168.314 411.788 167.045 412.307 165.722 412.311H122.76C121.795 412.312 120.851 412.029 120.045 411.497C120.077 410.178 120.623 408.924 121.567 408.002C122.511 407.08 123.777 406.562 125.097 406.56H168.08C169.042 406.569 169.982 406.846 170.795 407.361Z" fill="#D7E8F0"/>
<path d="M170.795 407.361C170.758 408.684 170.208 409.94 169.261 410.864C168.314 411.788 167.045 412.307 165.722 412.311H122.76C121.795 412.312 120.851 412.029 120.045 411.497C120.077 410.178 120.623 408.924 121.567 408.002C122.511 407.08 123.777 406.562 125.097 406.56H168.08C169.042 406.569 169.982 406.846 170.795 407.361Z" fill="#D7E8F0"/>
<path d="M119.421 83.4379L128.973 46.2799C129.148 45.6098 129.459 44.9832 129.888 44.4398C130.316 43.8959 130.853 43.4468 131.463 43.1206L160.943 27.4126L143.695 95.0935L122.905 100.761" stroke="#252525" stroke-width="2.3408" stroke-miterlimit="10"/>
<path d="M111.892 144.954V144.967L110.51 150.472L99.7525 150.498L101.16 144.884L101.178 144.87" stroke="#252525" stroke-width="2.3408" stroke-linecap="round" stroke-linejoin="round"/>
<path d="M110.066 109.626L116.481 84.2116L123.935 82.2492C124.206 82.1318 124.498 82.0706 124.793 82.0688C125.127 82.071 125.456 82.1485 125.756 82.2946C126.056 82.4406 126.319 82.6518 126.527 82.9128C126.735 83.1741 126.882 83.4782 126.957 83.8033C127.033 84.1285 127.034 84.4664 126.962 84.7924L120.754 109.6" stroke="#252525" stroke-width="2.3408" stroke-linecap="round" stroke-linejoin="round"/>
<path d="M128.304 102.876L126.258 111.24" stroke="#252525" stroke-width="2.3408" stroke-linecap="round" stroke-linejoin="round"/>
<path d="M117.396 147.454L115.28 156.095" stroke="#252525" stroke-width="2.3408" stroke-linecap="round" stroke-linejoin="round"/>
<path d="M110.51 150.471L115.28 156.094H104.676L99.7525 150.498L110.51 150.471Z" stroke="#252525" stroke-width="2.3408" stroke-linecap="round" stroke-linejoin="round"/>
<path d="M135.563 50.5765C135.864 49.0655 135.43 47.7055 134.593 47.5387C133.757 47.3724 132.835 48.4623 132.534 49.9733C132.233 51.4842 132.667 52.8443 133.504 53.0106C134.34 53.1773 135.262 52.0875 135.563 50.5765Z" fill="#252525"/>
<path d="M171.024 384.036C171.025 389.632 172.685 395.103 175.795 399.755C178.905 404.408 183.324 408.034 188.495 410.175C193.665 412.316 199.354 412.876 204.843 411.784C210.332 410.692 215.373 407.996 219.33 404.039C223.287 400.081 225.981 395.039 227.073 389.55C228.165 384.061 227.604 378.372 225.462 373.202C223.32 368.032 219.693 363.613 215.04 360.504C210.387 357.395 204.916 355.735 199.32 355.735C195.603 355.734 191.923 356.466 188.489 357.887C185.055 359.309 181.935 361.394 179.308 364.022C176.679 366.65 174.595 369.771 173.174 373.205C171.753 376.639 171.022 380.319 171.024 384.036Z" stroke="#252525" stroke-width="2.3408" stroke-miterlimit="10"/>
<path d="M122.76 412.325H165.722C168.529 412.325 170.804 410.049 170.804 407.243C170.804 404.436 168.529 402.161 165.722 402.161H122.76C119.953 402.161 117.678 404.436 117.678 407.243C117.678 410.049 119.953 412.325 122.76 412.325Z" stroke="#252525" stroke-width="2.3408" stroke-miterlimit="10"/>
<path d="M115.623 230.886C123.191 229.531 130.557 227.366 137.861 225.034C144.716 222.834 151.536 220.493 158.435 218.478C166.628 216.107 174.883 213.893 183.234 212.081C187.48 211.161 191.757 210.347 196.047 209.709C196.702 209.617 197.367 209.52 198.013 209.445C199.558 209.238 201.12 209.053 202.682 208.882C204.244 208.71 205.894 208.569 207.522 208.38C207.713 208.35 207.907 208.35 208.098 208.38C208.202 208.387 208.303 208.42 208.39 208.477C208.477 208.534 208.548 208.613 208.595 208.706C208.632 208.817 208.653 208.932 208.657 209.049C208.956 215.359 213.057 220.801 218.368 223.974C225.716 228.374 236.064 228.264 243.588 224.251C248.987 221.365 251.72 215.825 251.469 209.815C282.841 213.704 318.551 225.813 340.349 249.441L340.441 249.538C346.454 256.01 351.306 263.47 354.785 271.591C364.905 295.562 360.122 325.31 338.738 341.551C327.831 349.84 314.675 355.191 301.233 359.093C291.76 361.874 279.308 363.216 271.313 369.319" stroke="#252525" stroke-width="2.3408" stroke-miterlimit="10"/>
<path d="M243.76 382.756C243.637 382.729 243.501 382.685 243.373 382.646" stroke="#252525" stroke-width="2.3408" stroke-miterlimit="10"/>
<path d="M286.753 269.108C294.593 273.852 299.548 285.014 301.902 293.489C305.219 305.426 298.764 315.753 290.096 323.44C285.842 327.219 281.129 330.365 276.509 333.661C268.092 339.68 259.499 345.264 249.92 349.254C248.508 349.844 247.003 349.628 245.52 349.342C243.646 348.99 241.824 348.388 239.928 348.163C237.816 347.917 236.016 348.656 234.208 349.721C231.495 351.336 229.014 353.312 226.833 355.595L199.32 355.74C206.825 355.74 214.022 358.721 219.329 364.028C224.635 369.335 227.616 376.532 227.616 384.036C227.616 391.541 224.635 398.739 219.329 404.045C214.022 409.352 206.825 412.333 199.32 412.333H252.895C258.195 412.333 263.388 410.844 267.884 408.036C272.379 405.228 275.995 401.214 278.32 396.45C280.644 391.687 281.585 386.366 281.033 381.095C280.481 375.823 278.459 370.813 275.198 366.634" stroke="#252525" stroke-width="2.3408" stroke-miterlimit="10"/>
<path d="M206.906 384.525C206.907 385.541 206.708 386.548 206.319 387.487C205.931 388.426 205.361 389.28 204.643 389.999C203.925 390.718 203.072 391.288 202.132 391.676C201.193 392.065 200.187 392.265 199.171 392.265C197.15 392.216 195.229 391.38 193.817 389.934C192.405 388.488 191.615 386.548 191.615 384.527C191.615 382.506 192.405 380.566 193.817 379.12C195.229 377.674 197.15 376.838 199.171 376.79C200.186 376.789 201.193 376.989 202.131 377.377C203.07 377.766 203.923 378.336 204.641 379.054C205.36 379.773 205.929 380.625 206.318 381.564C206.706 382.503 206.906 383.509 206.906 384.525Z" fill="#D7E8F0"/>
<path d="M264.691 371.752C265.136 373.14 265.337 374.594 265.285 376.051C265.261 377.541 265.033 379.022 264.607 380.451C264.467 380.935 264.317 381.406 264.167 381.863C264.097 382.044 264.031 382.206 263.961 382.374C263.535 383.286 263.207 384.24 262.979 385.22C262.799 386.303 263.019 387.324 264.299 387.808C264.977 388.017 265.693 388.074 266.395 387.976C267.098 387.878 267.77 387.627 268.365 387.24C273.927 383.245 273.205 375.532 271.353 369.323C270.939 367.937 270.473 366.626 269.984 365.451" stroke="#252525" stroke-width="2.3408" stroke-miterlimit="10"/>
<path d="M263.12 384.498C262.372 386.434 260.92 388.898 259.16 390.015C259.16 390.015 259.134 390.015 259.12 390.042C258.335 390.495 257.459 390.77 256.556 390.846C255.652 390.922 254.743 390.798 253.893 390.482C251.557 389.435 252.217 387.111 253.088 385.162C253.365 384.564 253.642 384.014 253.88 383.543C255.812 379.504 256.208 375.407 255.75 370.735" stroke="#252525" stroke-width="2.3408" stroke-miterlimit="10"/>
<path d="M253.106 385.15C252.639 386.307 250.708 389.194 248.811 390.232C247.394 391.011 245.348 390.967 244.072 389.933C241.604 387.944 242.986 384.327 244.112 381.991C246.057 377.952 247.016 372.931 245.837 368.522" stroke="#252525" stroke-width="2.3408" stroke-miterlimit="10"/>
<path d="M226.869 355.596C230.459 355.596 232.791 355.715 233.909 355.803C234.415 355.835 234.911 355.959 235.374 356.168C243.413 360.044 237.169 374.49 235.462 378.027C234.582 379.88 233.398 383.989 236.126 385.217C236.895 385.5 237.715 385.611 238.532 385.545C239.348 385.478 240.139 385.234 240.852 384.83C242.402 383.851 243.689 382.508 244.601 380.918C244.601 380.918 244.601 380.892 244.627 380.861" stroke="#252525" stroke-width="2.3408" stroke-miterlimit="10"/>
<path d="M312.097 354.785C312.638 373.339 312.211 393.126 310.059 412.499" stroke="#252525" stroke-width="2.3408" stroke-miterlimit="10"/>
<path d="M89.7073 412.325H369.464" stroke="#252525" stroke-width="2.3408" stroke-miterlimit="10"/>
<path d="M232.641 181.874C232.641 181.874 237.16 182.314 240.284 177.1" stroke="#252525" stroke-width="2.3408" stroke-miterlimit="10"/>
<path d="M210.14 112.53C210.14 112.614 245.023 113.362 245.023 113.362L243.347 129.681C243.347 129.681 241.763 131.802 234.903 133.919C228.043 136.035 214.918 137.377 212.507 128.608C211.058 123.367 210.263 117.966 210.14 112.53Z" fill="#FAFAFA"/>
<path d="M242.625 103.203C253.33 99.8282 261.633 88.441 255.702 77.485C250.391 67.673 237.851 65.2794 230.657 74.5898C230.657 74.5898 222.856 60.0214 209.849 65.7414C204.358 68.1614 200.037 73.9386 198.467 79.6454C195.431 90.6718 202.748 99.2254 212.987 102.015C212.987 102.015 222.961 104.761 227.859 97.9978C227.859 97.9978 230.155 100.827 236.399 102.015" stroke="#252525" stroke-width="2.3408" stroke-miterlimit="10"/>
<path d="M208.336 100.236L212.533 128.792C212.626 129.461 212.858 130.104 213.214 130.678C213.57 131.253 214.043 131.746 214.601 132.127C218.007 134.393 226.38 137.935 240.561 131.907C241.373 131.56 242.077 131.002 242.6 130.291C243.123 129.58 243.446 128.741 243.536 127.864L246.22 101.719" stroke="#252525" stroke-width="2.3408" stroke-miterlimit="10"/>
<path d="M262.68 386.448C262.601 384.842 263.925 382.391 263.925 382.391C263.714 383.798 263.294 385.165 262.68 386.448Z" fill="#252525"/>
<path d="M298.435 283.955L299.917 284.954L298.901 284.857C298.606 284.267 298.435 283.955 298.435 283.955Z" fill="#252525"/>
<path d="M236.126 385.216C234.41 384.714 234.128 383.06 234.599 380.719C234.379 382.655 234.753 384.186 236.126 385.216Z" fill="#252525"/>
<path d="M235.427 356.203C236.027 356.523 236.583 356.921 237.081 357.386C236.487 356.92 235.893 356.546 235.427 356.203Z" fill="#252525"/>
<path d="M239.017 367.515C239.381 366.371 239.622 365.191 239.734 363.995C239.675 365.198 239.433 366.385 239.017 367.515Z" fill="#252525"/>
<path d="M242.229 384.604C241.596 384.908 240.932 385.144 240.249 385.308C241.12 384.841 241.807 384.322 242.229 384.604Z" fill="#252525"/>
<path d="M242.713 386.447C242.761 388.132 243.276 389.272 244.073 389.928C242.339 389.1 242.313 387.459 242.682 386.056C242.701 386.185 242.712 386.316 242.713 386.447Z" fill="#252525"/>
<path d="M250.158 389.225C250.58 388.864 251.085 388.614 251.627 388.494C250.915 388.989 250.156 389.412 249.361 389.757C249.637 389.596 249.903 389.418 250.158 389.225Z" fill="#252525"/>
<path d="M254.949 390.769C253.374 390.896 253.062 389.977 252.969 389.149C253.497 389.84 253.92 390.769 254.949 390.769Z" fill="#252525"/>
<path d="M261.972 387.601C261.727 387.962 261.445 388.297 261.131 388.599C261.293 388.183 261.588 387.831 261.972 387.601Z" fill="#252525"/>
<path d="M263.27 387.601C263.551 387.667 263.877 387.741 264.268 387.821C263.92 387.87 263.565 387.792 263.27 387.601Z" fill="#252525"/>
<path d="M275.335 367.344C274.054 367.955 273.007 368.47 272.321 368.813C272.399 368.637 272.523 368.485 272.681 368.373C273.399 367.938 274.287 367.159 275.335 367.344Z" fill="#252525"/>
<path d="M252.296 386.62C252.283 386.826 252.23 387.027 252.142 387.214C252.12 386.431 252.314 385.995 252.296 386.62Z" fill="#D7E8F0"/>
<path d="M51.0401 155.491L25.9601 157.52C25.4785 157.558 24.994 157.502 24.5343 157.353C24.0746 157.204 23.6487 156.966 23.281 156.653C22.9133 156.34 22.6108 155.957 22.3911 155.526C22.1713 155.096 22.0384 154.627 22.0001 154.145C21.9235 153.173 22.2352 152.211 22.867 151.469C23.4988 150.726 24.399 150.264 25.3705 150.185L52.0609 148.016" stroke="#D7E8F0" stroke-width="2.3408" stroke-miterlimit="10"/>
<path d="M54.9429 147.783H54.9297" stroke="#D7E8F0" stroke-width="2.3408" stroke-miterlimit="10"/>
<path d="M158.519 149.059C162.132 149.059 165.062 146.13 165.062 142.517C165.062 138.903 162.132 135.974 158.519 135.974C154.906 135.974 151.976 138.903 151.976 142.517C151.976 146.13 154.906 149.059 158.519 149.059Z" stroke="#D7E8F0" stroke-width="2.3408" stroke-miterlimit="10"/>
<path d="M378.88 411.426V284.957H410.89C413.412 292.633 415.209 300.529 416.258 308.541C421.172 346.746 417.723 403.638 378.88 411.426Z" stroke="#D7E8F0" stroke-width="2.3408" stroke-miterlimit="10"/>
<path d="M378.88 325.332H417.886" stroke="#D7E8F0" stroke-width="2.3408" stroke-miterlimit="10"/>
<path d="M378.88 362.526H415.844" stroke="#D7E8F0" stroke-width="2.3408" stroke-miterlimit="10"/>
</svg>
