<svg width="1440" height="743" viewBox="0 0 1440 743" fill="none" xmlns="http://www.w3.org/2000/svg">
<g clip-path="url(#clip0_127_257)">
<path d="M674.436 3.15076C677.336 3.90701 680.235 4.66326 683.223 5.44242C681.162 10.915 677.868 15.5187 674.436 20.3383C676.921 22.2289 679.407 24.1195 681.968 26.0674C680.016 30.4409 676.901 33.1624 673.18 36.3799C669.042 35.1207 668.1 34.1502 665.413 31.152C664.415 30.0509 664.415 30.0509 663.398 28.9275C662.898 28.3618 662.398 27.7961 661.882 27.2132C663.602 23.5911 664.379 22.6383 668.159 20.3383C668.159 19.582 668.159 18.8258 668.159 18.0466C666.502 16.5341 664.845 15.0216 663.138 13.4633C666.866 10.0601 670.594 6.65701 674.436 3.15076Z" fill="#F06421"/>
<path d="M159.752 293.047C161.769 296.73 161.079 300.421 161.007 304.505C159.555 304.549 159.555 304.549 158.075 304.594C156.816 304.659 155.557 304.724 154.259 304.791C153.007 304.844 151.755 304.898 150.464 304.952C147.045 305.316 147.045 305.316 145.708 307.799C145.371 308.603 145.034 309.406 144.688 310.234C142.645 312.188 140.559 314.106 138.411 315.963C133.045 314.149 130.546 310.8 127.113 306.797C128.666 305.609 130.239 304.444 131.821 303.287C132.694 302.636 133.568 301.985 134.468 301.314C137.156 299.922 137.156 299.922 139.843 300.141C142.177 301.067 142.177 301.067 144.688 303.359C144.688 301.09 144.688 298.822 144.688 296.484C155.734 293.047 155.734 293.047 159.752 293.047Z" fill="#D5DE22"/>
<path d="M1387.46 110.859C1390.78 111.993 1394.09 113.128 1397.5 114.297C1397.79 118.067 1397.89 120.51 1395.94 123.893C1393.74 125.755 1393.74 125.755 1388.72 125.755C1390.79 126.133 1392.86 126.511 1394.99 126.901C1394.58 130.682 1394.17 134.463 1393.74 138.359C1389.18 137.981 1384.62 137.603 1379.93 137.213C1380.42 135.606 1380.91 133.999 1381.42 132.343C1382.63 128.096 1382.63 128.096 1380.64 124.251C1379.99 123.613 1379.34 122.975 1378.67 122.317C1379.34 116.861 1383.26 114.447 1387.46 110.859Z" fill="#FABF11"/>
<path d="M124.602 183.047C124.602 184.559 124.602 186.072 124.602 187.63C125.845 187.63 127.088 187.63 128.368 187.63C128.368 191.789 128.368 195.949 128.368 200.234C123.812 199.856 119.255 199.478 114.56 199.088C114.974 196.819 115.388 194.551 115.815 192.213C115.058 192.144 114.3 192.074 113.52 192.003C112.517 191.907 111.514 191.811 110.48 191.712C108.994 191.572 108.994 191.572 107.479 191.43C104.739 191.094 102.16 190.585 99.4958 189.922C99.4958 189.165 99.4958 188.409 99.4958 187.63C108.218 181.303 113.983 179.815 124.602 183.047Z" fill="#D6DD22"/>
<path d="M508.733 16.9008C509.147 20.3039 509.561 23.707 509.988 27.2132C507.917 27.5914 505.845 27.9695 503.711 28.3591C503.711 29.4935 503.711 30.6278 503.711 31.7966C502.152 34.6388 502.152 34.6388 500.102 37.7406C499.432 38.773 498.762 39.8055 498.072 40.8693C497.447 41.6565 496.823 42.4438 496.179 43.2549C495.351 43.2549 494.522 43.2549 493.669 43.2549C488.617 34.1721 488.617 34.1721 488.726 29.7198C490.01 26.9854 491.679 24.9754 493.669 22.6299C494.554 20.1694 494.554 20.1694 494.924 18.0466C499.536 16.6994 503.924 16.8163 508.733 16.9008Z" fill="#D5DD22"/>
<path d="M327.965 304.505C332.962 307.799 336.044 311.175 339.263 315.963C332.428 317.098 332.428 317.098 325.455 318.255C327.112 319.767 328.769 321.28 330.476 322.838C328.733 326.684 326.815 328.651 322.944 330.859C322.116 330.859 321.287 330.859 320.433 330.859C318.589 328.428 316.903 326.021 315.255 323.483C314.788 322.782 314.32 322.081 313.838 321.359C310.391 316.143 310.391 316.143 310.391 314.817C311.134 314.745 311.876 314.673 312.642 314.598C318.826 313.764 318.826 313.764 323.837 310.588C325.754 308.154 325.754 308.154 327.965 304.505Z" fill="#F16521"/>
<path d="M941.82 26.0674C942.753 26.6819 943.685 27.2963 944.645 27.9294C945.784 28.4493 946.923 28.9692 948.097 29.5049C950.817 28.741 950.817 28.741 953.118 27.2132C954.361 26.8351 955.604 26.457 956.884 26.0674C959.784 29.0924 962.684 32.1174 965.672 35.2341C963.818 40.593 963.818 40.593 960.493 42.4671C959.717 42.7271 958.94 42.9871 958.14 43.2549C956.068 40.9862 953.997 38.7174 951.863 36.3799C950.957 36.7108 950.051 37.0416 949.117 37.3825C944.213 39.1729 944.213 39.1729 939.31 40.9632C937.238 39.4507 935.167 37.9382 933.033 36.3799C933.254 33.6534 933.908 32.1377 936.049 30.2166C937.937 28.7932 939.876 27.4266 941.82 26.0674Z" fill="#D5DD22"/>
<path d="M78.1553 35.2341C79.5763 36.2745 80.9865 37.3273 82.392 38.3851C83.1785 38.97 83.9649 39.5549 84.7752 40.1576C87.0469 42.203 88.1994 44.0335 89.4532 46.6924C87.7962 48.583 86.1392 50.4737 84.4319 52.4216C84.8462 53.296 85.2604 54.1704 85.6872 55.0713C86.9426 58.1507 86.9426 58.1507 86.9426 61.5882C84.8775 61.8106 82.8112 62.0237 80.7444 62.2328C79.5939 62.3524 78.4433 62.472 77.2579 62.5953C75.838 62.664 75.838 62.664 74.3893 62.7341C73.134 61.5882 73.134 61.5882 73.0114 59.2205C73.0259 58.2766 73.0405 57.3328 73.0555 56.3604C73.0668 55.4136 73.0782 54.4668 73.0898 53.4913C73.1044 52.7602 73.119 52.029 73.134 51.2757C75.2053 51.2757 77.2766 51.2757 79.4106 51.2757C78.2455 49.716 78.2455 49.716 77.0569 48.1247C75.0874 45.3753 73.3795 42.7856 71.8786 39.8174C73.9499 38.3049 76.0212 36.7924 78.1553 35.2341Z" fill="#FEC00E"/>
<path d="M1094.97 306.796C1098.03 308.923 1098.03 308.923 1101.25 311.595C1102.31 312.462 1103.37 313.329 1104.46 314.222C1107.52 317.109 1107.52 317.109 1112.54 323.984C1105.92 324.362 1099.29 324.74 1092.46 325.13C1092.05 323.239 1091.63 321.349 1091.2 319.401C1089.47 316.298 1089.47 316.298 1087.36 313.313C1086.67 312.302 1085.98 311.29 1085.28 310.247C1084.75 309.487 1084.22 308.726 1083.67 307.942C1087.95 306.099 1090.53 305 1094.97 306.796Z" fill="#F16621"/>
<path d="M988.268 240.338C995.192 244.527 1000.15 248.1 1003.33 255.234C1002.55 257.812 1002.55 257.812 1000.82 259.817C999.992 260.952 999.164 262.086 998.31 263.255C991.502 260.524 987.626 255.632 983.717 250.006C983.246 247.213 983.246 247.213 985.6 243.418C986.48 242.401 987.361 241.385 988.268 240.338Z" fill="#018DAE"/>
<path d="M150.964 32.9424C152.857 34.0018 154.738 35.0795 156.613 36.1651C157.662 36.7633 158.71 37.3615 159.791 37.9778C160.606 38.5849 161.422 39.1919 162.262 39.8174C162.262 43.2549 162.262 43.2549 160.615 45.0945C159.916 45.6927 159.216 46.2909 158.496 46.9072C157.797 47.5143 157.098 48.1214 156.378 48.7468C155.834 49.2033 155.29 49.6597 154.73 50.1299C153.643 49.7281 152.555 49.3264 151.435 48.9125C146.887 47.7592 144.204 47.9979 139.666 48.9841C139.666 40.9753 139.666 40.9753 143.241 37.6779C145.757 35.9851 148.286 34.4123 150.964 32.9424Z" fill="#EE6523"/>
<path d="M320.433 263.255C322.31 266.681 321.834 269.787 321.689 273.567C321.275 274.702 320.86 275.836 320.433 277.005C315.023 278.543 311.046 279.296 305.37 279.296C305.37 274.759 305.37 270.221 305.37 265.546C306.923 265.168 308.476 264.79 310.077 264.401C310.951 264.188 311.825 263.975 312.725 263.756C315.412 263.255 315.412 263.255 320.433 263.255Z" fill="#008DAF"/>
<path d="M1106.27 428.255C1110.16 429.638 1113.82 431.126 1117.57 432.838C1117.57 438.132 1117.57 443.426 1117.57 448.88C1111.5 445.888 1106.43 442.721 1101.25 438.567C1102.9 435.164 1104.56 431.761 1106.27 428.255Z" fill="#FFC00E"/>
<path d="M1308.38 341.171C1312.27 342.554 1315.92 344.043 1319.67 345.755C1319.67 351.049 1319.67 356.342 1319.67 361.796C1315.45 359.867 1312.35 358.003 1308.69 355.351C1307.69 354.627 1306.68 353.904 1305.65 353.158C1304.89 352.606 1304.13 352.053 1303.35 351.484C1305.01 348.081 1306.67 344.678 1308.38 341.171Z" fill="#FFC00E"/>
<path d="M381.944 217.422C385.84 218.804 389.491 220.293 393.242 222.005C393.242 227.299 393.242 232.592 393.242 238.047C389.015 236.117 385.917 234.253 382.258 231.601C381.255 230.877 380.252 230.154 379.218 229.408C378.461 228.856 377.703 228.303 376.923 227.734C378.58 224.331 380.237 220.928 381.944 217.422Z" fill="#008CAF"/>
<path d="M22.9209 257.526C27.7084 258.133 30.7661 258.957 34.2188 262.109C34.7092 265.453 34.7092 265.453 34.5326 269.199C34.4873 270.444 34.442 271.689 34.3953 272.972C34.308 274.401 34.308 274.401 34.2188 275.859C29.2065 275.859 27.7497 274.165 23.9408 271.276C22.8097 270.425 21.6786 269.574 20.5132 268.698C19.6507 268.036 18.7882 267.374 17.8996 266.692C19.5566 263.667 21.2136 260.642 22.9209 257.526Z" fill="#008CAF"/>
<path d="M183.603 226.588C187.476 227.963 191.198 229.453 194.901 231.171C194.968 233.415 195.017 235.659 195.058 237.903C195.087 239.153 195.116 240.402 195.146 241.69C194.901 244.921 194.901 244.921 192.39 247.213C187.833 243.81 183.276 240.407 178.581 236.901C180.238 233.498 181.895 230.094 183.603 226.588Z" fill="#008CAF"/>
<path d="M1307.12 217.422C1309.37 217.652 1311.62 217.922 1313.87 218.209C1315.12 218.355 1316.37 218.502 1317.66 218.652C1319.28 219.177 1319.28 219.177 1320.93 219.713C1322.39 222.6 1322.39 222.6 1323.44 225.442C1324.68 225.82 1325.93 226.199 1327.21 226.588C1327.21 227.344 1327.21 228.101 1327.21 228.88C1320.99 230.581 1320.99 230.581 1314.65 232.317C1313.82 231.561 1313 230.805 1312.14 230.026C1308.92 229.284 1308.92 229.284 1305.87 228.88C1306.28 225.099 1306.69 221.317 1307.12 217.422Z" fill="#048CAC"/>
<path d="M958.14 162.422C961.706 164.063 965.109 165.812 968.182 168.151C968.182 168.907 968.182 169.663 968.182 170.442C958.24 172.144 958.24 172.144 948.097 173.88C946.026 170.855 943.954 167.83 941.82 164.713C947.838 161.364 951.315 160.703 958.14 162.422Z" fill="#FFC00E"/>
<path d="M267.867 160.273C270.992 161.141 273.674 162.081 276.497 163.567C275.014 167.421 273.785 170.194 270.22 172.734C267.69 172.9 267.69 172.9 264.885 172.519C263.897 172.386 262.908 172.253 261.889 172.116C257.868 171.4 254.038 170.434 250.135 169.297C252.203 167.742 254.302 166.22 256.412 164.713C257.629 163.839 258.846 162.964 260.099 162.063C263.944 160.13 263.944 160.13 267.867 160.273Z" fill="#FFC00E"/>
<path d="M525.052 87.9424C523.397 92.1246 521.798 94.5762 518.775 98.2549C512.147 97.1205 505.519 95.9861 498.69 94.8174C507.538 86.7408 512.632 84.1637 525.052 87.9424Z" fill="#FFC00E"/>
<path d="M1247.49 62.1611C1251.93 64.5896 1256.34 67.0362 1260.67 69.6091C1260.26 70.3653 1259.84 71.1216 1259.42 71.9007C1256.77 72.6258 1256.77 72.6258 1253.46 73.1898C1252.37 73.3818 1251.29 73.5738 1250.18 73.7717C1246.86 74.1933 1243.93 74.4969 1240.59 74.1924C1237.82 72.2062 1236.37 69.9969 1234.31 67.3174C1234.31 66.5611 1234.31 65.8049 1234.31 65.0257C1243.04 61.3484 1243.04 61.3484 1247.49 62.1611Z" fill="#D5DE22"/>
<path d="M419.604 -1.43257C424.024 -0.760216 426.776 0.12175 430.902 2.00493C430.902 7.29868 430.902 12.5924 430.902 18.0466C426.963 16.2489 423.987 14.5826 420.546 12.1742C419.659 11.5568 418.772 10.9394 417.859 10.3033C417.192 9.83356 416.525 9.36386 415.838 8.87992C416.463 4.60038 416.937 2.21991 419.604 -1.43257Z" fill="#008DAF"/>
<path d="M535.094 349.192C538.99 350.575 542.641 352.064 546.392 353.776C546.392 358.691 546.392 363.607 546.392 368.671C541.278 367.504 539.783 366.579 536.036 363.444C535.149 362.709 534.262 361.975 533.349 361.219C532.682 360.653 532.015 360.088 531.328 359.505C532.1 355.68 533.018 352.604 535.094 349.192Z" fill="#FFC00E"/>
<path d="M1205.44 236.901C1208.52 238.516 1208.52 238.516 1211.48 240.41C1212.97 241.351 1212.97 241.351 1214.49 242.312C1215.23 242.795 1215.97 243.278 1216.74 243.776C1213.78 246.472 1212.22 246.693 1208.19 247.428C1206.58 247.736 1206.58 247.736 1204.94 248.05C1201.34 248.39 1198.83 248.258 1195.4 247.213C1193.12 244.729 1191.96 242.13 1190.38 239.192C1199.31 235.195 1199.31 235.195 1205.44 236.901Z" fill="#FFC00E"/>
<path d="M1086.38 227.868C1088.94 229.262 1091.4 230.596 1093.71 232.317C1093.71 233.074 1093.71 233.83 1093.71 234.609C1084.39 236.311 1084.39 236.311 1074.89 238.046C1068.61 231.601 1068.61 231.601 1068.61 227.734C1075.32 225.256 1079.83 224.77 1086.38 227.868Z" fill="#FFC00E"/>
<path d="M390.653 149.817C393.193 150.574 395.73 151.338 398.264 152.109C397.59 156.54 396.273 158.95 393.242 162.422C390.599 162.098 387.958 161.761 385.318 161.419C383.847 161.233 382.376 161.047 380.861 160.855C376.923 160.13 376.923 160.13 373.157 157.838C384.048 149.817 384.048 149.817 390.653 149.817Z" fill="#FFC00E"/>
<path d="M572.754 109.713C576.575 115.851 576.575 115.851 576.354 118.844C574.855 122.048 572.731 123.393 569.694 125.468C568.686 126.172 567.678 126.875 566.639 127.599C563.967 129.192 563.967 129.192 561.456 129.192C561.456 124.277 561.456 119.361 561.456 114.297C569.93 109.713 569.93 109.713 572.754 109.713Z" fill="#FFC00E"/>
<path d="M1117.57 52.4216C1120.65 54.0374 1120.65 54.0374 1123.61 55.9307C1125.1 56.8723 1125.1 56.8723 1126.61 57.8329C1127.36 58.3159 1128.1 58.7989 1128.86 59.2966C1124.58 61.903 1121.76 62.2371 1116.7 62.8773C1115.22 63.0693 1113.74 63.2613 1112.22 63.4592C1111.08 63.598 1109.95 63.7368 1108.78 63.8799C1106.71 60.8549 1104.64 57.8299 1102.5 54.7132C1111.44 50.7157 1111.44 50.7157 1117.57 52.4216Z" fill="#FFC00E"/>
<path d="M1334.74 26.0674C1336.39 26.8237 1338.05 27.5799 1339.76 28.3591C1337.69 31.3841 1335.62 34.4091 1333.48 37.5257C1326.85 36.3914 1320.23 35.257 1313.4 34.0882C1313.4 33.332 1313.4 32.5757 1313.4 31.7966C1320.18 26.8744 1326.04 23.5267 1334.74 26.0674Z" fill="#D5DE22"/>
<path d="M1150.2 26.0674C1151.86 26.8237 1153.52 27.5799 1155.23 28.3591C1153.15 31.3841 1151.08 34.4091 1148.95 37.5257C1142.32 36.3914 1135.69 35.257 1128.86 34.0883C1140.05 23.8769 1140.05 23.8769 1150.2 26.0674Z" fill="#D5DE22"/>
<path d="M820.054 13.4633C818.642 16.8686 817.263 19.5756 815.032 22.6299C807.997 22.1476 801.574 21.5802 794.947 19.1924C803.137 10.8194 808.695 8.66714 820.054 13.4633Z" fill="#D5DE22"/>
<path d="M555.729 383.496C559.7 384.998 562.998 387.006 566.478 389.296C565.884 394.169 562.997 396.599 558.946 399.609C555.409 399.429 554.196 398.732 551.786 396.346C551.146 395.509 550.505 394.671 549.844 393.808C549.191 392.968 548.537 392.127 547.863 391.261C547.378 390.613 546.893 389.965 546.392 389.296C551.73 383.589 551.73 383.589 555.729 383.496Z" fill="#D5DE22"/>
<path d="M1329.01 375.403C1333.36 377.144 1336.25 379.512 1339.76 382.421C1337.95 386.27 1335.84 388.971 1332.23 391.588C1328.72 391.355 1327.47 390.701 1325.07 388.325C1324.43 387.488 1323.79 386.65 1323.13 385.787C1322.47 384.947 1321.82 384.106 1321.15 383.241C1320.66 382.592 1320.17 381.944 1319.67 381.276C1324.99 375.591 1324.99 375.591 1329.01 375.403Z" fill="#D5DE22"/>
<path d="M1356.08 256.38C1359.44 258.094 1359.44 258.094 1362.75 260.319C1363.86 261.05 1364.96 261.781 1366.11 262.534C1367.36 263.458 1367.36 263.458 1368.63 264.401C1368.63 264.779 1368.63 265.157 1368.63 265.546C1353.26 268.709 1353.26 268.709 1347.29 267.838C1342.27 262.432 1342.27 262.432 1342.27 258.671C1347.08 257.038 1350.95 255.885 1356.08 256.38Z" fill="#D5DE22"/>
<path d="M1035.97 108.567C1040.46 110.46 1044.44 112.902 1048.52 115.442C1046.57 119.816 1043.46 122.537 1039.74 125.755C1034.37 123.941 1031.87 120.592 1028.44 116.588C1030.19 112.73 1032.18 110.875 1035.97 108.567Z" fill="#F06421"/>
<path d="M970.693 98.2549C974.063 99.4216 975.67 100.497 977.95 103.089C979.48 106.276 979.48 106.276 978.475 109.592C977.849 110.696 977.223 111.799 976.577 112.936C975.652 114.613 975.652 114.613 974.709 116.324C974.212 117.168 973.715 118.011 973.204 118.88C972.375 118.88 971.547 118.88 970.693 118.88C968.756 116.535 968.756 116.535 966.692 113.437C966.001 112.427 965.31 111.417 964.598 110.376C963.161 107.422 963.161 107.422 963.367 104.915C964.96 101.763 967.658 100.243 970.693 98.2549Z" fill="#D5DE22"/>
<path d="M663.864 88.4124C664.97 89.0372 666.077 89.662 667.218 90.3057C668.337 90.9334 669.457 91.5612 670.611 92.2079C671.883 92.9324 671.883 92.9324 673.18 93.6716C670.227 96.3678 668.665 96.5892 664.628 97.3239C663.024 97.6319 663.024 97.6319 661.387 97.9461C657.826 98.2823 655.261 98.0555 651.84 97.1091C646.819 92.278 646.819 92.278 646.819 89.0882C653.906 85.9778 656.704 84.838 663.864 88.4124Z" fill="#D5DE22"/>
<path d="M796.202 263.255C799.561 264.969 799.561 264.969 802.871 267.194C803.98 267.925 805.088 268.656 806.23 269.409C807.48 270.333 807.48 270.333 808.756 271.276C808.756 271.654 808.756 272.032 808.756 272.421C793.38 275.584 793.38 275.584 787.415 274.713C782.394 269.307 782.394 269.307 782.394 265.546C787.203 263.913 791.071 262.76 796.202 263.255Z" fill="#D5DE22"/>
<path d="M1020.91 249.505C1024.8 250.888 1028.45 252.376 1032.2 254.088C1031.79 259.004 1031.38 263.919 1030.95 268.984C1027.01 267.186 1024.03 265.52 1020.59 263.112C1019.71 262.494 1018.82 261.877 1017.9 261.241C1017.24 260.771 1016.57 260.301 1015.88 259.817C1017.21 255.918 1018.41 252.927 1020.91 249.505Z" fill="#FFC00E"/>
<path d="M684.478 189.922C684.062 193.34 682.937 194.844 680.595 197.62C676.946 200.234 676.946 200.234 672.489 200.042C670.151 199.463 670.151 199.463 667.767 198.873C666.192 198.503 664.618 198.132 662.996 197.75C661.8 197.435 660.604 197.121 659.372 196.797C659.372 196.04 659.372 195.284 659.372 194.505C668.094 188.178 673.859 186.69 684.478 189.922Z" fill="#D5DE23"/>
<path d="M330.672 102.972C333.238 104.366 335.693 105.7 338.008 107.422C338.008 108.178 338.008 108.934 338.008 109.713C328.687 111.415 328.687 111.415 319.178 113.151C312.901 106.705 312.901 106.705 312.901 102.838C319.609 100.36 324.121 99.8743 330.672 102.972Z" fill="#D5DE22"/>
<path d="M146.139 102.972C148.705 104.366 151.16 105.7 153.475 107.422C153.475 108.178 153.475 108.934 153.475 109.713C144.154 111.415 144.154 111.415 134.645 113.151C128.368 106.705 128.368 106.705 128.368 102.838C135.076 100.36 139.588 99.8743 146.139 102.972Z" fill="#D5DE22"/>
<path d="M359.349 352.63C363.248 355.542 364.154 358.635 365.625 362.942C363.353 364.664 361.077 366.382 358.799 368.099C357.532 369.056 356.265 370.013 354.96 370.999C351.817 373.255 351.817 373.255 350.561 373.255C350.561 367.961 350.561 362.667 350.561 357.213C353.461 355.701 356.361 354.188 359.349 352.63Z" fill="#FFC00E"/>
<path d="M1312.61 268.554C1314.87 269.334 1314.87 269.334 1317.16 270.13C1316.03 272.191 1314.88 274.242 1313.71 276.289C1313.07 277.432 1312.43 278.575 1311.77 279.753C1309.58 282.809 1308.31 283.807 1304.61 285.026C1302.12 283.135 1299.64 281.244 1297.08 279.297C1299.81 272.817 1304.48 266.66 1312.61 268.554Z" fill="#F06421"/>
<path d="M157.241 265.546C161.14 268.459 162.047 271.551 163.518 275.859C161.245 277.581 158.969 279.299 156.692 281.015C155.425 281.972 154.158 282.929 152.852 283.916C149.709 286.171 149.709 286.171 148.454 286.171C148.454 280.878 148.454 275.584 148.454 270.13C151.353 268.617 154.253 267.105 157.241 265.546Z" fill="#FFC00E"/>
<path d="M377.943 230.026C379.924 230.593 379.924 230.593 381.944 231.171C382.359 231.928 382.773 232.684 383.2 233.463C381.577 236.444 381.577 236.444 379.198 239.908C378.43 241.058 377.661 242.207 376.869 243.391C376.059 244.274 375.248 245.157 374.413 246.067C368.536 246.067 367.356 244.926 363.115 241.484C365.822 235.059 370.232 230.026 377.943 230.026Z" fill="#F06421"/>
<path d="M895.373 185.338C899.104 186.627 902.07 187.885 905.416 189.922C905.784 193.404 905.784 193.404 905.651 197.513C905.617 198.874 905.583 200.236 905.548 201.639C905.505 202.688 905.461 203.737 905.416 204.817C901.602 203.202 898.394 201.278 895.059 198.945C894.173 198.328 893.286 197.71 892.372 197.074C891.706 196.604 891.039 196.135 890.352 195.651C891.018 191.272 892.231 188.705 895.373 185.338Z" fill="#FFC00E"/>
<path d="M1282.01 150.963C1285.91 153.875 1286.82 156.968 1288.29 161.276C1286.02 162.998 1283.74 164.716 1281.46 166.432C1280.2 167.389 1278.93 168.346 1277.63 169.332C1274.48 171.588 1274.48 171.588 1273.23 171.588C1273.23 166.294 1273.23 161.001 1273.23 155.547C1276.13 154.034 1279.03 152.522 1282.01 150.963Z" fill="#008DAF"/>
<path d="M1083.67 141.797C1087.57 144.709 1088.48 147.801 1089.95 152.109C1087.68 153.831 1085.4 155.549 1083.12 157.265C1081.86 158.222 1080.59 159.18 1079.28 160.166C1076.14 162.422 1076.14 162.422 1074.89 162.422C1074.89 157.128 1074.89 151.834 1074.89 146.38C1077.78 144.867 1080.68 143.355 1083.67 141.797Z" fill="#008DAF"/>
<path d="M223.773 99.4007C227.164 101.725 230.072 104.283 232.561 107.422C232.561 108.556 232.561 109.69 232.561 110.859C225.846 116.588 225.846 116.588 222.518 116.588C220.678 114.133 218.989 111.699 217.34 109.14C216.872 108.43 216.404 107.719 215.923 106.987C214.765 105.227 213.619 103.46 212.475 101.692C216.977 98.9529 218.469 98.5627 223.773 99.4007Z" fill="#F06421"/>
<path d="M335.497 32.9424C337.39 34.0018 339.271 35.0795 341.146 36.1651C342.195 36.7633 343.243 37.3615 344.324 37.9778C345.139 38.5849 345.955 39.1919 346.795 39.8174C346.795 43.2549 346.795 43.2549 345.148 45.0945C344.449 45.6927 343.75 46.2909 343.029 46.9072C342.33 47.5143 341.631 48.1214 340.911 48.7468C340.367 49.2033 339.823 49.6597 339.263 50.1299C333.898 48.316 331.398 44.9671 327.965 40.9632C329.732 37.0667 331.767 35.3575 335.497 32.9424Z" fill="#F06421"/>
<path d="M1297.08 6.58826C1300.39 8.10076 1303.71 9.61326 1307.12 11.1716C1307.12 16.4653 1307.12 21.7591 1307.12 27.2132C1301.75 24.0646 1296.9 20.6906 1292.06 16.9008C1293.39 13.0013 1294.58 10.0102 1297.08 6.58826Z" fill="#008DAF"/>
<path d="M1151.93 238.19C1153.43 238.521 1154.93 238.851 1156.48 239.192C1154.82 243.343 1152.79 246.795 1150.05 250.436C1149.03 251.794 1149.03 251.794 1148 253.18C1147.48 253.858 1146.97 254.535 1146.44 255.234C1142.76 253.609 1139.62 251.816 1136.4 249.505C1139.12 243.042 1143.87 237.237 1151.93 238.19Z" fill="#F06421"/>
<path d="M953.589 229.023C955.091 229.354 956.592 229.685 958.14 230.026C956.476 234.177 954.445 237.628 951.706 241.269C950.692 242.627 950.692 242.627 949.656 244.013C949.142 244.691 948.627 245.369 948.097 246.067C944.413 244.443 941.276 242.649 938.054 240.338C940.778 233.876 945.528 228.071 953.589 229.023Z" fill="#F06421"/>
<path d="M179.601 220.859C181.582 221.426 181.582 221.426 183.603 222.005C184.017 222.761 184.431 223.517 184.858 224.297C183.235 227.277 183.235 227.277 180.857 230.742C180.088 231.891 179.319 233.04 178.528 234.224C177.717 235.107 176.906 235.991 176.071 236.901C170.195 236.901 169.015 235.759 164.773 232.317C167.48 225.892 171.89 220.859 179.601 220.859Z" fill="#F06421"/>
<path d="M784.904 187.63C781.645 193.027 778.391 198.416 774.862 203.672C771.153 202.1 768.033 200.247 764.819 197.942C765.772 193.407 767.637 190.963 771.223 187.778C775.626 185.388 780.141 186.567 784.904 187.63Z" fill="#F06421"/>
<path d="M39.2401 99.4007C42.6306 101.725 45.5389 104.283 48.0274 107.422C48.0274 108.556 48.0274 109.69 48.0274 110.859C41.3129 116.588 41.3129 116.588 37.9848 116.588C36.1447 114.133 34.4558 111.699 32.8066 109.14C32.3389 108.43 31.8713 107.719 31.3894 106.987C30.2322 105.227 29.0861 103.46 27.9422 101.692C32.4441 98.9529 33.9359 98.5627 39.2401 99.4007Z" fill="#F06421"/>
<path d="M1435.16 94.8174C1438.38 97.2593 1441.33 99.8551 1443.95 102.838C1443.95 103.594 1443.95 104.351 1443.95 105.13C1441.49 107.094 1438.98 109.007 1436.42 110.859C1431.58 109.168 1429.87 106.883 1427.32 102.838C1426.66 101.822 1426.01 100.806 1425.34 99.7588C1423.87 97.1091 1423.87 97.1091 1423.87 94.8174C1428.13 93.5211 1430.93 93.3788 1435.16 94.8174Z" fill="#F06421"/>
<path d="M796.202 81.0674C798.814 83.2861 801.266 85.5867 803.734 87.9424C802.002 91.764 800.157 93.8848 796.202 95.9632C791.289 94.4682 790.455 92.5409 787.729 88.5869C786.535 86.8876 786.535 86.8876 785.316 85.1539C784.766 84.1835 784.216 83.2131 783.649 82.2132C784.063 81.457 784.478 80.7007 784.904 79.9216C789.622 78.5249 792.125 78.4732 796.202 81.0674Z" fill="#F06421"/>
<path d="M915.223 8.87992C917.204 9.44711 917.204 9.44711 919.225 10.0258C919.639 10.782 920.053 11.5383 920.48 12.3174C915.509 19.1237 915.509 19.1237 910.437 26.0674C903.376 23.4893 903.376 23.4893 900.395 20.3383C903.102 13.913 907.512 8.87992 915.223 8.87992Z" fill="#F06421"/>
<path d="M930.522 273.567C933.751 276.99 935.815 279.455 936.799 283.88C934.527 285.602 932.251 287.32 929.973 289.036C928.706 289.993 927.439 290.95 926.134 291.936C922.99 294.192 922.99 294.192 921.735 294.192C921.735 288.899 921.735 283.605 921.735 278.151C924.635 276.638 927.535 275.126 930.522 273.567Z" fill="#FFC00E"/>
<path d="M804.99 195.651C809.482 197.543 813.461 199.985 817.543 202.526C815.591 206.899 812.477 209.621 808.756 212.838C802.96 211.075 800.706 206.973 797.458 202.526C799.943 200.257 802.429 197.988 804.99 195.651Z" fill="#F06421"/>
<path d="M1441.44 181.901C1446.17 183.339 1446.79 184.798 1448.97 188.776C1448.97 189.91 1448.97 191.044 1448.97 192.213C1446 194.554 1446 194.554 1442.15 197.011C1440.88 197.831 1439.61 198.651 1438.31 199.495C1435.16 201.38 1435.16 201.38 1433.91 201.38C1433.91 196.086 1433.91 190.792 1433.91 185.338C1436.39 184.204 1438.88 183.069 1441.44 181.901Z" fill="#008DAF"/>
<path d="M444.711 173.88C448.61 176.792 449.517 179.885 450.987 184.192C448.954 185.727 446.912 187.253 444.868 188.776C443.164 190.052 443.164 190.052 441.425 191.354C438.434 193.359 438.434 193.359 435.924 193.359C435.924 188.443 435.924 183.528 435.924 178.463C438.823 176.951 441.723 175.438 444.711 173.88Z" fill="#FFC10D"/>
<path d="M662.039 121.422C664.881 122.503 667.043 123.977 669.414 125.755C667.665 130.836 664.888 133.631 660.627 137.213C655.261 135.399 652.762 132.05 649.329 128.047C650.882 126.859 652.455 125.694 654.037 124.537C655.347 123.56 655.347 123.56 656.685 122.564C659.372 121.172 659.372 121.172 662.039 121.422Z" fill="#F06421"/>
<path d="M521.286 305.651C524.059 308.146 526.464 310.843 528.818 313.671C526.892 317.47 525.224 319.446 521.286 321.692C520.457 321.692 519.629 321.692 518.775 321.692C516.608 319.056 516.608 319.056 514.225 315.605C513.432 314.475 512.639 313.345 511.822 312.181C509.988 309.088 509.988 309.088 509.988 305.651C514.228 304.36 517.078 304.187 521.286 305.651Z" fill="#F06421"/>
<path d="M162.262 345.755C164.873 347.973 167.326 350.274 169.794 352.63C168.194 355.888 166.717 358.517 163.518 360.651C161.134 360.512 161.134 360.512 158.496 359.505C156.358 357.007 156.358 357.007 154.416 353.919C153.436 352.399 153.436 352.399 152.435 350.848C150.964 348.046 150.964 348.046 150.964 344.609C155.758 343.394 158.131 343.127 162.262 345.755Z" fill="#F06421"/>
<path d="M913.105 308.121C916.619 309.565 918.272 312.01 920.48 314.817C917.58 317.842 914.68 320.867 911.693 323.984C905.996 321.384 904.227 319.288 900.395 314.817C901.948 313.63 903.521 312.464 905.102 311.308C906.413 310.331 906.413 310.331 907.75 309.334C910.437 307.942 910.437 307.942 913.105 308.121Z" fill="#D5DE22"/>
<path d="M1293.31 297.63C1295.72 299.496 1295.72 299.496 1298.02 301.712C1298.79 302.446 1299.56 303.18 1300.35 303.936C1300.93 304.502 1301.51 305.068 1302.1 305.651C1300.17 309.449 1298.51 311.425 1294.57 313.671C1293.74 313.671 1292.91 313.671 1292.06 313.671C1290.22 311.409 1288.53 309.166 1286.88 306.796C1286.41 306.141 1285.94 305.485 1285.46 304.809C1284.3 303.185 1283.16 301.554 1282.01 299.921C1283.27 297.63 1283.27 297.63 1285.54 296.842C1288.68 296.433 1290.33 296.666 1293.31 297.63Z" fill="#F06421"/>
<path d="M429.647 32.9424C433.268 34.424 435.763 35.9896 438.434 38.6716C436.637 44.4135 433.432 46.629 428.392 50.1299C425.492 47.483 422.592 44.8362 419.604 42.1091C422.357 37.083 424.517 35.7926 429.647 32.9424Z" fill="#F06421"/>
<path d="M1250 23.7757C1251.45 24.1539 1252.9 24.532 1254.4 24.9216C1252.73 29.0727 1250.7 32.5242 1247.96 36.1651C1246.95 37.5232 1246.95 37.5232 1245.91 38.9088C1245.4 39.5868 1244.88 40.2647 1244.35 40.9632C1239.86 38.7468 1237.24 36.7329 1234.31 32.9424C1243.35 22.9186 1243.35 22.9186 1250 23.7757Z" fill="#F06421"/>
<path d="M693.266 262.109C696.737 264.379 699.753 266.83 702.053 270.13C702.136 272.404 702.136 272.404 700.798 274.713C696.953 277.291 696.953 277.291 693.266 279.296C691.585 277.057 689.912 274.812 688.244 272.565C687.312 271.315 686.38 270.066 685.42 268.778C683.223 265.546 683.223 265.546 683.223 263.255C686.989 261.536 689.067 261.53 693.266 262.109Z" fill="#F06421"/>
<path d="M557.69 84.5049C559.98 86.5101 559.98 86.5101 562.319 89.0882C563.101 89.939 563.882 90.7898 564.688 91.6664C565.278 92.3281 565.869 92.9898 566.478 93.6716C564.763 96.9223 563.328 99.409 560.201 101.692C558.958 101.692 557.715 101.692 556.435 101.692C554.145 99.0561 554.145 99.0561 551.806 95.6052C551.024 94.4752 550.243 93.3453 549.437 92.1811C547.648 89.0882 547.648 89.0882 547.648 85.6507C551.116 84.9663 554.126 84.5049 557.69 84.5049Z" fill="#F06421"/>
<path d="M1434.54 23.7757C1435.99 24.1539 1437.44 24.532 1438.93 24.9216C1437.27 29.0727 1435.23 32.5242 1432.5 36.1651C1431.48 37.5232 1431.48 37.5232 1430.45 38.9088C1429.93 39.5868 1429.42 40.2647 1428.89 40.9632C1424.4 38.7468 1421.77 36.7329 1418.84 32.9424C1427.88 22.9186 1427.88 22.9186 1434.54 23.7757Z" fill="#F06421"/>
<path d="M35.6065 17.8631C38.3771 18.1898 38.3771 18.1898 43.0061 19.1924C42.1788 23.2835 40.2917 26.2706 37.9063 29.7914C37.2186 30.8135 36.5309 31.8356 35.8223 32.8887C35.2931 33.6627 34.764 34.4366 34.2188 35.2341C30.006 33.7866 27.1477 32.6455 24.1762 29.5049C26.3596 24.7942 29.4569 18.29 35.6065 17.8631Z" fill="#F06421"/>
<path d="M95.7298 427.109C104.046 426.966 104.046 426.966 108.283 428.255C108.283 432.414 108.283 436.574 108.283 440.859C103.726 440.481 99.1694 440.103 94.4745 439.713C93.0465 434.499 93.9368 432.115 95.7298 427.109Z" fill="#D5DE23"/>
<path d="M843.983 94.8174C846.727 96.1099 849.053 97.6134 851.437 99.4007C849.717 103.978 847.348 107.193 843.905 110.859C840.197 109.287 837.076 107.435 833.862 105.13C834.459 100.224 838.151 94.8174 843.983 94.8174Z" fill="#008DAF"/>
<path d="M355.583 162.422C355.826 164.498 356.06 166.575 356.289 168.652C356.42 169.809 356.551 170.965 356.686 172.157C356.761 173.577 356.761 173.577 356.838 175.026C354.75 176.932 352.09 176.585 349.228 176.816C346.159 177.064 346.159 177.064 343.029 177.317C343.029 173.158 343.029 168.999 343.029 164.713C352.758 162.422 352.758 162.422 355.583 162.422Z" fill="#008CAF"/>
<path d="M622.967 19.1924C627.762 20.9754 630.826 23.7254 634.265 27.2132C634.265 27.9695 634.265 28.7257 634.265 29.5049C632.475 31.0222 632.475 31.0222 630.107 32.5843C629.335 33.1087 628.563 33.633 627.768 34.1733C627.012 34.5233 626.257 34.8734 625.478 35.2341C621.044 33.8849 620.628 32.9928 618.338 29.4333C617.79 28.5929 617.241 27.7524 616.676 26.8865C616.267 26.2381 615.857 25.5897 615.435 24.9216C617.921 23.031 620.406 21.1403 622.967 19.1924Z" fill="#008DAF"/>
<path d="M1372.4 351.484C1372.81 355.643 1373.23 359.803 1373.65 364.088C1369.1 364.466 1364.54 364.844 1359.84 365.234C1359.84 361.075 1359.84 356.915 1359.84 352.63C1364.2 351.303 1367.83 351.405 1372.4 351.484Z" fill="#D5DE23"/>
<path d="M1166.52 110.859C1166.94 115.018 1167.35 119.178 1167.78 123.463C1163.22 123.841 1158.67 124.219 1153.97 124.609C1153.97 120.45 1153.97 116.29 1153.97 112.005C1158.47 110.977 1161.94 110.764 1166.52 110.859Z" fill="#F06422"/>
<path d="M1146.44 187.63C1151.63 188.182 1156.43 188.763 1161.5 189.922C1161.5 193.325 1161.5 196.728 1161.5 200.234C1156.53 199.856 1151.56 199.478 1146.44 199.088C1145.35 194.104 1145.14 192.246 1146.44 187.63Z" fill="#008DAF"/>
<path d="M948.097 178.463C955.554 179.598 955.554 179.598 963.161 180.755C963.161 184.158 963.161 187.561 963.161 191.067C958.19 190.689 953.219 190.311 948.097 189.922C946.842 184.192 946.842 184.192 948.097 178.463Z" fill="#008CAF"/>
<path d="M1349.8 110.859C1351.3 115.301 1352.31 118.784 1352.31 123.463C1347.76 123.841 1343.2 124.219 1338.5 124.609C1338.5 120.45 1338.5 116.29 1338.5 112.005C1342.66 111.056 1345.61 110.753 1349.8 110.859Z" fill="#F06522"/>
<path d="M159.752 293.047C161.769 296.73 161.079 300.421 161.007 304.505C153.55 305.072 153.55 305.072 145.943 305.651C145.529 302.626 145.114 299.601 144.688 296.484C155.734 293.047 155.734 293.047 159.752 293.047Z" fill="#008CAF"/>
<path d="M518.775 254.088C520.647 257.505 520.18 260.638 520.03 264.401C517.847 266.394 514.766 265.973 511.792 266.191C509.887 266.335 509.887 266.335 507.943 266.482C506.961 266.551 505.979 266.621 504.967 266.692C504.552 263.289 504.138 259.886 503.711 256.38C514.538 254.088 514.538 254.088 518.775 254.088Z" fill="#008CAF"/>
<path d="M1112.54 238.047C1118.14 239.181 1118.14 239.181 1123.84 240.338C1123.84 244.498 1123.84 248.657 1123.84 252.942C1122.03 252.777 1120.22 252.611 1118.35 252.441C1116.82 252.301 1116.82 252.301 1115.26 252.159C1112.54 251.797 1112.54 251.797 1110.03 250.651C1110.21 248.979 1110.4 247.308 1110.58 245.638C1110.69 244.707 1110.79 243.777 1110.89 242.818C1111.29 240.338 1111.29 240.338 1112.54 238.047Z" fill="#008DAF"/>
<path d="M774.862 136.067C776.667 136.23 778.471 136.398 780.275 136.569C781.28 136.662 782.285 136.755 783.321 136.851C786.16 137.213 786.16 137.213 789.926 138.359C790.083 144.948 790.083 144.948 788.67 147.526C777.911 147.689 777.911 147.689 773.607 146.38C773.45 138.645 773.45 138.645 774.862 136.067Z" fill="#008CAF"/>
<path d="M221.263 47.8382C223.768 52.4114 224.019 54.3693 223.773 59.2966C218.686 60.4223 213.933 60.5359 208.709 60.4424C207.009 57.3386 207.372 54.7025 207.454 51.2757C212.011 50.1414 216.568 49.007 221.263 47.8382Z" fill="#008CAF"/>
<path d="M36.7295 47.8382C39.2345 52.4114 39.4855 54.3693 39.2401 59.2966C34.1526 60.4223 29.4001 60.5359 24.1762 60.4424C22.476 57.3386 22.8393 54.7025 22.9209 51.2757C27.4777 50.1414 32.0345 49.007 36.7295 47.8382Z" fill="#008CAF"/>
<path d="M557.69 35.2341C557.69 38.6372 557.69 42.0403 557.69 45.5466C550.234 46.1138 550.234 46.1138 542.626 46.6924C542.212 43.6674 541.798 40.6424 541.371 37.5258C543.143 36.9139 544.923 36.3207 546.706 35.7354C547.697 35.4031 548.687 35.0707 549.707 34.7283C552.669 34.0883 552.669 34.0883 557.69 35.2341Z" fill="#008CAF"/>
<path d="M315.412 388.151C317.923 396.888 317.923 396.888 317.923 400.755C313.366 401.133 308.809 401.511 304.114 401.901C304.114 397.741 304.114 393.582 304.114 389.296C310.391 388.151 310.391 388.151 315.412 388.151Z" fill="#D5DD23"/>
<path d="M693.266 210.547C693.68 214.328 694.094 218.109 694.521 222.005C686.443 222.572 686.443 222.572 678.202 223.151C677.787 220.126 677.373 217.101 676.946 213.984C679.194 213.408 681.444 212.835 683.694 212.265C684.946 211.946 686.199 211.627 687.489 211.298C690.755 210.547 690.755 210.547 693.266 210.547Z" fill="#008DAF"/>
<path d="M301.604 186.484C305.332 186.862 309.06 187.24 312.901 187.63C312.901 191.789 312.901 195.949 312.901 200.234C308.345 199.856 303.788 199.478 299.093 199.088C300.191 189.062 300.191 189.062 301.604 186.484Z" fill="#F06421"/>
<path d="M232.561 173.88C235.071 182.617 235.071 182.617 235.071 186.484C230.514 186.862 225.957 187.24 221.263 187.63C221.263 183.47 221.263 179.311 221.263 175.026C225.421 174.077 228.367 173.774 232.561 173.88Z" fill="#008DAF"/>
<path d="M1433.91 43.2549C1434.32 46.658 1434.74 50.0612 1435.16 53.5674C1431.94 55.0392 1429.18 55.0911 1425.59 55.3578C1424.33 55.4538 1423.07 55.5498 1421.78 55.6487C1420.81 55.7181 1419.84 55.7875 1418.84 55.8591C1418.84 52.4559 1418.84 49.0528 1418.84 45.5466C1420.4 45.1684 1421.95 44.7903 1423.55 44.4007C1424.43 44.188 1425.3 43.9753 1426.2 43.7562C1428.89 43.2549 1428.89 43.2549 1433.91 43.2549Z" fill="#008DAF"/>
<path d="M1259.23 -2.69031C1261.8 -2.65301 1264.38 -2.61571 1266.95 -2.57841C1270.72 5.01273 1270.72 5.01273 1270.72 8.87992C1267.7 10.258 1265.76 10.1412 1262.4 10.0974C1260.86 10.0819 1260.86 10.0819 1259.29 10.066C1258.11 10.0461 1258.11 10.0461 1256.91 10.0258C1256.66 8.14078 1256.43 6.25471 1256.2 4.3682C1256.07 3.31802 1255.94 2.26784 1255.8 1.18583C1255.75 0.321756 1255.7 -0.542318 1255.65 -1.43258C1256.91 -2.57841 1256.91 -2.57841 1259.23 -2.69031Z" fill="#008CAF"/>
<path d="M1190.38 255.234C1195.18 257.021 1198.36 259.63 1201.67 263.255C1201.67 267.12 1199.27 269.511 1196.65 272.422C1192.35 271.114 1191.52 270.079 1188.88 266.836C1187.89 265.635 1187.89 265.635 1186.87 264.41C1185.35 262.109 1185.35 262.109 1185.35 258.672C1187.86 256.738 1187.86 256.738 1190.38 255.234Z" fill="#FFC00E"/>
<path d="M831.352 95.9632C832.18 100.123 833.009 104.282 833.862 108.567C827.027 109.702 827.027 109.702 820.054 110.859C820.054 106.7 820.054 102.54 820.054 98.2549C828.527 95.9632 828.527 95.9632 831.352 95.9632Z" fill="#F06521"/>
<path d="M320.433 -10.5992C320.887 -8.71512 321.329 -6.82885 321.767 -4.94169C322.015 -3.89151 322.262 -2.84133 322.517 -1.75932C322.658 -0.895245 322.799 -0.0311699 322.944 0.859089C320.856 2.7651 318.196 2.41797 315.334 2.64945C312.266 2.8976 312.266 2.8976 309.135 3.15075C309.135 -1.00862 309.135 -5.16799 309.135 -9.45341C313.148 -10.6743 316.237 -10.6844 320.433 -10.5992Z" fill="#008DAF"/>
<path d="M220.007 238.047C221.457 239.083 222.893 240.137 224.322 241.198C225.123 241.782 225.924 242.367 226.75 242.97C229.078 245.192 229.784 246.451 230.05 249.505C227.618 252.656 227.618 252.656 225.029 255.234C220.649 253.902 219.882 252.782 217.261 249.433C216.596 248.593 215.931 247.752 215.246 246.886C214.746 246.238 214.246 245.59 213.731 244.922C215.45 241.299 216.228 240.347 220.007 238.047Z" fill="#FFC00E"/>
<path d="M705.819 149.817C711.184 151.631 713.684 154.98 717.117 158.984C714.842 162.422 714.842 162.422 712.096 165.859C710.853 165.859 709.61 165.859 708.33 165.859C706.04 163.603 706.04 163.603 703.701 160.703C702.528 159.267 702.528 159.267 701.332 157.802C700.741 157.058 700.151 156.314 699.542 155.547C701.614 153.656 703.685 151.765 705.819 149.817Z" fill="#FFC00E"/>
<path d="M273.986 330.859C278.572 332.291 279.988 332.774 282.774 336.588C281.162 338.504 279.538 340.413 277.909 342.317C277.006 343.381 276.103 344.444 275.173 345.54C274.367 346.367 273.561 347.194 272.731 348.046C271.902 348.046 271.074 348.046 270.22 348.046C268.485 346.183 266.807 344.274 265.199 342.317C267.292 337.801 270.505 334.538 273.986 330.859Z" fill="#FFC00E"/>
<path d="M1450.23 310.234C1450.64 312.125 1451.06 314.015 1451.48 315.963C1449.74 316.962 1447.99 317.936 1446.23 318.899C1445.25 319.444 1444.28 319.989 1443.27 320.551C1439.52 321.94 1437.7 321.762 1433.91 320.546C1431.63 317.61 1431.63 317.61 1430.14 314.817C1431.74 314.267 1433.33 313.719 1434.93 313.17C1435.82 312.864 1436.71 312.559 1437.62 312.244C1442.08 310.74 1445.48 310.117 1450.23 310.234Z" fill="#008DAF"/>
<path d="M117.07 186.484C120.799 186.862 124.527 187.24 128.368 187.63C128.368 191.789 128.368 195.949 128.368 200.234C123.812 199.856 119.255 199.478 114.56 199.088C115.388 194.929 116.217 190.769 117.07 186.484Z" fill="#F06721"/>
<path d="M289.05 62.7341C293.636 64.1661 295.052 64.6487 297.838 68.4632C294.523 72.2445 291.209 76.0257 287.795 79.9216C284.657 77.3434 284.657 77.3434 281.518 74.1924C281.518 69.6091 281.518 69.6091 283.166 67.6576C283.865 67.0727 284.564 66.4877 285.284 65.8851C286.333 64.99 286.333 64.99 287.403 64.0768C287.946 63.6337 288.49 63.1906 289.05 62.7341Z" fill="#FFC00E"/>
<path d="M104.517 62.7341C109.103 64.1661 110.518 64.6487 113.304 68.4632C109.99 72.2445 106.676 76.0257 103.262 79.9216C100.124 77.3434 100.124 77.3434 96.9852 74.1924C96.9852 69.6091 96.9852 69.6091 98.6328 67.6576C99.3319 67.0727 100.031 66.4877 100.751 65.8851C101.8 64.99 101.8 64.99 102.87 64.0768C103.413 63.6337 103.957 63.1906 104.517 62.7341Z" fill="#FFC00E"/>
<path d="M624.223 47.8382C626.708 49.3507 629.194 50.8632 631.755 52.4216C629.521 57.0556 626.237 60.9704 622.967 65.0257C618.16 63.3613 616.539 61.0967 614.18 57.0049C617.494 53.9799 620.808 50.9549 624.223 47.8382Z" fill="#FFC00E"/>
<path d="M115.972 361.868C118.326 362.942 118.326 362.942 122.092 365.234C120.38 368.663 118.39 371.296 115.658 374.114C114.644 375.169 114.644 375.169 113.608 376.245C112.837 377.033 112.837 377.033 112.049 377.838C107.782 376.54 106.962 375.403 104.517 372.109C106.53 367.6 110.104 361.711 115.972 361.868Z" fill="#FFC00E"/>
<path d="M1245.61 313.671C1249.49 315.259 1251.25 316.527 1254.4 319.401C1251.08 323.182 1247.77 326.963 1244.35 330.859C1240.09 329.561 1239.27 328.424 1236.82 325.13C1238.92 320.614 1242.13 317.35 1245.61 313.671Z" fill="#FFC00E"/>
<path d="M511.243 101.692C513.729 103.205 516.214 104.717 518.775 106.276C517.063 109.704 515.073 112.337 512.342 115.156C511.327 116.211 511.327 116.211 510.292 117.286C509.52 118.075 509.52 118.075 508.733 118.88C506.247 116.989 503.761 115.099 501.201 113.151C503.273 108.232 507.148 105.268 511.243 101.692Z" fill="#FFC00E"/>
<path d="M1359.84 -12.8909C1364.65 -11.1039 1367.83 -8.49512 1371.14 -4.87007C1371.14 -1.04924 1368.85 1.50461 1366.12 4.29659C1365.29 4.29659 1364.46 4.29659 1363.61 4.29659C1361.4 2.20186 1361.4 2.20186 1358.98 -0.5732C1358.17 -1.47715 1357.37 -2.38111 1356.53 -3.31246C1354.82 -6.01591 1354.82 -6.01591 1354.96 -8.50451C1356.08 -10.5992 1356.08 -10.5992 1359.84 -12.8909Z" fill="#FFC00E"/>
<path d="M1175.31 -12.8909C1180.12 -11.1039 1183.3 -8.49512 1186.61 -4.87007C1186.61 -1.04924 1184.32 1.50461 1181.59 4.29659C1180.76 4.29659 1179.93 4.29659 1179.08 4.29659C1176.87 2.20186 1176.87 2.20186 1174.45 -0.5732C1173.64 -1.47715 1172.83 -2.38111 1172 -3.31246C1170.29 -6.01591 1170.29 -6.01591 1170.42 -8.50451C1171.55 -10.5992 1171.55 -10.5992 1175.31 -12.8909Z" fill="#FFC00E"/>
<path d="M1151.46 463.776C1155.19 464.154 1158.92 464.532 1162.76 464.921C1162.76 469.081 1162.76 473.24 1162.76 477.526C1158.62 477.147 1154.47 476.769 1150.2 476.38C1150.11 471.838 1150.24 468.213 1151.46 463.776Z" fill="#D5DD23"/>
<path d="M472.328 321.692C476.914 323.124 478.329 323.607 481.115 327.421C477.801 331.203 474.487 334.984 471.073 338.88C468.587 336.989 466.102 335.099 463.541 333.151C465.634 328.634 468.847 325.371 472.328 321.692Z" fill="#FFC00E"/>
<path d="M1349.8 286.171C1354.82 286.171 1354.82 286.171 1356.96 287.926C1357.6 288.67 1358.24 289.415 1358.9 290.182C1359.56 290.926 1360.21 291.671 1360.88 292.438C1361.37 293.017 1361.85 293.596 1362.35 294.192C1360.49 299.593 1360.49 299.593 1357.24 301.255C1356.04 301.729 1356.04 301.729 1354.82 302.213C1353.31 300.797 1351.83 299.361 1350.35 297.916C1349.52 297.119 1348.69 296.321 1347.84 295.499C1346.04 293.046 1346.04 293.046 1346.24 290.594C1347.29 288.463 1347.29 288.463 1349.8 286.171Z" fill="#FFC00E"/>
<path d="M1234.31 249.505C1238.04 249.883 1241.77 250.261 1245.61 250.651C1245.61 254.81 1245.61 258.969 1245.61 263.255C1241.47 262.877 1237.32 262.499 1233.06 262.109C1232.96 257.567 1233.1 253.942 1234.31 249.505Z" fill="#008CAF"/>
<path d="M635.521 171.588C639.249 171.966 642.977 172.344 646.819 172.734C646.819 176.893 646.819 181.053 646.819 185.338C638.502 185.481 638.502 185.481 634.265 184.192C634.68 180.033 635.094 175.874 635.521 171.588Z" fill="#F06521"/>
<path d="M478.605 164.713C483.649 169.597 483.649 169.597 483.548 173.307C482.258 176.445 480.618 179.104 478.605 181.901C474.518 181.501 473.56 180.73 470.759 177.819C470.034 176.897 469.309 175.975 468.562 175.026C470.549 170.128 474.218 167.847 478.605 164.713Z" fill="#008DAF"/>
<path d="M1146.44 63.8799C1152.03 65.0143 1152.03 65.0143 1157.74 66.1716C1157.74 70.3309 1157.74 74.4903 1157.74 78.7757C1146.6 77.7731 1146.6 77.7731 1145.18 76.4841C1145.3 74.3554 1145.49 72.2302 1145.73 70.1104C1145.86 68.9509 1145.99 67.7914 1146.12 66.5968C1146.23 65.7002 1146.33 64.8036 1146.44 63.8799Z" fill="#008DAF"/>
<path d="M758.543 225.442C762.261 226.144 764.042 226.879 767.33 228.88C765.435 234.586 761.61 238.324 757.287 242.63C754.071 240.052 754.071 240.052 751.011 236.901C750.755 233.29 753.085 231.272 755.483 228.593C756.493 227.554 757.502 226.514 758.543 225.442Z" fill="#FFC00E"/>
<path d="M16.6442 234.609C24.2365 235.239 30.837 236.791 37.9848 239.192C35.9135 241.461 33.8422 243.73 31.7082 246.067C25.6077 245.371 20.7359 242.942 15.3889 240.338C15.8032 238.448 16.2174 236.557 16.6442 234.609Z" fill="#008DAF"/>
<path d="M1196.65 152.109C1199.18 155.922 1201.67 160.192 1201.67 164.713C1197.94 164.713 1194.22 164.713 1190.38 164.713C1186.61 157.265 1186.61 157.265 1186.61 152.109C1190.98 150.78 1192.43 150.419 1196.65 152.109Z" fill="#FFC00E"/>
<path d="M271.476 75.3382C274.854 75.5403 278.165 76.0468 281.518 76.4841C280.276 80.6434 279.033 84.8028 277.752 89.0882C273.61 89.0882 269.467 89.0882 265.199 89.0882C266.005 87.01 266.817 84.9335 267.631 82.8578C268.083 81.7012 268.534 80.5447 268.999 79.3531C270.22 76.4841 270.22 76.4841 271.476 75.3382Z" fill="#FFC00E"/>
<path d="M955.629 26.0674C958.977 29.123 962.324 32.1785 965.672 35.2341C963.818 40.593 963.818 40.593 960.493 42.4671C959.328 42.8571 959.328 42.8571 958.14 43.2549C951.863 36.8096 951.863 36.8096 951.863 32.9424C951.034 32.9424 950.206 32.9424 949.352 32.9424C951.072 29.3203 951.849 28.3674 955.629 26.0674Z" fill="#FEC00E"/>
<path d="M44.2614 170.442C47.1613 171.199 50.0611 171.955 53.0487 172.734C53.9118 174.596 53.9118 174.596 54.3041 177.317C52.4995 181.041 52.4995 181.041 50.5381 184.192C46.3406 183.554 42.9645 182.643 39.2401 180.755C39.9063 176.377 41.1194 173.809 44.2614 170.442Z" fill="#F06521"/>
<path d="M110.794 275.859C113.304 282.304 113.304 282.304 113.304 286.171C111.029 286.202 108.754 286.225 106.479 286.243C105.212 286.256 103.945 286.27 102.639 286.283C99.4958 286.171 99.4958 286.171 98.2405 285.026C98.1891 282.352 98.1873 279.678 98.2405 277.005C102.484 275.813 106.373 275.767 110.794 275.859Z" fill="#F06422"/>
<path d="M1422.85 246.569C1425.97 249.028 1427.26 251.815 1428.89 255.234C1420.57 259.817 1420.57 259.817 1416.33 259.817C1415.09 256.414 1413.85 253.011 1412.57 249.505C1419.23 245.909 1419.23 245.909 1422.85 246.569Z" fill="#F06422"/>
<path d="M471.073 236.901C471.823 240.319 472.006 243.734 472.328 247.213C467.357 246.835 462.386 246.457 457.264 246.067C457.264 243.42 457.264 240.774 457.264 238.046C459.092 237.631 460.924 237.227 462.756 236.829C464.285 236.49 464.285 236.49 465.845 236.144C468.562 235.755 468.562 235.755 471.073 236.901Z" fill="#F06421"/>
<path d="M1356.08 200.234C1360.64 200.612 1365.19 200.99 1369.89 201.38C1369.47 204.405 1369.06 207.43 1368.63 210.547C1363.66 210.547 1358.69 210.547 1353.57 210.547C1354.4 207.143 1355.22 203.74 1356.08 200.234Z" fill="#F06522"/>
<path d="M1195.4 170.442C1196.98 170.419 1198.56 170.395 1200.18 170.371C1201.07 170.357 1201.96 170.344 1202.87 170.33C1205.44 170.442 1205.44 170.442 1209.21 171.588C1208.79 174.235 1208.38 176.882 1207.95 179.609C1202.86 180.735 1198.11 180.848 1192.89 180.755C1193.71 177.352 1194.54 173.949 1195.4 170.442Z" fill="#F06422"/>
<path d="M997.055 161.276C998.634 161.228 1000.21 161.181 1001.84 161.132C1002.73 161.106 1003.62 161.079 1004.53 161.052C1007.1 161.276 1007.1 161.276 1010.86 163.567C1010.45 165.836 1010.03 168.105 1009.61 170.442C1004.52 171.568 999.768 171.682 994.544 171.588C995.373 168.185 996.201 164.782 997.055 161.276Z" fill="#F06421"/>
<path d="M1394.99 126.901C1394.58 130.682 1394.16 134.463 1393.74 138.359C1389.18 137.981 1384.62 137.603 1379.93 137.213C1381.83 130.123 1381.83 130.123 1383.93 126.901C1387.66 125.021 1390.97 126.139 1394.99 126.901Z" fill="#F06521"/>
<path d="M1383.7 24.9216C1386.2 29.4947 1386.45 31.4527 1386.21 36.3799C1381.65 36.0018 1377.09 35.6237 1372.4 35.2341C1371.98 32.5872 1371.57 29.9403 1371.14 27.2133C1375.28 26.457 1379.43 25.7008 1383.7 24.9216Z" fill="#F06422"/>
<path d="M271.476 246.067C273.986 252.513 273.986 252.513 273.986 256.38C269.015 256.002 264.044 255.624 258.922 255.234C258.922 252.587 258.922 249.94 258.922 247.213C262.958 245.372 267.002 246.001 271.476 246.067Z" fill="#F06522"/>
<path d="M390.732 124.609C392.87 126.395 392.87 126.395 394.812 128.548C395.465 129.255 396.119 129.963 396.793 130.692C398.264 132.63 398.264 132.63 398.264 134.922C396.04 134.76 393.817 134.591 391.595 134.42C390.357 134.327 389.119 134.234 387.844 134.138C384.455 133.776 384.455 133.776 380.689 132.63C380.275 129.983 379.861 127.336 379.434 124.609C383.7 123.636 386.576 123.223 390.732 124.609Z" fill="#D5DE22"/>
<path d="M84.4319 52.4216C86.3084 55.7615 86.9426 57.8159 86.9426 61.5882C84.8775 61.8106 82.8112 62.0237 80.7444 62.2328C79.0186 62.4122 79.0186 62.4122 77.2579 62.5953C76.3113 62.6411 75.3646 62.6869 74.3893 62.7341C73.134 61.5882 73.134 61.5882 73.0114 59.2205C73.0259 58.2766 73.0405 57.3328 73.0555 56.3604C73.0668 55.4136 73.0782 54.4668 73.0898 53.4913C73.1044 52.7602 73.119 52.029 73.134 51.2757C77.788 50.0957 80.4729 49.6802 84.4319 52.4216Z" fill="#F06521"/>
<path d="M508.733 16.9008C509.147 20.3039 509.561 23.707 509.988 27.2132C500.663 27.3769 500.663 27.3769 496.179 26.0674C495.765 23.4205 495.351 20.7737 494.924 18.0466C499.536 16.6994 503.924 16.8163 508.733 16.9008Z" fill="#F06522"/>
<path d="M365.625 388.151C369.335 391.304 372.047 394.361 374.412 398.463C374.412 399.219 374.412 399.976 374.412 400.755C368.199 400.377 361.985 399.999 355.583 399.609C358.376 394.51 361.164 392.045 365.625 388.151Z" fill="#FFC00E"/>
<path d="M1138.91 380.13C1140.59 382.034 1142.26 383.945 1143.93 385.859C1144.65 386.686 1145.38 387.513 1146.12 388.365C1147.69 390.442 1147.69 390.442 1147.69 392.734C1141.23 392.837 1135.24 392.558 1128.86 391.588C1130.94 386.67 1134.81 383.705 1138.91 380.13Z" fill="#FFC00E"/>
<path d="M327.965 304.505C332.962 307.799 336.044 311.175 339.263 315.963C331.185 316.53 331.185 316.53 322.944 317.109C321.689 312.526 321.689 312.526 322.939 310.324C323.536 309.632 324.133 308.941 324.749 308.229C325.343 307.526 325.936 306.823 326.548 306.098C327.016 305.572 327.484 305.047 327.965 304.505Z" fill="#FFC00E"/>
<path d="M1088.69 48.9841C1087.94 51.6787 1087.1 54.3534 1086.18 57.0049C1082.96 58.4767 1080.2 58.5286 1076.61 58.7953C1075.35 58.8913 1074.09 58.9873 1072.8 59.0862C1071.83 59.1556 1070.86 59.225 1069.86 59.2966C1073.88 49.7223 1077.84 48.2219 1088.69 48.9841Z" fill="#D5DE22"/>
<path d="M1351.06 333.151C1355.97 334.475 1359.69 335.849 1363.61 338.88C1362.01 342.138 1360.53 344.767 1357.33 346.901C1354.74 346.829 1354.74 346.829 1352.31 345.755C1349.51 342.592 1349.82 340.99 1350.27 336.875C1350.53 335.646 1350.79 334.417 1351.06 333.151Z" fill="#008DAF"/>
<path d="M117.07 258.671C117.534 266.005 117.534 266.005 115.187 269.485C114.566 270.076 113.945 270.667 113.304 271.276C109.115 269.932 106.056 268.768 103.262 265.546C103.262 264.79 103.262 264.034 103.262 263.255C105.326 261.737 105.326 261.737 108.048 260.175C108.936 259.651 109.825 259.127 110.74 258.586C113.304 257.526 113.304 257.526 117.07 258.671Z" fill="#008DAF"/>
<path d="M1111.29 165.859C1112.23 168.867 1112.23 168.867 1112.54 172.734C1110.11 176.601 1110.11 176.601 1107.52 179.609C1103.76 177.604 1103.76 177.604 1099.99 175.026C1099.99 173.513 1099.99 172.001 1099.99 170.442C1104.05 166.734 1105.41 165.859 1111.29 165.859Z" fill="#F06421"/>
<path d="M997.055 46.6924C1000.78 48.9612 1004.51 51.2299 1008.35 53.5674C1002.71 59.8337 1002.71 59.8337 1000.82 61.5882C999.992 61.5882 999.164 61.5882 998.31 61.5882C994.774 57.3669 993.902 54.2563 994.544 48.9841C995.373 48.2278 996.201 47.4716 997.055 46.6924Z" fill="#D5DE22"/>
<path d="M831.352 26.0674C835.694 27.4988 839.068 29.1328 842.65 31.7966C841.049 35.0551 839.572 37.6833 836.373 39.8174C833.784 39.7458 833.784 39.7458 831.352 38.6716C828.812 35.6906 828.826 34.2317 829.233 30.4359C830.096 27.2132 830.096 27.2132 831.352 26.0674Z" fill="#F06422"/>
<path d="M874.033 98.2549C875.69 99.0111 877.347 99.7674 879.054 100.547C878.113 108.138 878.113 108.138 875.288 112.005C871.051 110.646 868.199 109.397 865.245 106.276C866.919 101.692 869.634 100.732 874.033 98.2549Z" fill="#008DAF"/>
<path d="M356.838 241.484C361.837 241.991 365.371 244.628 369.391 247.213C363.585 253.945 363.585 253.945 359.349 255.234C356.131 252.175 355.591 250.763 355.269 246.425C355.583 242.63 355.583 242.63 356.838 241.484Z" fill="#F06421"/>
<path d="M255.156 188.776C260.098 189.42 263.682 190.628 267.71 193.359C267.71 194.493 267.71 195.628 267.71 196.796C264.885 199.375 264.885 199.375 261.433 201.38C258.687 201.38 258.687 201.38 256.412 200.234C253.83 197.204 253.884 195.785 254.372 191.927C254.631 190.887 254.89 189.847 255.156 188.776Z" fill="#008DAF"/>
<path d="M70.6233 188.776C75.5645 189.42 79.1494 190.628 83.1766 193.359C83.1766 194.493 83.1766 195.628 83.1766 196.796C80.3521 199.375 80.3521 199.375 76.8999 201.38C74.1539 201.38 74.1539 201.38 71.8786 200.234C69.2969 197.204 69.351 195.785 69.8387 191.927C70.0976 190.887 70.3565 189.847 70.6233 188.776Z" fill="#008DAF"/>
<path d="M1147.69 408.776C1153.2 409.35 1156.23 411.048 1160.25 414.505C1160.25 415.261 1160.25 416.017 1160.25 416.796C1157.42 419.303 1157.42 419.303 1153.97 421.38C1151.22 421.308 1151.22 421.308 1148.95 420.234C1145.73 415.822 1146.65 413.834 1147.69 408.776Z" fill="#F06421"/>
<path d="M399.598 399.681C402.628 401.019 405.47 402.538 408.306 404.192C406.146 406.605 404.934 407.547 401.559 408.256C400.472 408.333 399.384 408.41 398.264 408.489C396.633 408.622 396.633 408.622 394.969 408.758C391.987 408.776 391.987 408.776 388.221 407.63C389.922 402.971 393.904 399.523 399.598 399.681Z" fill="#D5DE22"/>
<path d="M320.433 334.296C321.051 341.63 321.051 341.63 317.923 345.11C316.68 345.997 316.68 345.997 315.412 346.901C312.512 344.632 309.612 342.363 306.625 340.026C314.37 332.452 314.37 332.452 320.433 334.296Z" fill="#F06421"/>
<path d="M297.21 316.536C300.959 318.589 303.672 321.057 306.625 323.984C301.288 326.419 294.482 325.626 288.972 323.984C288.169 323.606 287.367 323.228 286.54 322.838C287.795 319.401 287.795 319.401 290.619 317.324C294.072 315.963 294.072 315.963 297.21 316.536Z" fill="#D5DE22"/>
<path d="M590.329 173.88C595.344 175.449 598.865 177.612 602.882 180.755C599.982 183.024 597.083 185.292 594.095 187.63C591.584 185.839 591.584 185.839 589.074 183.047C588.681 178.821 588.681 178.821 589.074 175.026C589.488 174.648 589.902 174.269 590.329 173.88Z" fill="#008DAF"/>
<path d="M1210.75 113.549C1211.49 113.796 1212.22 114.042 1212.97 114.297C1213.43 120.502 1213.43 120.502 1211.09 123.893C1210.47 124.507 1209.85 125.122 1209.2 125.755C1204.29 124.3 1201.94 122.877 1199.16 118.88C1200.51 117.884 1201.87 116.909 1203.24 115.944C1204 115.399 1204.76 114.854 1205.54 114.292C1207.95 113.151 1207.95 113.151 1210.75 113.549Z" fill="#008DAF"/>
<path d="M1118.27 105.058C1119.7 105.082 1121.12 105.106 1122.59 105.13C1123 108.533 1123.42 111.936 1123.84 115.442C1118.25 116.01 1118.25 116.01 1112.54 116.588C1112.42 108.643 1112.42 108.643 1112.54 106.276C1113.8 105.13 1113.8 105.13 1118.27 105.058Z" fill="#F06521"/>
<path d="M374.412 416.796C379.917 417.371 382.949 419.069 386.966 422.526C386.966 423.282 386.966 424.038 386.966 424.817C381.801 429.401 381.801 429.401 377.943 429.401C374.85 427.843 374.164 426.764 373.157 423.671C373.628 419.947 373.628 419.947 374.412 416.796Z" fill="#F06421"/>
<path d="M1174.37 392.161C1178.03 393.981 1179.04 394.923 1180.33 398.463C1174.67 401.047 1170.22 401.033 1164.01 400.755C1163.18 400.377 1162.36 399.999 1161.5 399.609C1163.58 393.929 1167.83 391.242 1174.37 392.161Z" fill="#D5DE22"/>
<path d="M1073.63 326.276C1075.77 327.75 1077.87 329.267 1079.91 330.859C1075.22 333.709 1072.91 333.494 1067.35 333.151C1063.04 332.005 1063.04 332.005 1059.82 330.859C1061.03 328.094 1061.98 326.516 1064.61 324.7C1068.49 323.688 1070.11 324.551 1073.63 326.276Z" fill="#D5DE23"/>
<path d="M1091.5 341.57C1092.23 341.816 1092.96 342.063 1093.72 342.317C1094.18 348.522 1094.18 348.522 1091.83 351.914C1091.21 352.528 1090.59 353.143 1089.95 353.776C1085.04 352.321 1082.68 350.898 1079.91 346.901C1081.25 345.904 1082.61 344.93 1083.99 343.964C1084.74 343.419 1085.5 342.874 1086.28 342.313C1088.69 341.171 1088.69 341.171 1091.5 341.57Z" fill="#F06521"/>
<path d="M345.54 179.609C348.44 179.987 351.34 180.365 354.327 180.755C354.327 184.536 354.327 188.317 354.327 192.213C351.013 191.835 347.699 191.457 344.285 191.067C342.637 186.557 343.98 184.049 345.54 179.609Z" fill="#F06521"/>
<path d="M1101.25 312.526C1106.64 316.079 1108.61 318.599 1112.54 323.984C1102.6 324.551 1102.6 324.551 1092.46 325.13C1092.46 324.374 1092.46 323.617 1092.46 322.838C1093.44 322.318 1094.43 321.798 1095.44 321.263C1098.92 319.3 1099.91 318.262 1101.25 314.817C1101.25 314.061 1101.25 313.305 1101.25 312.526Z" fill="#FEBE0E"/>
<path d="M346.795 274.713C352.758 275.716 352.758 275.716 355.583 277.005C355.583 280.786 355.583 284.567 355.583 288.463C351.204 286.465 348.008 284.421 344.285 281.588C345.113 279.319 345.942 277.051 346.795 274.713Z" fill="#FFC00E"/>
<path d="M1047.27 -1.43257C1050.31 1.34184 1050.44 2.92287 1051.19 6.73149C1051.4 7.77429 1051.61 8.81708 1051.83 9.89148C1052.06 11.0923 1052.06 11.0923 1052.29 12.3174C1047.2 11.7812 1042.92 11.3096 1038.48 8.87992C1040.95 4.83086 1043.55 1.72443 1047.27 -1.43257Z" fill="#FFC00E"/>
<path d="M1221.76 247.213C1225.89 248.514 1226.77 249.497 1228.98 253.086C1229.49 254.173 1230.01 255.26 1230.55 256.38C1223.33 260.963 1223.33 260.963 1220.5 260.963C1218.61 257.504 1219.03 254.463 1219.25 250.651C1220.08 249.516 1220.9 248.382 1221.76 247.213Z" fill="#D5DE22"/>
<path d="M242.603 171.588C246.369 172.734 246.369 172.734 247.624 175.026C247.793 178.088 247.679 181.124 247.624 184.192C242.896 184.192 241.458 183.923 237.582 181.901C238.248 177.522 239.461 174.955 242.603 171.588Z" fill="#D5DE22"/>
<path d="M1119.06 199.518C1119.81 199.754 1120.56 199.991 1121.33 200.234C1121.75 202.125 1122.16 204.015 1122.59 205.963C1121.15 207.112 1119.71 208.257 1118.27 209.401C1117.07 210.358 1117.07 210.358 1115.85 211.334C1113.8 212.838 1113.8 212.838 1112.54 212.838C1112.44 210.977 1112.37 209.115 1112.31 207.252C1112.27 206.215 1112.22 205.178 1112.18 204.11C1112.3 203.209 1112.42 202.308 1112.54 201.38C1116.31 199.088 1116.31 199.088 1119.06 199.518Z" fill="#FFC00E"/>
<path d="M1166.52 362.942C1166.94 363.699 1167.35 364.455 1167.78 365.234C1166.66 367.463 1166.66 367.463 1164.95 369.961C1164.4 370.791 1163.85 371.621 1163.29 372.476C1162.7 373.111 1162.11 373.746 1161.5 374.401C1160.26 374.401 1159.02 374.401 1157.74 374.401C1152.72 369.424 1152.72 369.424 1152.72 366.38C1157.27 365.245 1161.83 364.111 1166.52 362.942Z" fill="#008DAF"/>
<path d="M997.055 250.651C1000.11 251.728 1001.73 252.362 1003.33 255.019C1003.33 258.823 1001.04 260.541 998.31 263.255C995.878 262.467 995.878 262.467 993.289 260.963C992.033 258.242 992.033 258.242 992.033 255.234C994.466 252.584 994.466 252.584 997.055 250.651Z" fill="#FABF11"/>
<path d="M549.844 418.372C550.848 418.712 551.851 419.051 552.885 419.401C553.642 419.676 554.399 419.951 555.18 420.234C555.18 420.99 555.18 421.746 555.18 422.526C551.467 423.938 547.823 425.202 543.882 425.963C540.665 424.674 540.665 424.674 538.86 422.526C538.86 421.391 538.86 420.257 538.86 419.088C543.145 416.594 545.156 416.736 549.844 418.372Z" fill="#F06421"/>
<path d="M926.129 342.675C927.164 343.313 928.2 343.952 929.267 344.609C927.61 346.5 925.953 348.39 924.246 350.338C920.103 349.204 915.961 348.069 911.693 346.901C911.693 346.144 911.693 345.388 911.693 344.609C920.654 340.801 920.654 340.801 926.129 342.675Z" fill="#F06521"/>
<path d="M248.88 219.713C250.773 221.969 250.773 221.969 252.803 224.869C253.479 225.827 254.155 226.784 254.852 227.77C255.367 228.514 255.882 229.259 256.412 230.026C254.633 229.863 252.855 229.695 251.077 229.524C249.591 229.385 249.591 229.385 248.076 229.242C245.335 228.907 242.757 228.398 240.092 227.734C244.032 219.713 244.032 219.713 248.88 219.713Z" fill="#D5DE22"/>
<path d="M300.348 438.567C306.562 439.702 306.562 439.702 312.901 440.859C312.901 445.75 312.429 446.518 309.135 450.026C304.333 448.363 302.579 446.178 300.348 442.005C300.348 440.87 300.348 439.736 300.348 438.567Z" fill="#008DAF"/>
<path d="M378.179 352.63C381.573 353.047 382.879 353.411 385.063 355.893C386.534 358.243 388.005 360.592 389.476 362.942C382.02 361.808 382.02 361.808 374.413 360.651C374.413 356.621 375.447 355.642 378.179 352.63Z" fill="#008DAF"/>
<path d="M64.3467 219.713C66.2395 221.969 66.2395 221.969 68.2696 224.869C68.946 225.827 69.6224 226.784 70.3193 227.77C70.8339 228.514 71.3485 229.259 71.8786 230.026C70.0998 229.863 68.3215 229.695 66.5435 229.524C65.058 229.385 65.058 229.385 63.5425 229.242C60.8021 228.907 58.224 228.398 55.5594 227.734C59.4985 219.713 59.4985 219.713 64.3467 219.713Z" fill="#D5DE22"/>
<path d="M1128.86 209.401C1133.07 210.68 1133.63 211.402 1136 214.629C1136.83 215.73 1136.83 215.73 1137.67 216.853C1138.08 217.419 1138.48 217.985 1138.91 218.567C1134.6 219.928 1132.16 219.487 1127.92 218.066C1126.92 217.737 1125.92 217.407 1124.88 217.068C1124.12 216.806 1123.37 216.545 1122.59 216.276C1124.66 214.007 1126.73 211.738 1128.86 209.401Z" fill="#008DAF"/>
<path d="M155.986 149.817C155.986 151.33 155.986 152.842 155.986 154.401C152.808 156.123 150.704 156.922 147.056 156.079C144.551 155.206 142.1 154.28 139.666 153.255C144.806 148.117 148.735 148.694 155.986 149.817Z" fill="#F06421"/>
<path d="M1002.08 145.234C1003.32 145.234 1004.56 145.234 1005.84 145.234C1007.58 146.908 1007.58 146.908 1009.22 149.101C1010.04 150.178 1010.04 150.178 1010.88 151.277C1012.12 153.255 1012.12 153.255 1012.12 155.547C1009.84 155.225 1007.57 154.888 1005.29 154.544C1003.39 154.265 1003.39 154.265 1001.45 153.98C1000.42 153.741 999.379 153.501 998.31 153.255C997.896 152.499 997.482 151.742 997.055 150.963C999.33 148.099 999.33 148.099 1002.08 145.234Z" fill="#008DAF"/>
<path d="M336.753 133.776C341.035 135.079 341.923 136.117 344.285 139.505C344.285 140.261 344.285 141.017 344.285 141.797C338.929 143.1 334.788 144.088 329.221 144.088C330.868 139.577 332.885 136.953 336.753 133.776Z" fill="#008DAF"/>
<path d="M884.075 130.338C889.097 131.484 889.097 131.484 891.293 134.42C892.07 135.803 892.07 135.803 892.863 137.213C890.853 137.822 888.838 138.416 886.821 139.004C885.7 139.336 884.579 139.668 883.423 140.011C880.309 140.651 880.309 140.651 876.543 139.505C879.029 136.48 881.514 133.455 884.075 130.338Z" fill="#D5DE22"/>
<path d="M462.285 69.6091C465.384 70.9288 467.367 71.9555 469.817 74.1924C469.817 75.3268 469.817 76.4612 469.817 77.6299C464.846 78.3861 459.875 79.1424 454.753 79.9216C456.943 75.9253 459.182 73.008 462.285 69.6091Z" fill="#008DAF"/>
<path d="M1162.76 35.2341C1167.52 36.9418 1169.89 39.4629 1172.8 43.2549C1172.8 44.0112 1172.8 44.7674 1172.8 45.5466C1162.04 44.4007 1162.04 44.4007 1157.74 43.2549C1159.08 39.9146 1159.97 37.78 1162.76 35.2341Z" fill="#008DAF"/>
<path d="M1319.88 409.416C1320.9 409.748 1321.92 410.08 1322.97 410.423C1323.99 410.752 1325.02 411.081 1326.08 411.421C1326.86 411.682 1327.65 411.944 1328.46 412.213C1328.46 412.969 1328.46 413.726 1328.46 414.505C1322.25 416.206 1322.25 416.206 1315.91 417.942C1314.67 416.808 1313.42 415.674 1312.14 414.505C1315.2 408.314 1315.2 408.314 1319.88 409.416Z" fill="#F06421"/>
<path d="M1151.46 344.609C1152.7 344.609 1153.95 344.609 1155.23 344.609C1156.97 346.283 1156.97 346.283 1158.6 348.476C1159.42 349.553 1159.42 349.553 1160.26 350.651C1161.5 352.63 1161.5 352.63 1161.5 354.921C1156.95 354.165 1152.39 353.409 1147.69 352.63C1147.69 348.587 1148.5 347.51 1151.46 344.609Z" fill="#008DAF"/>
<path d="M211.22 334.296C212.048 334.675 212.877 335.053 213.731 335.442C214.476 338.477 214.662 341.506 214.986 344.609C207.529 342.907 207.529 342.907 199.922 341.171C199.922 340.415 199.922 339.659 199.922 338.88C201.747 338.081 203.579 337.296 205.414 336.516C206.943 335.858 206.943 335.858 208.503 335.187C209.4 334.893 210.296 334.599 211.22 334.296Z" fill="#008DAF"/>
<path d="M1086.18 277.005C1090.55 278.599 1091.81 280.021 1093.71 283.88C1091.91 284.459 1090.11 285.031 1088.3 285.599C1086.79 286.077 1086.79 286.077 1085.26 286.565C1082.42 287.317 1082.42 287.317 1078.65 287.317C1080.57 283.38 1083.17 280.306 1086.18 277.005Z" fill="#008DAF"/>
<path d="M798.713 243.776C805.548 244.91 805.548 244.91 812.522 246.067C809.697 252.513 809.697 252.513 804.99 255.234C803.937 253.758 802.892 252.277 801.851 250.794C801.269 249.97 800.686 249.146 800.086 248.296C798.713 246.067 798.713 246.067 798.713 243.776Z" fill="#008DAF"/>
<path d="M1250.63 219.713C1255.39 221.421 1257.77 223.942 1260.67 227.734C1260.67 228.49 1260.67 229.246 1260.67 230.026C1258.87 229.863 1257.06 229.695 1255.26 229.524C1254.26 229.431 1253.25 229.338 1252.21 229.242C1249.38 228.88 1249.38 228.88 1245.61 227.734C1247.12 224.877 1248.69 222.37 1250.63 219.713Z" fill="#008DAF"/>
<path d="M580.286 204.817C584.271 207.57 587.639 210.108 590.329 213.984C590.329 214.74 590.329 215.497 590.329 216.276C585.772 215.519 581.215 214.763 576.52 213.984C576.52 209.093 576.992 208.325 580.286 204.817Z" fill="#D5DE22"/>
<path d="M669.414 169.297C667.343 172.7 665.272 176.103 663.138 179.609C658.116 177.317 658.116 177.317 655.606 173.88C655.606 172.745 655.606 171.611 655.606 170.442C665.178 168.007 665.178 168.007 669.414 169.297Z" fill="#008DAF"/>
<path d="M1403.78 144.088C1408.06 145.391 1408.95 146.43 1411.31 149.817C1411.31 150.574 1411.31 151.33 1411.31 152.109C1405.96 153.413 1401.82 154.401 1396.25 154.401C1398.17 150.464 1400.77 147.389 1403.78 144.088Z" fill="#D5DE22"/>
<path d="M1219.25 144.088C1223.53 145.391 1224.42 146.43 1226.78 149.817C1226.78 150.574 1226.78 151.33 1226.78 152.109C1221.42 153.413 1217.28 154.401 1211.72 154.401C1213.63 150.464 1216.23 147.389 1219.25 144.088Z" fill="#D5DE22"/>
<path d="M213.731 144.088C216.084 144.876 216.084 144.876 218.752 146.38C219.58 148.271 220.409 150.161 221.263 152.109C216.291 153.243 211.32 154.378 206.199 155.547C208.34 150.659 210.087 147.968 213.731 144.088Z" fill="#008DAF"/>
<path d="M449.732 106.276C450.146 109.301 450.561 112.326 450.987 115.442C449.182 115.087 447.378 114.728 445.574 114.368C444.569 114.169 443.564 113.969 442.529 113.764C439.69 113.151 439.69 113.151 435.924 112.005C435.924 111.249 435.924 110.492 435.924 109.713C444.083 106.276 444.083 106.276 449.732 106.276Z" fill="#008DAF"/>
<path d="M1315.91 508.463C1317.49 508.605 1319.07 508.747 1320.69 508.893C1322.03 509.012 1322.03 509.012 1323.39 509.134C1325.95 509.609 1325.95 509.609 1329.72 511.901C1327.65 514.547 1325.57 517.194 1323.44 519.921C1319.07 516.462 1317.42 513.54 1315.91 508.463Z" fill="#008DAF"/>
<path d="M154.73 335.442C154.73 336.577 154.73 337.711 154.73 338.88C153.487 340.014 152.245 341.149 150.964 342.317C146.822 341.183 142.679 340.049 138.411 338.88C144.103 333.684 147.12 334.263 154.73 335.442Z" fill="#F06521"/>
<path d="M409.562 325.13C410.39 325.508 411.219 325.886 412.072 326.276C412.817 329.31 413.004 332.339 413.328 335.442C405.871 333.741 405.871 333.741 398.264 332.005C398.264 331.249 398.264 330.492 398.264 329.713C400.089 328.914 401.921 328.129 403.756 327.35C405.285 326.692 405.285 326.692 406.845 326.02C407.742 325.727 408.638 325.433 409.562 325.13Z" fill="#008DAF"/>
<path d="M1185.35 318.255C1185.77 321.28 1186.18 324.305 1186.61 327.421C1184.8 327.066 1183 326.707 1181.2 326.347C1180.19 326.148 1179.19 325.948 1178.15 325.743C1175.31 325.13 1175.31 325.13 1171.55 323.984C1171.55 323.228 1171.55 322.471 1171.55 321.692C1179.7 318.255 1179.7 318.255 1185.35 318.255Z" fill="#008DAF"/>
<path d="M516.264 191.067C517.093 194.47 517.922 197.874 518.775 201.38C514.218 200.245 509.661 199.111 504.967 197.942C504.967 196.808 504.967 195.674 504.967 194.505C513.44 191.067 513.44 191.067 516.264 191.067Z" fill="#008DAF"/>
<path d="M327.965 81.0674C334.801 82.2018 334.801 82.2018 341.774 83.3591C340.615 87.59 339.829 89.3809 336.753 92.5257C335.924 92.5257 335.096 92.5257 334.242 92.5257C332.171 88.7445 330.099 84.9632 327.965 81.0674Z" fill="#008DAF"/>
<path d="M143.432 81.0674C150.268 82.2018 150.268 82.2018 157.241 83.3591C156.082 87.59 155.296 89.3809 152.22 92.5257C151.391 92.5257 150.563 92.5257 149.709 92.5257C147.638 88.7445 145.566 84.9632 143.432 81.0674Z" fill="#008DAF"/>
<path d="M804.99 -8.30757C802.918 -4.52632 800.847 -0.745075 798.713 3.15076C797.885 3.15076 797.056 3.15076 796.202 3.15076C791.181 -3.05022 791.181 -3.05022 791.181 -6.01591C796.277 -7.7468 799.399 -8.30757 804.99 -8.30757Z" fill="#008DAF"/>
<path d="M152.22 433.984C150.148 437.387 148.077 440.79 145.943 444.296C139.917 440.348 139.917 440.348 138.646 437.135C138.569 436.473 138.491 435.812 138.411 435.13C146.571 432.695 146.571 432.695 152.22 433.984Z" fill="#008DAF"/>
<path d="M53.0487 365.234C53.463 368.259 53.8773 371.284 54.3041 374.401C52.262 374.077 50.2226 373.741 48.1843 373.398C47.0484 373.212 45.9124 373.026 44.742 372.834C41.7508 372.109 41.7508 372.109 39.2401 369.817C40.8305 369.045 42.427 368.283 44.0261 367.526C44.9145 367.1 45.8028 366.675 46.7182 366.237C49.2828 365.234 49.2828 365.234 53.0487 365.234Z" fill="#008DAF"/>
<path d="M1415.08 289.609C1419.54 290.308 1423.47 291.418 1427.63 293.046C1427.63 293.803 1427.63 294.559 1427.63 295.338C1426.07 295.951 1424.5 296.544 1422.92 297.129C1422.05 297.461 1421.18 297.793 1420.28 298.136C1417.21 298.865 1415.53 298.549 1412.57 297.63C1413.4 294.983 1414.23 292.336 1415.08 289.609Z" fill="#008DAF"/>
<path d="M1324.7 114.297C1327.06 118.613 1327.48 120.06 1327.21 124.609C1324.93 124.095 1322.65 123.567 1320.38 123.034C1319.11 122.741 1317.85 122.449 1316.54 122.147C1313.4 121.172 1313.4 121.172 1312.14 118.88C1316.28 117.367 1320.43 115.855 1324.7 114.297Z" fill="#008DAF"/>
<path d="M1018.4 30.6507C1022.88 31.2196 1026.8 32.464 1030.95 34.0882C1030.95 34.8445 1030.95 35.6007 1030.95 36.3799C1029.15 36.9592 1027.34 37.5306 1025.53 38.0987C1024.03 38.5772 1024.03 38.5772 1022.49 39.0655C1019.65 39.8174 1019.65 39.8174 1015.88 39.8174C1016.98 31.9398 1016.98 31.9398 1018.4 30.6507Z" fill="#008DAF"/>
<path d="M1323.44 5.44242C1321.77 9.55312 1319.89 13.2759 1317.16 16.9007C1316.33 16.9007 1315.51 16.9007 1314.65 16.9007C1312.17 12.9304 1312.17 12.9304 1309.63 8.87992C1311.46 8.30279 1313.29 7.73085 1315.12 7.16117C1316.14 6.84213 1317.16 6.52308 1318.21 6.19437C1320.93 5.44242 1320.93 5.44242 1323.44 5.44242Z" fill="#008DAF"/>
<path d="M1138.91 5.44242C1137.23 9.55312 1135.35 13.2759 1132.63 16.9007C1131.8 16.9007 1130.97 16.9007 1130.12 16.9007C1127.63 12.9304 1127.63 12.9304 1125.1 8.87992C1126.93 8.30279 1128.76 7.73085 1130.59 7.16117C1131.61 6.84213 1132.63 6.52308 1133.68 6.19437C1136.4 5.44242 1136.4 5.44242 1138.91 5.44242Z" fill="#008CAF"/>
<path d="M1056.06 250.651C1060.72 251.232 1064.51 251.929 1068.61 254.088C1068.61 254.844 1068.61 255.601 1068.61 256.38C1066.81 256.989 1065 257.583 1063.19 258.17C1061.69 258.669 1061.69 258.669 1060.15 259.177C1057.31 259.817 1057.31 259.817 1053.54 258.671C1054.37 256.025 1055.2 253.378 1056.06 250.651Z" fill="#008DAF"/>
<path d="M282.774 242.63C287.24 243.329 291.163 244.438 295.327 246.067C295.327 246.824 295.327 247.58 295.327 248.359C293.498 248.936 291.667 249.508 289.835 250.078C288.306 250.556 288.306 250.556 286.746 251.045C284.029 251.796 284.029 251.796 281.518 251.796C281.361 245.208 281.361 245.208 282.774 242.63Z" fill="#008DAF"/>
<path d="M1295.82 133.776C1301.49 134.384 1305.05 136.487 1309.63 139.505C1309.22 140.261 1308.8 141.017 1308.38 141.797C1305.51 142.271 1305.51 142.271 1302.02 142.513C1300.87 142.598 1299.71 142.684 1298.52 142.772C1297.19 142.856 1297.19 142.856 1295.82 142.942C1295.82 139.917 1295.82 136.892 1295.82 133.776Z" fill="#D5DE23"/>
<path d="M950.608 115.442C952.441 115.959 954.271 116.486 956.1 117.018C957.119 117.31 958.139 117.603 959.189 117.904C961.906 118.88 961.906 118.88 964.416 121.172C959.445 122.684 954.474 124.197 949.352 125.755C949.767 122.352 950.181 118.949 950.608 115.442Z" fill="#008DAF"/>
<path d="M663.138 67.3174C664.717 67.4592 666.296 67.601 667.924 67.7471C669.256 67.8667 669.256 67.8667 670.616 67.9888C673.18 68.4632 673.18 68.4632 676.946 70.7549C674.671 74.1924 674.671 74.1924 671.925 77.6299C670.682 77.6299 669.439 77.6299 668.159 77.6299C663.138 69.8955 663.138 69.8955 663.138 67.3174Z" fill="#008DAF"/>
<path d="M1254.4 259.817C1259.07 260.398 1262.85 261.096 1266.95 263.255C1266.95 264.011 1266.95 264.767 1266.95 265.546C1260.11 267.248 1260.11 267.248 1253.14 268.984C1252.98 262.395 1252.98 262.395 1254.4 259.817Z" fill="#008DAF"/>
<path d="M228.795 275.859C229.623 275.859 230.452 275.859 231.305 275.859C232.962 279.262 234.619 282.665 236.326 286.171C232.598 286.928 228.87 287.684 225.029 288.463C225.872 284.102 227.197 280.039 228.795 275.859Z" fill="#D5DE22"/>
<path d="M1321.87 225.299C1322.87 225.533 1323.88 225.766 1324.91 226.006C1325.67 226.198 1326.43 226.39 1327.21 226.588C1327.21 227.344 1327.21 228.101 1327.21 228.88C1320.99 230.581 1320.99 230.581 1314.65 232.317C1313.41 231.183 1312.17 230.049 1310.89 228.88C1310.89 228.124 1310.89 227.367 1310.89 226.588C1315.02 224.252 1317.21 224.173 1321.87 225.299Z" fill="#EB6525"/>
<path d="M1342.27 55.8591C1346.15 58.7575 1347.18 61.8455 1348.55 66.1716C1341.49 68.4632 1341.49 68.4632 1337.25 68.4632C1337.85 66.7915 1338.45 65.1207 1339.05 63.4502C1339.39 62.5197 1339.72 61.5891 1340.07 60.6304C1341.01 58.1507 1341.01 58.1507 1342.27 55.8591Z" fill="#D5DE22"/>
<path d="M68.1127 306.796C68.9412 306.796 69.7697 306.796 70.6233 306.796C75.6446 314.531 75.6446 314.531 75.6446 317.109C70.0521 317.676 70.0521 317.676 64.3467 318.255C65.5894 314.474 66.8322 310.692 68.1127 306.796Z" fill="#D5DE22"/>
<path d="M428.392 266.692C431.31 269.961 433.1 273.041 434.668 277.005C430.94 277.761 427.212 278.517 423.37 279.296C424.132 274.567 425.929 270.895 428.392 266.692Z" fill="#D5DE22"/>
<path d="M171.049 58.1507C171.049 61.1757 171.049 64.2007 171.049 67.3174C168.982 67.1873 166.916 67.0411 164.851 66.8877C163.125 66.7681 163.125 66.7681 161.365 66.646C159.945 66.4112 159.945 66.4112 158.496 66.1716C158.082 65.4153 157.668 64.6591 157.241 63.8799C159.068 62.9191 160.899 61.9656 162.733 61.0153C164.262 60.2177 164.262 60.2177 165.822 59.404C168.539 58.1507 168.539 58.1507 171.049 58.1507Z" fill="#D5DE23"/>
<path d="M1396.25 231.171C1397.08 231.171 1397.91 231.171 1398.76 231.171C1400.42 234.953 1402.07 238.734 1403.78 242.63C1400.05 242.252 1396.32 241.874 1392.48 241.484C1393.18 237.653 1394.18 234.571 1396.25 231.171Z" fill="#D5DE22"/>
<path d="M1235.57 201.38C1236.81 201.758 1238.05 202.136 1239.33 202.526C1240.52 204.893 1240.52 204.893 1241.45 207.754C1241.92 209.174 1241.92 209.174 1242.41 210.623C1242.64 211.354 1242.86 212.085 1243.1 212.838C1239.79 212.46 1236.47 212.082 1233.06 211.692C1231.8 208.255 1231.8 208.255 1233.61 204.603C1234.25 203.539 1234.9 202.476 1235.57 201.38Z" fill="#D5DE22"/>
<path d="M464.796 47.8382C466.039 48.2164 467.282 48.5945 468.562 48.9841C470.68 53.0661 470.68 53.0661 472.328 57.0049C468.096 58.7216 465.795 59.2966 461.03 59.2966C462.273 55.5153 463.516 51.7341 464.796 47.8382Z" fill="#D6DE23"/>
<path d="M1037.23 192.213C1038.47 192.591 1039.71 192.969 1040.99 193.359C1042.18 195.727 1042.18 195.727 1043.11 198.587C1043.58 200.007 1043.58 200.007 1044.07 201.456C1044.29 202.187 1044.52 202.918 1044.76 203.671C1041.44 203.293 1038.13 202.915 1034.71 202.526C1033.46 199.088 1033.46 199.088 1035.26 195.436C1035.91 194.372 1036.56 193.309 1037.23 192.213Z" fill="#D5DE22"/>
<path d="M1392.48 113.151C1394.14 113.529 1395.8 113.907 1397.5 114.297C1397.97 120.502 1397.97 120.502 1395.62 123.893C1395 124.507 1394.38 125.122 1393.74 125.755C1392.08 125.377 1390.42 124.999 1388.72 124.609C1390.01 122.245 1391.31 119.899 1392.72 117.591C1393.05 116.882 1393.39 116.173 1393.74 115.442C1393.32 114.686 1392.91 113.93 1392.48 113.151Z" fill="#048EAB"/>
<path d="M140.922 39.8174C145.149 41.4139 147.181 43.2308 149.709 46.6924C146.395 47.4487 143.081 48.2049 139.666 48.9841C140.081 45.9591 140.495 42.9341 140.922 39.8174Z" fill="#048CAC"/>
</g>
<defs>
<clipPath id="clip0_127_257">
<rect width="1569" height="813" fill="white" transform="translate(-36 -70)"/>
</clipPath>
</defs>
</svg>
