<svg width="38" height="38" viewBox="0 0 38 38" fill="none" xmlns="http://www.w3.org/2000/svg">
<path fill-rule="evenodd" clip-rule="evenodd" d="M19 3.16663C22.7793 3.16663 26.4039 4.66796 29.0763 7.34035C31.7487 10.0127 33.25 13.6373 33.25 17.4166C33.25 22.2838 30.5963 26.2675 27.8002 29.1254C26.4031 30.5378 24.8788 31.8183 23.2465 32.9507L22.572 33.4099L22.2553 33.6205L21.6584 34.0005L21.1264 34.325L20.4678 34.7082C20.0207 34.9634 19.5148 35.0976 19 35.0976C18.4852 35.0976 17.9793 34.9634 17.5323 34.7082L16.8736 34.325L16.0503 33.8184L15.7463 33.6205L15.0971 33.1882C13.3362 31.9968 11.6959 30.636 10.1998 29.1254C7.40367 26.2659 4.75 22.2838 4.75 17.4166C4.75 13.6373 6.25133 10.0127 8.92373 7.34035C11.5961 4.66796 15.2207 3.16663 19 3.16663ZM19 6.33329C16.0605 6.33329 13.2414 7.501 11.1629 9.57953C9.08437 11.6581 7.91667 14.4771 7.91667 17.4166C7.91667 21.0931 9.93067 24.32 12.4624 26.9103C13.551 28.0123 14.7276 29.0237 15.9806 29.9345L16.7057 30.4506C16.9401 30.6142 17.1654 30.7662 17.3818 30.9066L17.9993 31.3025L18.5424 31.6334L19 31.901L19.7204 31.475L20.3015 31.1109C20.6108 30.9145 20.9417 30.6945 21.2943 30.4506L22.0194 29.9345C23.2724 29.0237 24.449 28.0123 25.5376 26.9103C28.0693 24.3215 30.0833 21.0931 30.0833 17.4166C30.0833 14.4771 28.9156 11.6581 26.8371 9.57953C24.7586 7.501 21.9395 6.33329 19 6.33329ZM19 11.0833C20.6797 11.0833 22.2906 11.7506 23.4783 12.9383C24.6661 14.126 25.3333 15.7369 25.3333 17.4166C25.3333 19.0963 24.6661 20.7072 23.4783 21.895C22.2906 23.0827 20.6797 23.75 19 23.75C17.3203 23.75 15.7094 23.0827 14.5217 21.895C13.3339 20.7072 12.6667 19.0963 12.6667 17.4166C12.6667 15.7369 13.3339 14.126 14.5217 12.9383C15.7094 11.7506 17.3203 11.0833 19 11.0833ZM19 14.25C18.1601 14.25 17.3547 14.5836 16.7608 15.1775C16.167 15.7713 15.8333 16.5768 15.8333 17.4166C15.8333 18.2565 16.167 19.0619 16.7608 19.6558C17.3547 20.2497 18.1601 20.5833 19 20.5833C19.8399 20.5833 20.6453 20.2497 21.2392 19.6558C21.833 19.0619 22.1667 18.2565 22.1667 17.4166C22.1667 16.5768 21.833 15.7713 21.2392 15.1775C20.6453 14.5836 19.8399 14.25 19 14.25Z" fill="#3E4C55"/>
</svg>
