<svg width="58" height="59" viewBox="0 0 58 59" fill="none" xmlns="http://www.w3.org/2000/svg">
<mask id="mask0_80_1238" style="mask-type:luminance" maskUnits="userSpaceOnUse" x="5" y="5" width="48" height="49">
<path d="M5 5.5H53V53.5H5V5.5Z" fill="white"/>
<path fill-rule="evenodd" clip-rule="evenodd" d="M24.0032 13.6102C24.3494 13.2641 24.8189 13.0697 25.3084 13.0697C25.798 13.0697 26.2675 13.2641 26.6137 13.6102L33.1417 20.1382C33.4878 20.4844 33.6822 20.9539 33.6822 21.4435C33.6822 21.933 33.4878 22.4025 33.1417 22.7487L24.0032 31.8872C23.8269 32.0575 23.6862 32.2612 23.5895 32.4864C23.4927 32.7116 23.4418 32.9539 23.4397 33.199C23.4375 33.4442 23.4842 33.6873 23.5771 33.9141C23.6699 34.141 23.807 34.3472 23.9803 34.5205C24.1537 34.6938 24.3598 34.8309 24.5867 34.9237C24.8136 35.0166 25.0567 35.0633 25.3018 35.0612C25.5469 35.059 25.7892 35.0081 26.0144 34.9113C26.2396 34.8146 26.4434 34.6739 26.6137 34.4976L35.7521 25.3592C36.0983 25.0131 36.5678 24.8186 37.0574 24.8186C37.5469 24.8186 38.0164 25.0131 38.3626 25.3592L44.8906 31.8872C45.2367 32.2334 45.4311 32.7029 45.4311 33.1924C45.4311 33.6819 45.2367 34.1514 44.8906 34.4976L35.7521 43.6361C32.9823 46.4059 29.2256 47.962 25.3084 47.962C21.3913 47.962 17.6346 46.4059 14.8647 43.6361C12.0949 40.8662 10.5388 37.1095 10.5388 33.1924C10.5388 29.2752 12.0949 25.5185 14.8647 22.7487L24.0032 13.6102ZM25.3084 17.5278L17.4752 25.3592C15.3977 27.4367 14.2306 30.2544 14.2306 33.1924C14.2306 36.1304 15.3977 38.9481 17.4752 41.0256C19.5527 43.1031 22.3704 44.2702 25.3084 44.2702C28.2465 44.2702 31.0642 43.1031 33.1417 41.0256L40.973 33.1924L37.0574 29.2767L29.2241 37.1081C28.7154 37.6459 28.1041 38.0763 27.4262 38.3738C26.7483 38.6713 26.0177 38.8298 25.2775 38.8401C24.5373 38.8504 23.8025 38.7122 23.1166 38.4337C22.4307 38.1552 21.8076 37.742 21.2842 37.2185C20.7607 36.695 20.3475 36.0719 20.069 35.3861C19.7904 34.7002 19.6522 33.9654 19.6625 33.2252C19.6728 32.485 19.8314 31.7543 20.1289 31.0765C20.4264 30.3986 20.8568 29.7872 21.3946 29.2785L29.226 21.4453L25.3084 17.5278Z" fill="black"/>
<path fill-rule="evenodd" clip-rule="evenodd" d="M24.0027 26.6656L20.087 22.7517L22.6974 20.1394L26.6131 24.0551L24.0027 26.6656ZM35.7516 38.4145L31.8359 34.5006L34.4464 31.8883L38.362 35.804L35.7516 38.4145ZM37.546 22.9068C37.3208 22.8169 37.1154 22.6835 36.9417 22.5143C36.768 22.345 36.6293 22.1431 36.5337 21.9203C36.438 21.6974 36.3872 21.4578 36.3841 21.2153C36.3811 20.9728 36.4259 20.732 36.5159 20.5068L39.0082 14.276L41.8864 15.236L43.3984 12.0865C43.6104 11.6451 43.989 11.306 44.4511 11.1438C44.9131 10.9816 45.4206 11.0096 45.862 11.2216C46.3034 11.4336 46.6426 11.8123 46.8048 12.2743C46.967 12.7363 46.939 13.2439 46.727 13.6853L43.8064 19.7665L41.1442 18.8803L39.9442 21.8785C39.8541 22.1036 39.7206 22.3088 39.5513 22.4823C39.3819 22.6558 39.1801 22.7943 38.9572 22.8897C38.7343 22.9852 38.4948 23.0359 38.2524 23.0388C38.0099 23.0417 37.7712 22.9969 37.546 22.9068Z" fill="black"/>
</mask>
<g mask="url(#mask0_80_1238)">
<path d="M29 53.5C42.2548 53.5 53 42.7548 53 29.5C53 16.2452 42.2548 5.5 29 5.5C15.7452 5.5 5 16.2452 5 29.5C5 42.7548 15.7452 53.5 29 53.5Z" fill="#89A8BB"/>
</g>
</svg>
