<svg width="38" height="38" viewBox="0 0 38 38" fill="none" xmlns="http://www.w3.org/2000/svg">
<path d="M13.2609 25.731L21.2567 23.4351C21.7845 23.2768 22.2399 23.006 22.6231 22.6229C23.0063 22.2397 23.2765 21.7848 23.4338 21.258L25.7296 13.2622C25.8088 12.9719 25.7365 12.7144 25.5127 12.4895C25.2889 12.2647 25.0314 12.1924 24.74 12.2726L16.7442 14.5685C16.2164 14.7268 15.7615 14.9975 15.3794 15.3807C14.9973 15.7639 14.7265 16.2188 14.5671 16.7455L12.2713 24.7414C12.1921 25.0317 12.2649 25.2892 12.4898 25.514C12.7146 25.7389 12.9716 25.8112 13.2609 25.731ZM19.0004 21.3768C18.3407 21.3768 17.7802 21.1462 17.3189 20.6849C16.8577 20.2236 16.6265 19.6626 16.6254 19.0018C16.6244 18.341 16.8556 17.7805 17.3189 17.3203C17.7823 16.8601 18.3428 16.6289 19.0004 16.6268C19.6581 16.6247 20.2191 16.8558 20.6835 17.3203C21.148 17.7847 21.3786 18.3452 21.3754 19.0018C21.3723 19.6583 21.1416 20.2194 20.6835 20.6849C20.2254 21.1504 19.6644 21.381 19.0004 21.3768ZM19.0004 34.8351C16.8102 34.8351 14.7518 34.4192 12.8254 33.5875C10.8991 32.7557 9.22337 31.6278 7.79837 30.2039C6.37337 28.7799 5.24551 27.1042 4.41478 25.1768C3.58406 23.2493 3.16817 21.191 3.16712 19.0018C3.16606 16.8126 3.58195 14.7542 4.41478 12.8268C5.24762 10.8993 6.37548 9.22365 7.79837 7.79971C9.22125 6.37576 10.8969 5.2479 12.8254 4.41612C14.7539 3.58435 16.8123 3.16846 19.0004 3.16846C21.1886 3.16846 23.2469 3.58435 25.1754 4.41612C27.1039 5.2479 28.7796 6.37576 30.2025 7.79971C31.6254 9.22365 32.7538 10.8993 33.5877 12.8268C34.4216 14.7542 34.8369 16.8126 34.8338 19.0018C34.8306 21.191 34.4147 23.2493 33.5861 25.1768C32.7575 27.1042 31.6296 28.7799 30.2025 30.2039C28.7754 31.6278 27.0997 32.7562 25.1754 33.589C23.2512 34.4219 21.1928 34.8372 19.0004 34.8351Z" fill="#252525"/>
</svg>
