<svg width="58" height="59" viewBox="0 0 58 59" fill="none" xmlns="http://www.w3.org/2000/svg">
<path d="M20.2403 39.7738L32.4445 36.2696C33.25 36.028 33.9452 35.6147 34.53 35.0299C35.1149 34.4451 35.5273 33.7507 35.7674 32.9467L39.2715 20.7426C39.3924 20.2995 39.282 19.9064 38.9405 19.5632C38.5989 19.2201 38.2058 19.1097 37.7611 19.2321L25.557 22.7363C24.7514 22.978 24.057 23.3912 23.4738 23.9761C22.8906 24.5609 22.4773 25.2553 22.234 26.0592L18.7299 38.2634C18.609 38.7064 18.7202 39.0996 19.0634 39.4427C19.4065 39.7859 19.7989 39.8962 20.2403 39.7738ZM29.0007 33.128C27.9938 33.128 27.1383 32.7759 26.4342 32.0719C25.7302 31.3678 25.3773 30.5115 25.3757 29.503C25.3741 28.4944 25.7269 27.6389 26.4342 26.9365C27.1415 26.234 27.997 25.8812 29.0007 25.878C30.0044 25.8747 30.8607 26.2276 31.5696 26.9365C32.2785 27.6454 32.6305 28.5009 32.6257 29.503C32.6209 30.5051 32.2688 31.3614 31.5696 32.0719C30.8704 32.7824 30.0141 33.1344 29.0007 33.128ZM29.0007 53.6696C25.6577 53.6696 22.516 53.0349 19.5757 51.7653C16.6354 50.4957 14.0778 48.7743 11.9028 46.6009C9.7278 44.4275 8.00633 41.8699 6.73838 38.928C5.47044 35.9861 4.83566 32.8444 4.83405 29.503C4.83244 26.1615 5.46722 23.0199 6.73838 20.078C8.00955 17.1361 9.73102 14.5784 11.9028 12.4051C14.0746 10.2317 16.6322 8.51019 19.5757 7.24064C22.5192 5.97108 25.6609 5.3363 29.0007 5.3363C32.3405 5.3363 35.4822 5.97108 38.4257 7.24064C41.3692 8.51019 43.9268 10.2317 46.0986 12.4051C48.2704 14.5784 49.9927 17.1361 51.2655 20.078C52.5382 23.0199 53.1722 26.1615 53.1674 29.503C53.1625 32.8444 52.5278 35.9861 51.263 38.928C49.9983 41.8699 48.2769 44.4275 46.0986 46.6009C43.9204 48.7743 41.3628 50.4965 38.4257 51.7677C35.4887 53.0389 32.347 53.6729 29.0007 53.6696Z" fill="#89A8BB"/>
</svg>
