<svg width="58" height="59" viewBox="0 0 58 59" fill="none" xmlns="http://www.w3.org/2000/svg">
<path d="M38.5993 41.4903V46.2903H4.99933V41.4903C4.99933 41.4903 4.99933 31.8903 21.7993 31.8903C38.5993 31.8903 38.5993 41.4903 38.5993 41.4903ZM30.1993 18.6902C30.1993 17.0289 29.7067 15.4048 28.7837 14.0235C27.8607 12.6421 26.5488 11.5654 25.0139 10.9297C23.479 10.2939 21.79 10.1275 20.1606 10.4517C18.5311 10.7758 17.0344 11.5758 15.8596 12.7506C14.6849 13.9253 13.8848 15.4221 13.5607 17.0515C13.2366 18.6809 13.403 20.3699 14.0387 21.9048C14.6745 23.4397 15.7512 24.7516 17.1325 25.6746C18.5139 26.5976 20.138 27.0903 21.7993 27.0903C24.0271 27.0903 26.1637 26.2053 27.739 24.6299C29.3143 23.0546 30.1993 20.9181 30.1993 18.6902ZM38.4553 31.8903C39.9307 33.032 41.138 34.4833 41.9921 36.1419C42.8463 37.8004 43.3266 39.6261 43.3993 41.4903V46.2903H52.9993V41.4903C52.9993 41.4903 52.9993 32.7783 38.4553 31.8903ZM36.1993 10.2902C34.5476 10.2826 32.9324 10.7763 31.5673 11.7062C33.0252 13.7432 33.8091 16.1853 33.8091 18.6902C33.8091 21.1952 33.0252 23.6373 31.5673 25.6742C32.9324 26.6042 34.5476 27.0979 36.1993 27.0903C38.4271 27.0903 40.5637 26.2053 42.139 24.6299C43.7143 23.0546 44.5993 20.9181 44.5993 18.6902C44.5993 16.4624 43.7143 14.3259 42.139 12.7506C40.5637 11.1752 38.4271 10.2902 36.1993 10.2902Z" fill="#89A8BB"/>
</svg>
