<svg width="38" height="38" viewBox="0 0 38 38" fill="none" xmlns="http://www.w3.org/2000/svg">
<path fill-rule="evenodd" clip-rule="evenodd" d="M3.16669 9.5C3.16669 8.24022 3.66713 7.03204 4.55793 6.14124C5.44873 5.25045 6.65691 4.75 7.91669 4.75H30.0834C31.3431 4.75 32.5513 5.25045 33.4421 6.14124C34.3329 7.03204 34.8334 8.24022 34.8334 9.5V25.3333C34.8334 26.5931 34.3329 27.8013 33.4421 28.6921C32.5513 29.5829 31.3431 30.0833 30.0834 30.0833H17.9439L12.6667 34.0417C11.362 35.0202 9.50002 34.0892 9.50002 32.4583V30.0833H7.91669C6.65691 30.0833 5.44873 29.5829 4.55793 28.6921C3.66713 27.8013 3.16669 26.5931 3.16669 25.3333V9.5ZM7.91669 7.91667C7.49676 7.91667 7.09403 8.08348 6.7971 8.38041C6.50017 8.67735 6.33335 9.08007 6.33335 9.5V25.3333C6.33335 25.7533 6.50017 26.156 6.7971 26.4529C7.09403 26.7499 7.49676 26.9167 7.91669 26.9167H10.2917C10.9216 26.9167 11.5257 27.1669 11.9711 27.6123C12.4165 28.0577 12.6667 28.6618 12.6667 29.2917V30.0833L16.0439 27.55C16.5921 27.1389 17.2588 26.9167 17.9439 26.9167H30.0834C30.5033 26.9167 30.906 26.7499 31.2029 26.4529C31.4999 26.156 31.6667 25.7533 31.6667 25.3333V9.5C31.6667 9.08007 31.4999 8.67735 31.2029 8.38041C30.906 8.08348 30.5033 7.91667 30.0834 7.91667H7.91669Z" fill="#3E4C55"/>
</svg>
