<svg width="38" height="38" viewBox="0 0 38 38" fill="none" xmlns="http://www.w3.org/2000/svg">
<path d="M20.7733 26.9531L14.1249 23.3273C13.2569 24.2552 12.1299 24.9006 10.8903 25.1796C9.65066 25.4586 8.35579 25.3583 7.17395 24.8917C5.9921 24.4251 4.97792 23.6138 4.26322 22.5632C3.54852 21.5127 3.16633 20.2715 3.16633 19.0008C3.16633 17.7302 3.54852 16.489 4.26322 15.4384C4.97792 14.3879 5.9921 13.5766 7.17395 13.11C8.35579 12.6434 9.65066 12.5431 10.8903 12.8221C12.1299 13.101 13.2569 13.7464 14.1249 14.6744L20.7749 11.0485C20.3979 9.55382 20.579 7.97291 21.2843 6.60217C21.9896 5.23144 23.1705 4.16498 24.6059 3.60271C26.0412 3.04044 27.6323 3.02096 29.081 3.54794C30.5296 4.07491 31.7364 5.11214 32.475 6.46521C33.2136 7.81828 33.4333 9.39427 33.093 10.8978C32.7527 12.4013 31.8758 13.7291 30.6265 14.6322C29.3773 15.5354 27.8415 15.9519 26.3071 15.8037C24.7727 15.6555 23.3451 14.9528 22.2917 13.8273L15.6417 17.4531C15.8975 18.4685 15.8975 19.5315 15.6417 20.547L22.2917 24.1728C23.3456 23.0478 24.7736 22.3458 26.308 22.1984C27.8425 22.051 29.378 22.4682 30.6268 23.3719C31.8756 24.2757 32.7519 25.6038 33.0915 27.1074C33.4311 28.6111 33.2106 30.1869 32.4715 31.5396C31.7323 32.8923 30.5251 33.929 29.0763 34.4554C27.6274 34.9817 26.0364 34.9616 24.6013 34.3987C23.1662 33.8359 21.9857 32.769 21.281 31.398C20.5763 30.027 20.3958 28.4461 20.7733 26.9515M9.49999 22.1667C10.3398 22.1667 11.1453 21.8331 11.7392 21.2392C12.333 20.6453 12.6667 19.8399 12.6667 19C12.6667 18.1602 12.333 17.3547 11.7392 16.7609C11.1453 16.167 10.3398 15.8334 9.49999 15.8334C8.66014 15.8334 7.85468 16.167 7.26082 16.7609C6.66695 17.3547 6.33332 18.1602 6.33332 19C6.33332 19.8399 6.66695 20.6453 7.26082 21.2392C7.85468 21.8331 8.66014 22.1667 9.49999 22.1667ZM26.9167 12.6667C27.7565 12.6667 28.562 12.3331 29.1558 11.7392C29.7497 11.1453 30.0833 10.3399 30.0833 9.50004C30.0833 8.66019 29.7497 7.85474 29.1558 7.26087C28.562 6.66701 27.7565 6.33338 26.9167 6.33338C26.0768 6.33338 25.2713 6.66701 24.6775 7.26087C24.0836 7.85474 23.75 8.66019 23.75 9.50004C23.75 10.3399 24.0836 11.1453 24.6775 11.7392C25.2713 12.3331 26.0768 12.6667 26.9167 12.6667ZM26.9167 31.6667C27.7565 31.6667 28.562 31.3331 29.1558 30.7392C29.7497 30.1453 30.0833 29.3399 30.0833 28.5C30.0833 27.6602 29.7497 26.8547 29.1558 26.2609C28.562 25.667 27.7565 25.3334 26.9167 25.3334C26.0768 25.3334 25.2713 25.667 24.6775 26.2609C24.0836 26.8547 23.75 27.6602 23.75 28.5C23.75 29.3399 24.0836 30.1453 24.6775 30.7392C25.2713 31.3331 26.0768 31.6667 26.9167 31.6667Z" fill="#3E4C55"/>
</svg>
